<svg width="39" height="24" viewBox="0 0 39 24" fill="none" xmlns="http://www.w3.org/2000/svg">
<path d="M38.0467 2.01033C37.6447 3.29473 37.0568 4.5133 36.3015 5.62721L36.3319 5.57918C35.6146 6.77467 34.758 8.15588 33.7621 9.72283C32.9082 10.9599 32.4562 11.6004 32.406 11.6441C32.1778 11.9299 32.0302 12.2716 31.9785 12.6336L31.9769 12.6448C32.0177 12.9711 32.1692 13.2734 32.406 13.5014L33.0465 14.2155C36.4728 17.7369 38.4 20.1641 38.828 21.4973C38.9092 21.7163 38.9353 21.9519 38.904 22.1834C38.8728 22.4148 38.7851 22.635 38.6487 22.8246L38.6519 22.8198C38.4907 22.9861 38.2942 23.114 38.077 23.1941C37.8597 23.2742 37.6272 23.3044 37.3966 23.2825H37.4031H33.1825C32.643 23.2825 32.1466 23.0936 31.7576 22.7798L31.7624 22.783C31.2069 22.3275 30.6969 21.8192 30.2397 21.2652L30.2253 21.2459C29.4877 20.4123 28.8334 19.7105 28.2624 19.1405C26.3603 17.3323 24.9566 16.4282 24.0515 16.4282C23.7593 16.4021 23.4672 16.4785 23.2253 16.6444L23.2301 16.6412C23.1262 16.7715 23.0499 16.9216 23.0058 17.0824C22.9618 17.2431 22.9509 17.4111 22.9739 17.5762V17.5698C22.9117 18.3169 22.8914 19.0668 22.9131 19.8162V19.7889V21.6446C22.9586 21.8663 22.943 22.0961 22.8679 22.3096C22.7929 22.5231 22.6613 22.7122 22.4872 22.8567L22.4856 22.8583C21.6748 23.2246 20.7821 23.372 19.8966 23.2857L19.9174 23.2873C17.4937 23.2458 15.1272 22.5438 13.0727 21.2572L13.1288 21.2892C10.7598 19.861 8.72921 17.9353 7.17748 15.6453L7.13425 15.5781C5.628 13.5694 4.30398 11.4304 3.17794 9.18646L3.06586 8.93989C2.31552 7.4868 1.6562 5.98848 1.0917 4.45361L0.995637 4.15741C0.733914 3.3606 0.56731 2.53564 0.499296 1.69972L0.496094 1.65969C0.496094 0.850601 0.972154 0.446056 1.92427 0.446056H6.13517C6.56088 0.412714 6.98348 0.54138 7.31838 0.806303L7.31518 0.803102C7.6354 1.15374 7.87236 1.58444 7.98924 2.06477L7.99405 2.08398C8.68971 4.07626 9.53925 6.01141 10.535 7.87196L10.4277 7.65261C11.1474 9.11445 12.0183 10.4968 13.0263 11.777L12.9895 11.7274C13.8434 12.7756 14.5095 13.2997 14.9876 13.2997L15.0389 13.3013C15.1515 13.3015 15.2621 13.2719 15.3596 13.2157C15.4572 13.1595 15.5382 13.0786 15.5945 12.9811L15.5961 12.9779C15.7494 12.5766 15.8101 12.1458 15.7738 11.7178V11.7274V5.51674C15.7439 4.81257 15.5695 4.12207 15.2614 3.48815L15.2742 3.51857C15.0875 3.11568 14.8449 2.74109 14.5538 2.4058L14.5586 2.41221C14.2901 2.14416 14.1154 1.79653 14.0606 1.42113L14.059 1.41152C14.059 1.13933 14.1839 0.894364 14.3792 0.734254L14.3808 0.732653C14.5818 0.548556 14.8448 0.446819 15.1173 0.447657H21.7683C21.9353 0.428173 22.1044 0.450449 22.2606 0.512488C22.4169 0.574527 22.5552 0.674387 22.6633 0.803102L22.6649 0.804703C22.8671 1.17836 22.9556 1.60301 22.9195 2.02634V2.01834V10.3008C22.894 10.6275 22.97 10.9541 23.1372 11.2359L23.134 11.2295C23.1927 11.3171 23.272 11.3889 23.365 11.4386C23.458 11.4883 23.5618 11.5144 23.6672 11.5145C23.9372 11.4969 24.1992 11.4074 24.4229 11.2551L24.4181 11.2583C24.8536 10.9589 25.2283 10.6178 25.5533 10.232L25.5597 10.224C26.5489 9.10476 27.4357 7.89911 28.2095 6.6215L28.272 6.50942C28.8228 5.59679 29.4184 4.47282 29.9579 3.31843L30.0572 3.08307L30.7713 1.65489C30.897 1.28562 31.1396 0.96731 31.4622 0.74807C31.7849 0.528829 32.1701 0.420569 32.5597 0.439652H32.5549H36.7674C37.9053 0.439652 38.3322 0.963211 38.0483 2.01033H38.0467Z" fill="black"/>
</svg>
