<svg width="64" height="64" viewBox="0 0 64 64" fill="none" xmlns="http://www.w3.org/2000/svg">
<path d="M62 23H52H44H34C33.4 23 33 23.4 33 24V30.7L30.5 30.1L27.8 27.4C30.8 24.6 31 18.7 31 17C34.7 17 37.3 16 38.3 14.2C38.7 13.4 39 12.1 37.9 10.4C36.8 8.8 35.4 8 33.5 8C33.4 8 29.9 8 29.9 8C29.6 6.2 28.4 2.4 23.7 1.3C22.7 1.1 21.3 1 21 1C10.6 1 9 6 9 9V14C9 14.7 9.3 15.5 9.9 16.1C9.4 16.7 9 17.7 9 19C9 21.5 10.7 22.6 12.2 22.9C12.7 24.4 13.4 25.5 14.1 26.4L10.4 30.1C9.6 31 10.6 31.9 10.6 31.9L6.3 36.2C5.9 36.7 2 40.7 2 44C2 44.2 2 44.3 2.1 44.4L7.1 54.4C7.2 54.7 7.5 54.8 7.7 54.9C7.8 54.9 8.7 55.2 10 55.2C10 55.3 9.9 60.9 9.9 60.9C9.9 61.5 10.3 61.9 10.9 61.9C11.5 61.9 11.9 61.5 11.9 60.9V58.1C13.4 59.9 15.8 61.9 18.9 61.9C22 61.9 27.7 59.9 32.7 58.1C33.6 57.8 34.4 57.5 35.2 57.2C35.4 57.1 35.6 57.1 35.9 57V61C35.9 61.6 36.3 62 36.9 62C37.5 62 37.9 61.6 37.9 61V56.5C39.7 56.1 41.4 55.9 42.9 56H49.9C51.6 56 53.9 55.4 54.6 53.6C54.8 53.1 54.9 52.6 54.9 52H61.9C62.5 52 62.9 51.6 62.9 51V24C63 23.4 62.6 23 62 23ZM51 25V30.4L48.4 29.1C48.3 29 48.2 29 48 29C47.8 29 47.7 29 47.6 29.1L45 30.4V25H51ZM21.8 30.5C21.7 30.3 21.2 30 21.2 30C22.4 30 23.4 29.8 24.4 29.5L24 30.7L23 33.3C23 33.3 21.9 30.5 21.8 30.5ZM26.7 29.1L28.8 31.2L27.8 33.1L26.1 30.8L26.7 29.1ZM28.5 10C27.6 10.7 26.8 11.6 26.2 12.4C24.5 14.9 23 15 23 15H17.7C18.1 14.6 18.5 14.1 18.8 13.6C20 11.8 22.2 10 24 10H28.5ZM36.2 11.6C36.7 12.3 36.8 12.9 36.5 13.3C36.1 14.1 34.4 15 31 15H30.9C30.7 13.2 30.4 11.9 30.2 11.2C31.3 10.5 32.4 10 33.5 10C34.6 10 35.5 10.5 36.2 11.6ZM11 9C11 5.4 13.9 3.9 17.2 3.3C15.5 5.1 15 7.4 15 9C15 9.6 15.4 10 16 10C16.5 10 17 9.6 17 9C17 8.4 17.2 3.6 22.1 3.1C26.4 3.5 27.6 6.5 27.9 8H24C21.3 8 18.6 10.2 17.2 12.4C15.5 14.9 14 15 14 15H12C11.2 15 11 14.5 11 14V9ZM13 21C12.7 21 11 20.9 11 19C11 17.2 11.8 17 12 17H23C23.3 17 25.6 16.9 27.8 13.6C28 13.3 28.2 13 28.5 12.7C28.7 13.6 29 15.1 29 17.1C29 17.2 29.4 22.7 26.5 25.9C25.2 27.3 23.3 28 21 28C20.9 28 15.7 27.9 14 21.7C13.8 21.3 13.4 21 13 21ZM15.1 28.3L19.5 31.2L16.8 34.6L12.4 31L15.1 28.3ZM4 43.8C4.2 41.7 6.7 38.7 7.7 37.7L12.1 33.3L16.3 36.8C16.5 37 16.7 37 16.9 37H17C17.3 37 17.5 36.8 17.7 36.6L20.6 32.9L22 36.3C22.2 36.7 22.5 36.9 22.9 36.9C23.3 36.9 23.7 36.7 23.8 36.3L25.1 33L27 35.6C27.2 35.9 27.5 36 27.9 36C28.2 36 28.5 35.8 28.7 35.5L30.3 32.2L32.8 32.8V48.7C31.3 49.2 29.5 49.8 27.6 50.4C26.1 50.9 24.6 51.4 23.2 51.9C21.5 52.5 19.5 51.8 18.6 50.2L14.7 43.5C14.4 43 13.8 42.9 13.3 43.2C12.8 43.5 12.7 44.1 13 44.6L15.8 49.2C14.2 53.9 9.9 53.5 8.6 53.2L4 43.8ZM52.8 52.8C52.5 53.6 51.1 54 50 54H43.1C39.8 53.8 36.4 54.8 34.7 55.4C33.9 55.7 33 56 32.2 56.3C27.5 57.9 21.8 60 19 60C15.5 60 13 56.4 12.2 55.1C13.9 54.7 15.8 53.8 17.2 51.4C18.3 53.1 20.2 54.1 22.2 54.1C22.8 54.1 23.4 54 24 53.8C25.3 53.4 26.8 52.9 28.4 52.3C32.8 50.8 38.2 49 39.6 49H46.6C46.9 49 47.5 49.2 47.6 50H45C44.4 50 44 50.4 44 51C44 51.6 44.4 52 45 52C45 52 52.6 52.1 53 52.1C53 52.3 52.9 52.6 52.8 52.8ZM61 50H49.6C49.5 47.8 47.8 47 46.6 47H39.6C38.7 47 37.2 47.4 35 48V25H43V32C43 32.3 43.2 32.7 43.5 32.9C43.8 33.1 44.2 33.1 44.5 32.9L48.1 31.1L51.7 32.9C51.7 33 51.8 33 52 33C52.2 33 52.4 33 52.5 32.9C52.8 32.7 53 32.4 53 32V25H61V50Z" fill="#CF9C32"/>
<path d="M43 43H39C38.4 43 38 43.4 38 44C38 44.6 38.4 45 39 45H43C43.6 45 44 44.6 44 44C44 43.4 43.6 43 43 43Z" fill="#CF9C32"/>
<path d="M39 42H41C41.6 42 42 41.6 42 41C42 40.4 41.6 40 41 40H39C38.4 40 38 40.4 38 41C38 41.6 38.4 42 39 42Z" fill="#CF9C32"/>
</svg>
