<svg width="64" height="64" viewBox="0 0 64 64" fill="none" xmlns="http://www.w3.org/2000/svg">
<path d="M11.8219 59.2483H5.66928C3.58435 59.2483 1.88796 57.5521 1.88796 55.4669V49.5017H7.05177V51.91C7.05177 52.4314 7.47442 52.8539 7.99575 52.8539H19.8757C20.397 52.8539 20.8196 52.4314 20.8196 51.91V49.5017H34.094C34.6153 49.5017 35.038 49.0791 35.038 48.5577C35.038 48.0362 34.6153 47.6137 34.094 47.6137H14.6538V42.9085H15.7116C17.0118 42.9085 18.0695 41.8508 18.0695 40.5506V38.8264H18.2835C20.5192 38.8264 22.4851 37.3183 23.0644 35.159L24.1783 31.0066C24.4353 30.048 25.3081 29.3787 26.3004 29.3787H40.9672C41.9994 29.3787 42.8391 30.2185 42.8391 31.2507V45.742C42.8391 46.7741 41.9994 47.6138 40.9672 47.6138H37.8699C37.3486 47.6138 36.9259 48.0364 36.9259 48.5578C36.9259 49.0793 37.3486 49.5018 37.8699 49.5018H40.9672C43.0404 49.5018 44.7271 47.8152 44.7271 45.742V31.2507C44.7271 29.1774 43.0404 27.4907 40.9672 27.4907H26.3004C24.4553 27.4907 22.8328 28.7354 22.3547 30.5175L21.2409 34.6699C20.8826 36.0055 19.6665 36.9386 18.2835 36.9386H8.89404C8.08738 36.9386 7.34428 36.6099 6.80156 36.013C6.25896 35.4161 6.00219 34.6452 6.07872 33.8422L7.43352 19.6276C7.70903 16.7374 10.1061 14.558 13.0094 14.558H19.4439C19.9653 14.558 20.3879 14.1354 20.3879 13.614C20.3879 13.0925 19.9653 12.67 19.4439 12.67H14.8796V10.3628C14.8796 9.84135 14.457 9.41882 13.9356 9.41882C13.4143 9.41882 12.9917 9.84135 12.9917 10.3628V12.6704C9.11783 12.6793 5.92189 15.5901 5.55399 19.4484L4.19932 33.663C4.07346 34.9827 4.51285 36.3022 5.40472 37.2831C6.29646 38.2639 7.56832 38.8265 8.89404 38.8265H9.35017V40.5507C9.35017 41.8509 10.4079 42.9087 11.7081 42.9087H12.7659V47.6138H0.943979C0.422651 47.6138 0 48.0364 0 48.5578V55.467C0 58.5931 2.54333 61.1364 5.66928 61.1364H11.8218C12.3431 61.1364 12.7657 60.7139 12.7657 60.1924C12.7659 59.671 12.3432 59.2483 11.8219 59.2483ZM11.2381 40.5507V38.8265H16.1817V40.5507C16.1817 40.81 15.9709 41.0207 15.7117 41.0207H11.7081C11.449 41.0207 11.2381 40.8099 11.2381 40.5507ZM18.9317 50.9661H8.93973V49.5018H18.9317V50.9661Z" fill="#CF9C32"/>
<path d="M56.5108 12.67H55.5178V5.99062C55.5178 5.46917 55.0951 5.04664 54.5738 5.04664H52.8242V3.80726C52.8242 3.28581 52.4015 2.86328 51.8802 2.86328C51.3588 2.86328 50.9362 3.28581 50.9362 3.80726V5.04664H49.1913C48.67 5.04664 48.2474 5.46917 48.2474 5.99062V12.67H23.2198C22.6985 12.67 22.2759 13.0925 22.2759 13.6139C22.2759 14.1354 22.6985 14.5579 23.2198 14.5579H56.5108C59.5994 14.5579 62.112 17.0707 62.112 20.1591V55.4668C62.112 57.5519 60.4156 59.2483 58.3307 59.2483H15.5978C15.0765 59.2483 14.6538 59.6708 14.6538 60.1922C14.6538 60.7137 15.0765 61.1362 15.5978 61.1362H58.3307C61.4568 61.1362 64 58.5929 64 55.4668V20.1591C64 16.0295 60.6404 12.67 56.5108 12.67ZM50.1353 6.9346H53.6299V12.67H50.1353V6.9346Z" fill="#CF9C32"/>
<path d="M53.6657 27.293C51.1082 27.293 49.0276 29.3735 49.0276 31.9311C49.0276 34.4885 51.1082 36.5693 53.6657 36.5693C56.2231 36.5693 58.3038 34.4886 58.3038 31.9311C58.3038 29.3735 56.2231 27.293 53.6657 27.293ZM53.6657 34.6812C52.1493 34.6812 50.9155 33.4475 50.9155 31.9309C50.9155 30.4145 52.1493 29.1808 53.6657 29.1808C55.1821 29.1808 56.4158 30.4145 56.4158 31.9309C56.4158 33.4475 55.1821 34.6812 53.6657 34.6812Z" fill="#CF9C32"/>
<path d="M56.5776 19.8857H41.8048C41.2835 19.8857 40.8608 20.3083 40.8608 20.8297C40.8608 21.3512 41.2835 21.7737 41.8048 21.7737H56.5776C57.0989 21.7737 57.5216 21.3512 57.5216 20.8297C57.5216 20.3084 57.0989 19.8857 56.5776 19.8857Z" fill="#CF9C32"/>
<path d="M37.4073 21.7737C37.9287 21.7737 38.3513 21.3512 38.3513 20.8297C38.3513 20.3083 37.9287 19.8857 37.4073 19.8857H34.557C34.0357 19.8857 33.613 20.3083 33.613 20.8297C33.613 21.3512 34.0357 21.7737 34.557 21.7737H37.4073Z" fill="#CF9C32"/>
</svg>
