<svg width="64" height="64" viewBox="0 0 64 64" fill="none" xmlns="http://www.w3.org/2000/svg">
<path d="M56.1767 41.8316C56.6315 41.8316 57.0001 41.463 57.0001 41.0083V7.44956C57.0001 5.48215 55.3995 3.88159 53.4321 3.88159H10.568C8.52587 3.88159 7 5.99718 7 7.88869V56.5504C7 58.5178 8.60066 60.1184 10.568 60.1184H13.908C14.3627 60.1184 14.7314 59.7498 14.7314 59.295C14.7314 58.8403 14.3627 58.4717 13.908 58.4717H10.568C9.50858 58.4717 8.64669 57.6098 8.64669 56.5504V7.88869C8.64669 6.82623 9.53319 5.52828 10.568 5.52828H44.2705V58.4716H17.6707C17.216 58.4716 16.8474 58.8402 16.8474 59.2949C16.8474 59.7497 17.216 60.1183 17.6707 60.1183H53.4321C55.3995 60.1183 57.0001 58.5177 57.0001 56.5503V44.6725C57.0001 44.2176 56.6315 43.8491 56.1767 43.8491C55.722 43.8491 55.3534 44.2177 55.3534 44.6725V56.5503C55.3534 57.6097 54.4915 58.4716 53.4321 58.4716H45.9172V54.4107H50.5694C51.0242 54.4107 51.3928 54.042 51.3928 53.5873C51.3928 53.1325 51.0242 52.764 50.5694 52.764H45.9172V47.2459H47.4199C47.8747 47.2459 48.2433 46.8773 48.2433 46.4226C48.2433 45.9679 47.8747 45.5993 47.4199 45.5993H45.9172V40.0812H50.5694C51.0242 40.0812 51.3928 39.7126 51.3928 39.2579C51.3928 38.8032 51.0242 38.4345 50.5694 38.4345H45.9172V32.9165H47.4199C47.8747 32.9165 48.2433 32.5479 48.2433 32.0932C48.2433 31.6383 47.8747 31.2698 47.4199 31.2698H45.9172V25.7518H50.5694C51.0242 25.7518 51.3928 25.3832 51.3928 24.9285C51.3928 24.4737 51.0242 24.1051 50.5694 24.1051H45.9172V18.5871H47.4199C47.8747 18.5871 48.2433 18.2185 48.2433 17.7638C48.2433 17.3089 47.8747 16.9404 47.4199 16.9404H45.9172V11.4223H51.3928C51.8475 11.4223 52.2161 11.0537 52.2161 10.5989C52.2161 10.1442 51.8475 9.77559 51.3928 9.77559H45.9172V5.52839H53.4321C54.4915 5.52839 55.3534 6.39028 55.3534 7.44967V41.0083C55.3534 41.463 55.722 41.8316 56.1767 41.8316Z" fill="#CF9C32"/>
<path d="M12.8935 44.4319C12.572 44.1106 12.0506 44.1106 11.7291 44.4319C11.4075 44.7535 11.4075 45.2748 11.7291 45.5964L13.7651 47.6324C13.9259 47.7931 14.1365 47.8735 14.3473 47.8735C14.5581 47.8735 14.7688 47.7931 14.9296 47.6324L16.9655 45.5964C17.2871 45.2748 17.2871 44.7535 16.9655 44.4319C16.644 44.1106 16.1226 44.1106 15.8011 44.4319L15.1708 45.0623V11.7882L15.8011 12.4185C15.9619 12.5792 16.1726 12.6596 16.3834 12.6596C16.5941 12.6596 16.8048 12.5792 16.9656 12.4185C17.2872 12.0969 17.2872 11.5756 16.9656 11.254L14.9297 9.21809C14.6082 8.8967 14.0868 8.8967 13.7653 9.21809L11.729 11.254C11.4074 11.5756 11.4074 12.0969 11.729 12.4185C12.0505 12.7399 12.5719 12.7399 12.8934 12.4185L13.5237 11.7882V45.0623L12.8935 44.4319Z" fill="#CF9C32"/>
<path d="M23.6962 32.555C22.0986 33.9643 20.9775 35.8886 20.5393 37.9733L20.0467 40.3173C19.589 42.495 19.3569 44.7278 19.3569 46.9533C19.3569 47.9039 20.1303 48.6772 21.0809 48.6772H29.6884V49.7605C29.6884 50.2154 30.057 50.5839 30.5117 50.5839C30.9664 50.5839 31.3351 50.2153 31.3351 49.7605V48.6772H39.9425C40.8929 48.6772 41.6663 47.9067 41.6665 46.9596C41.6669 44.7322 41.4349 42.4973 40.9767 40.3171L40.4841 37.9732C40.0471 35.8945 38.9304 33.9742 37.34 32.5664C36.6893 31.9903 36.5153 31.0498 36.917 30.2793L38.621 27.01C39.4448 25.4295 39.8802 23.6521 39.8802 21.8697V19.316C39.8802 18.6595 39.4984 18.0505 38.9075 17.7642L33.7858 15.2846C33.7593 15.2718 33.7423 15.2446 33.7423 15.2152V14.315C33.7423 13.5791 33.1435 12.9805 32.4077 12.9805H31.3353V12.1673C32.2753 11.8289 32.9493 10.9284 32.9493 9.87332C32.9493 8.52935 31.8559 7.43591 30.5119 7.43591C29.168 7.43591 28.0745 8.52924 28.0745 9.87332C28.0745 10.9284 28.7486 11.8289 29.6886 12.1673V12.9805H28.6161C27.8802 12.9805 27.2816 13.5792 27.2816 14.315V15.2152C27.2816 15.2445 27.2645 15.2717 27.238 15.2846L22.1162 17.7643C21.5253 18.0505 21.1436 18.6595 21.1436 19.316V21.8697C21.1436 22.8874 21.2833 23.9003 21.5586 24.88C21.6818 25.3177 22.1363 25.573 22.5742 25.4497C23.0119 25.3266 23.267 24.872 23.1439 24.4342C22.9092 23.5996 22.7902 22.7367 22.7902 21.8697V19.316C22.7902 19.2866 22.8074 19.2593 22.8337 19.2464L27.9554 16.7668C28.5464 16.4808 28.9282 15.8718 28.9282 15.2152V14.6273H32.0956V15.2153C32.0956 15.8719 32.4774 16.4809 33.0684 16.767L38.1899 19.2464C38.2169 19.2595 38.2336 19.2861 38.2336 19.316V21.8697C38.2336 23.3881 37.8627 24.9024 37.161 26.2488L35.4569 29.5181C34.7051 30.9606 35.0308 32.7212 36.2488 33.7995C37.5761 34.9744 38.5081 36.5771 38.8728 38.3121L39.3654 40.6559C39.8003 42.7248 40.0205 44.8455 40.02 46.9591C40.02 46.9978 39.9847 47.0304 39.9428 47.0304H21.0808C21.0383 47.0304 21.0036 46.9958 21.0036 46.9532C21.0036 44.8412 21.2238 42.7226 21.6583 40.656L22.1509 38.3119C22.5165 36.5721 23.4521 34.9661 24.7854 33.7898C25.9986 32.7197 26.3199 30.9629 25.5667 29.518L24.494 27.46C24.2838 27.0569 23.7865 26.9001 23.3834 27.1105C22.98 27.3206 22.8235 27.8178 23.0337 28.2212L24.1064 30.2792C24.5088 31.0511 24.34 31.9869 23.6962 32.555ZM30.5117 9.08271C30.9477 9.08271 31.3023 9.43738 31.3023 9.87332C31.3023 10.3094 30.9477 10.664 30.5117 10.664C30.0758 10.664 29.7211 10.3094 29.7211 9.87332C29.7211 9.43738 30.0758 9.08271 30.5117 9.08271Z" fill="#CF9C32"/>
<path d="M37.8905 55.7663C38.0513 55.927 38.262 56.0074 38.4727 56.0074C38.6835 56.0074 38.8942 55.927 39.055 55.7663L41.0909 53.7303C41.4125 53.4087 41.4125 52.8874 41.0909 52.5658L39.055 50.5299C38.7335 50.2085 38.2121 50.2085 37.8906 50.5299C37.569 50.8515 37.569 51.3728 37.8906 51.6944L38.521 52.3246H22.7499L23.3803 51.6944C23.7019 51.3728 23.7019 50.8515 23.3803 50.5299C23.0588 50.2085 22.5374 50.2085 22.2159 50.5299L20.1799 52.5658C19.8583 52.8874 19.8583 53.4087 20.1799 53.7303L22.2159 55.7663C22.3767 55.927 22.5873 56.0074 22.7981 56.0074C23.0089 56.0074 23.2196 55.927 23.3804 55.7663C23.702 55.4447 23.702 54.9234 23.3804 54.6018L22.75 53.9715H38.5208L37.8905 54.6018C37.5689 54.9234 37.5689 55.4447 37.8905 55.7663Z" fill="#CF9C32"/>
</svg>
