<svg width="24" height="24" viewBox="0 0 24 24" fill="none" xmlns="http://www.w3.org/2000/svg">
<g clip-path="url(#clip0_355_636)">
<path d="M19.1593 3.51472L11.9999 10.6742L4.8404 3.51472C4.47428 3.14859 3.8807 3.14859 3.51458 3.51472C3.14845 3.88085 3.14845 4.47442 3.51458 4.84054L10.674 12L3.51458 19.1595C3.14845 19.5256 3.14845 20.1192 3.51458 20.4853C3.8807 20.8514 4.47428 20.8514 4.8404 20.4853L11.9999 13.3258L19.1593 20.4853C19.5254 20.8514 20.119 20.8514 20.4851 20.4853C20.8513 20.1192 20.8513 19.5256 20.4851 19.1595L13.3257 12L20.4851 4.84054C20.8513 4.47442 20.8513 3.88085 20.4851 3.51472C20.119 3.14859 19.5254 3.14859 19.1593 3.51472Z" fill="black"/>
</g>
<defs>
<clipPath id="clip0_355_636">
<rect width="24" height="24" fill="white"/>
</clipPath>
</defs>
</svg>
