<svg width="24" height="24" viewBox="0 0 24 24" fill="none" xmlns="http://www.w3.org/2000/svg">
<mask id="path-1-inside-1_61_2084" fill="white">
<path d="M12 22.3523C11.6583 22.3523 11.3289 22.2285 11.0722 22.0037C10.1027 21.1559 9.16794 20.3592 8.34323 19.6564L8.33902 19.6528C5.92112 17.5923 3.83317 15.8129 2.38041 14.06C0.756453 12.1004 4.57764e-05 10.2424 4.57764e-05 8.21271C4.57764e-05 6.24066 0.676253 4.42133 1.90397 3.0896C3.14634 1.74213 4.85105 1 6.70462 1C8.09 1 9.35873 1.43799 10.4755 2.3017C11.0391 2.73767 11.55 3.27124 12 3.89362C12.4503 3.27124 12.961 2.73767 13.5247 2.3017C14.6415 1.43799 15.9102 1 17.2956 1C19.149 1 20.8539 1.74213 22.0963 3.0896C23.324 4.42133 24 6.24066 24 8.21271C24 10.2424 23.2438 12.1004 21.6198 14.0598C20.1671 15.8129 18.0793 17.5921 15.6618 19.6524C14.8356 20.3563 13.8994 21.1542 12.9276 22.004C12.6711 22.2285 12.3415 22.3523 12 22.3523ZM4.00005 10.1875C2.54381 10.1875 2.47325 9.63208 1.50005 10.6875C0.512377 11.7589 1.40574 6.59479 1.40574 8.21271C1.40574 9.9198 19.5775 4.00751 21 5.72394C22.375 7.38306 11.1321 14.1941 13.5 16.2121V18C14.3278 18.7055 11.0722 20.5 10.5 20C11.4825 19.1443 9.17053 17.2066 10 16.5C12.3677 14.482 11.1251 5.84662 12.5 4.1875C13.9224 2.47107 16.5 10.8946 16.5 9.1875C16.5 7.56958 12.9877 9.75885 12 8.6875C11.027 7.63208 16 2 17.4425 2.3017C21.7667 6.08331 16.8649 6.0188 16 6.6875C15.2294 7.28369 16.8148 13.1602 16.5 13.6875C16.3382 13.9587 13.3154 16.5 12.9999 16.5C12.6844 16.5 9.66191 9.95868 9.50005 9.6875C9.18547 9.16016 9.77092 12.7837 9.00005 12.1875C8.13524 11.5188 5.06663 10.1875 4.00005 10.1875Z"/>
</mask>
<path d="M12 22.3523C11.6583 22.3523 11.3289 22.2285 11.0722 22.0037C10.1027 21.1559 9.16794 20.3592 8.34323 19.6564L8.33902 19.6528C5.92112 17.5923 3.83317 15.8129 2.38041 14.06C0.756453 12.1004 4.57764e-05 10.2424 4.57764e-05 8.21271C4.57764e-05 6.24066 0.676253 4.42133 1.90397 3.0896C3.14634 1.74213 4.85105 1 6.70462 1C8.09 1 9.35873 1.43799 10.4755 2.3017C11.0391 2.73767 11.55 3.27124 12 3.89362C12.4503 3.27124 12.961 2.73767 13.5247 2.3017C14.6415 1.43799 15.9102 1 17.2956 1C19.149 1 20.8539 1.74213 22.0963 3.0896C23.324 4.42133 24 6.24066 24 8.21271C24 10.2424 23.2438 12.1004 21.6198 14.0598C20.1671 15.8129 18.0793 17.5921 15.6618 19.6524C14.8356 20.3563 13.8994 21.1542 12.9276 22.004C12.6711 22.2285 12.3415 22.3523 12 22.3523ZM4.00005 10.1875C2.54381 10.1875 2.47325 9.63208 1.50005 10.6875C0.512377 11.7589 1.40574 6.59479 1.40574 8.21271C1.40574 9.9198 19.5775 4.00751 21 5.72394C22.375 7.38306 11.1321 14.1941 13.5 16.2121V18C14.3278 18.7055 11.0722 20.5 10.5 20C11.4825 19.1443 9.17053 17.2066 10 16.5C12.3677 14.482 11.1251 5.84662 12.5 4.1875C13.9224 2.47107 16.5 10.8946 16.5 9.1875C16.5 7.56958 12.9877 9.75885 12 8.6875C11.027 7.63208 16 2 17.4425 2.3017C21.7667 6.08331 16.8649 6.0188 16 6.6875C15.2294 7.28369 16.8148 13.1602 16.5 13.6875C16.3382 13.9587 13.3154 16.5 12.9999 16.5C12.6844 16.5 9.66191 9.95868 9.50005 9.6875C9.18547 9.16016 9.77092 12.7837 9.00005 12.1875C8.13524 11.5188 5.06663 10.1875 4.00005 10.1875Z" fill="black"/>
<path d="M11.0722 22.0037L17.6611 14.4812L17.6548 14.4757L11.0722 22.0037ZM8.34323 19.6564L1.78144 27.2025L1.81922 27.2353L1.85733 27.2678L8.34323 19.6564ZM8.33902 19.6528L14.9008 12.1067L14.8631 12.074L14.8251 12.0416L8.33902 19.6528ZM2.38041 14.06L-5.31923 20.4409L-5.31898 20.4412L2.38041 14.06ZM1.90397 3.0896L-5.44801 -3.68892L-5.44837 -3.68853L1.90397 3.0896ZM10.4755 2.3017L16.5941 -5.60798L16.5933 -5.60855L10.4755 2.3017ZM12 3.89362L3.89681 9.75347L11.9984 20.9566L20.1021 9.75504L12 3.89362ZM13.5247 2.3017L19.6421 10.2123L19.6426 10.2119L13.5247 2.3017ZM22.0963 3.0896L29.4486 -3.68853L29.4482 -3.68892L22.0963 3.0896ZM21.6198 14.0598L13.9205 7.67859L13.9201 7.67904L21.6198 14.0598ZM15.6618 19.6524L22.1469 27.2645L22.1481 27.2634L15.6618 19.6524ZM12.9276 22.004L6.34469 14.4764L6.3422 14.4786L12.9276 22.004ZM1.50005 10.6875L-5.85156 3.90857L-5.85233 3.9094L1.50005 10.6875ZM21 5.72394L28.6997 -0.656896L28.6995 -0.657193L21 5.72394ZM13.5 16.2121H23.5V11.5955L19.9863 8.60107L13.5 16.2121ZM13.5 18H3.5V22.6165L7.01359 25.6109L13.5 18ZM10.5 20L3.93268 12.4588L-4.71242 19.9874L3.92018 27.5303L10.5 20ZM10 16.5L16.4848 24.1123L16.4866 24.1108L10 16.5ZM12.5 4.1875L20.1997 10.5683L20.1999 10.5681L12.5 4.1875ZM12 8.6875L19.3524 1.9094L19.3523 1.90926L12 8.6875ZM17.4425 2.3017L24.0255 -5.22585L22.0537 -6.95026L19.4897 -7.48652L17.4425 2.3017ZM16 6.6875L9.88304 -1.22339L9.88134 -1.22208L16 6.6875ZM16.5 13.6875L25.0867 18.8128L25.0868 18.8127L16.5 13.6875ZM9.50005 9.6875L0.911984 14.8105L0.913368 14.8128L9.50005 9.6875ZM9.00005 12.1875L15.1178 4.27722L15.1171 4.27661L9.00005 12.1875ZM12 12.3523C14.0791 12.3523 16.092 13.1068 17.6611 14.4812L4.48338 29.5261C6.56593 31.3502 9.2376 32.3523 12 32.3523V12.3523ZM17.6548 14.4757C16.6305 13.5801 15.6497 12.7443 14.8291 12.0451L1.85733 27.2678C2.68616 27.9741 3.57483 28.7317 4.48969 29.5316L17.6548 14.4757ZM14.905 12.1104L14.9008 12.1067L1.77723 27.1988L1.78144 27.2025L14.905 12.1104ZM14.8251 12.0416C12.1814 9.78866 10.8586 8.61853 10.0798 7.67883L-5.31898 20.4412C-3.19229 23.0072 -0.339186 25.3959 1.85291 27.264L14.8251 12.0416ZM10.0801 7.67913C9.76599 7.30015 9.7697 7.21167 9.84318 7.39216C9.88072 7.48439 9.92416 7.61699 9.95613 7.77978C9.98816 7.94287 10 8.09226 10 8.21271H-9.99995C-9.99995 13.1153 -8.04216 17.1552 -5.31923 20.4409L10.0801 7.67913ZM10 8.21271C10 8.51024 9.88837 9.18213 9.25631 9.86773L-5.44837 -3.68853C-8.53586 -0.339482 -9.99995 3.97109 -9.99995 8.21271H10ZM9.25596 9.86812C8.58122 10.5999 7.60866 11 6.70462 11V-9C2.09344 -9 -2.28854 -7.11568 -5.44801 -3.68892L9.25596 9.86812ZM6.70462 11C6.32692 11 5.88481 10.9374 5.42771 10.7796C4.97246 10.6224 4.61241 10.409 4.35765 10.2119L16.5933 -5.60855C13.7612 -7.79896 10.3498 -9 6.70462 -9V11ZM4.35691 10.2114C4.10697 10.018 3.96272 9.84461 3.89681 9.75347L20.1032 -1.96624C19.1372 -3.30213 17.9712 -4.54269 16.5941 -5.60798L4.35691 10.2114ZM20.1021 9.75504C20.0377 9.844 19.8936 10.0178 19.6421 10.2123L7.40741 -5.60894C6.02829 -4.54247 4.86281 -3.30152 3.89794 -1.96781L20.1021 9.75504ZM19.6426 10.2119C19.3878 10.409 19.0278 10.6224 18.5725 10.7796C18.1154 10.9374 17.6733 11 17.2956 11V-9C13.6504 -9 10.2391 -7.79896 7.4069 -5.60855L19.6426 10.2119ZM17.2956 11C16.3915 11 15.4191 10.6 14.7443 9.86812L29.4482 -3.68892C26.2887 -7.11579 21.9065 -9 17.2956 -9V11ZM14.7439 9.86773C14.1114 9.18167 14 8.50954 14 8.21271H34C34 3.97178 32.5365 -0.339014 29.4486 -3.68853L14.7439 9.86773ZM14 8.21271C14 8.09241 14.0119 7.94313 14.0439 7.78009C14.0758 7.61736 14.1193 7.48474 14.1568 7.39244C14.2304 7.21175 14.2343 7.29999 13.9205 7.67859L29.3192 20.441C32.0428 17.1548 34 13.1148 34 8.21271H14ZM13.9201 7.67904C13.1414 8.61873 11.819 9.78844 9.17542 12.0414L22.1481 27.2634C24.3396 25.3958 27.1928 23.007 29.3195 20.4406L13.9201 7.67904ZM9.17665 12.0403C8.35371 12.7415 7.37143 13.5785 6.34469 14.4764L19.5106 29.5316C20.4273 28.7299 21.3175 27.9711 22.1469 27.2645L9.17665 12.0403ZM6.3422 14.4786C7.91136 13.1054 9.92273 12.3523 12 12.3523V32.3523C14.7603 32.3523 17.4308 31.3516 19.5131 29.5295L6.3422 14.4786ZM4.00005 0.1875C4.32073 0.1875 4.59091 0.223771 4.68305 0.238238C4.68571 0.238655 4.68329 0.238288 4.67201 0.236433C4.65837 0.234189 4.64527 0.232003 4.61469 0.226908C4.57185 0.219768 4.45357 0.199934 4.32373 0.180262C4.08309 0.143802 3.50417 0.0595576 2.78445 0.0440408C0.94278 0.00433528 -1.03779 0.422421 -2.91827 1.51238C-4.39229 2.36676 -5.38913 3.40707 -5.85156 3.90857L8.85166 17.4664C8.8183 17.5026 8.66713 17.6653 8.41857 17.8832C8.16898 18.1019 7.73008 18.4571 7.11118 18.8159C6.45781 19.1946 5.65679 19.5466 4.7219 19.7764C3.79153 20.0051 2.97232 20.0527 2.35336 20.0394C1.7943 20.0273 1.38359 19.9631 1.32765 19.9546C1.29016 19.9489 1.26835 19.9451 1.32721 19.9549C1.366 19.9613 1.46872 19.9786 1.58081 19.9962C2.12615 20.0818 2.95125 20.1875 4.00005 20.1875V0.1875ZM-5.85233 3.9094C-5.49251 3.5191 -4.47063 2.46404 -2.76 1.69593C-1.83128 1.27892 -0.544823 0.877693 1.01758 0.838309C2.64026 0.797404 4.26209 1.15728 5.73192 1.90196C8.5177 3.31336 9.74457 5.54793 10.1772 6.4697C10.6664 7.51211 10.8448 8.38668 10.9123 8.76416C11.0528 9.54902 11.0351 10.0967 11.0344 10.1344C11.0319 10.269 11.0246 10.3208 11.0283 10.2855C11.031 10.2595 11.0343 10.2398 11.0323 10.2515C11.031 10.2593 11.0241 10.2993 11.0093 10.3685C10.9977 10.4234 10.963 10.5824 10.8991 10.8068C10.8666 10.9207 10.8111 11.1064 10.7293 11.3366C10.6588 11.5352 10.504 11.9519 10.2462 12.4596C10.1143 12.7193 9.90067 13.1119 9.59208 13.5627C9.30941 13.9755 8.76533 14.7069 7.90818 15.4513C7.08793 16.1638 5.43262 17.3636 2.97296 17.7654C1.69788 17.9738 0.34125 17.9408 -1.0109 17.6101C-2.34799 17.2831 -3.46905 16.7173 -4.36005 16.0945C-6.04387 14.9174 -6.94186 13.52 -7.3505 12.7893C-7.79639 11.992 -8.03945 11.2977 -8.16533 10.8925C-8.41368 10.093 -8.49949 9.44875 -8.52947 9.20463C-8.5968 8.65643 -8.59426 8.25862 -8.59426 8.21271H11.4057C11.4057 7.96456 11.4013 7.41749 11.3214 6.76666C11.2851 6.47123 11.1916 5.78732 10.9343 4.95906C10.8039 4.53948 10.5561 3.83343 10.1051 3.02707C9.69141 2.28733 8.78806 0.883434 7.09862 -0.297552C5.15024 -1.65954 2.54315 -2.42954 -0.252041 -1.97284C-2.71784 -1.56996 -4.37953 -0.366735 -5.20639 0.351413C-6.07015 1.1016 -6.62105 1.84101 -6.91077 2.26417C-7.22639 2.72517 -7.44727 3.13027 -7.58657 3.40462C-8.05473 4.32661 -8.28103 5.13551 -8.33591 5.32821C-8.63192 6.36747 -8.787 7.47621 -8.86321 8.20476C-8.90946 8.64688 -8.95136 9.1847 -8.9621 9.76299C-8.97104 10.2443 -8.97062 11.1933 -8.77507 12.2864C-8.67996 12.818 -8.46471 13.8233 -7.92801 14.9669C-7.44792 15.9898 -6.16295 18.2959 -3.30707 19.7428C0.0304173 21.4338 3.31865 20.8902 5.43245 19.941C7.2385 19.1301 8.36914 17.9898 8.85242 17.4656L-5.85233 3.9094ZM-8.59426 8.21271C-8.59426 10.7197 -7.67531 13.1184 -6.03323 14.9753C-4.57349 16.626 -2.93364 17.4169 -1.95313 17.7908C-0.125094 18.488 1.5129 18.5191 2.08803 18.525C3.52238 18.5395 4.97097 18.3232 5.90996 18.1668C7.97317 17.8232 10.6309 17.2178 12.8409 16.7262C15.2738 16.185 17.3286 15.7426 18.8252 15.5176C19.6145 15.3989 19.8218 15.4092 19.6559 15.4077C19.5899 15.407 19.0108 15.4061 18.1813 15.2043C17.5753 15.0568 15.2351 14.4392 13.3006 12.1051L28.6995 -0.657193C26.5872 -3.20584 23.9383 -3.97846 22.9099 -4.2287C21.6578 -4.53336 20.5425 -4.58491 19.8435 -4.59147C18.4115 -4.6049 16.9658 -4.42765 15.8514 -4.26009C13.5407 -3.91266 10.7858 -3.30551 8.49802 -2.79658C5.98724 -2.23806 4.01311 -1.79273 2.62465 -1.56152C1.83782 -1.43049 1.85562 -1.4784 2.29065 -1.474C2.36612 -1.47323 3.61231 -1.49175 5.17347 -0.896381C6.02053 -0.573342 7.55817 0.15361 8.94906 1.72649C10.5223 3.50555 11.4057 5.81238 11.4057 8.21271H-8.59426ZM13.3004 12.1048C9.53177 7.55724 11.7051 2.75994 11.9978 2.16345C12.4737 1.1933 12.9512 0.750148 12.6857 1.04131C12.243 1.52684 11.5443 2.14756 10.0953 3.485C9.04113 4.45795 7.17761 6.17723 5.81915 8.01863C5.19725 8.86161 3.91851 10.7147 3.40096 13.2496C3.11339 14.658 3.00456 16.5537 3.62629 18.6382C4.27227 20.804 5.52429 22.5538 7.01367 23.8231L19.9863 8.60107C21.1797 9.61812 22.2421 11.0782 22.7919 12.9217C23.3175 14.6839 23.2061 16.2248 22.9967 17.2506C22.7942 18.2422 22.4659 18.9391 22.2904 19.2743C22.1035 19.6314 21.9492 19.8434 21.9134 19.8919C21.8585 19.9663 21.9464 19.8402 22.3187 19.4623C22.6654 19.1104 23.1015 18.6974 23.66 18.1819C24.5538 17.3569 26.2601 15.8377 27.4648 14.5164C28.023 13.9042 29.1347 12.641 29.9531 10.9729C30.3756 10.1117 31.0175 8.55542 31.1067 6.53347C31.2073 4.25076 30.5726 1.60303 28.6997 -0.656896L13.3004 12.1048ZM3.5 16.2121V18H23.5V16.2121H3.5ZM7.01359 25.6109C4.72786 23.6629 3.36991 20.6172 3.67649 17.3692C3.91631 14.8286 5.08214 13.1774 5.50553 12.6215C6.41395 11.4287 7.29243 10.9302 7.33877 10.902C7.53289 10.7843 7.89616 10.5819 8.52118 10.3992C8.80498 10.3163 9.57305 10.1078 10.6447 10.0882C11.4008 10.0744 14.359 10.0923 17.0798 12.4697L3.92018 27.5303C6.78406 30.0327 9.96913 30.1039 11.0096 30.0849C12.3656 30.0601 13.4754 29.788 14.132 29.5961C15.5025 29.1955 16.7352 28.5941 17.7113 28.0021C18.5396 27.4997 20.1125 26.4514 21.4164 24.7394C22.0375 23.9239 23.3263 22.0206 23.588 19.2488C23.9164 15.7696 22.4791 12.5134 19.9864 10.3891L7.01359 25.6109ZM17.0673 27.5412C17.8588 26.852 18.5917 26.0115 19.1961 25.0155C19.8013 24.0182 20.2101 22.9764 20.4548 21.9486C20.9335 19.9376 20.7328 18.2171 20.507 17.1398C20.2807 16.0604 19.9383 15.2051 19.7259 14.7164C19.5073 14.2136 19.2843 13.783 19.19 13.6007C19.0436 13.3177 19.0669 13.3626 19.0805 13.3913C19.0969 13.4256 19.297 13.8361 19.4761 14.4581C19.6402 15.0283 19.988 16.442 19.7161 18.281C19.5716 19.2577 19.254 20.3377 18.6695 21.4149C18.0815 22.4989 17.3204 23.4005 16.4848 24.1123L3.51522 8.88767C2.57592 9.68783 1.73571 10.6874 1.08989 11.8778C0.447745 13.0615 0.0937237 14.2564 -0.0687859 15.3553C-0.376901 17.4389 0.0077473 19.1266 0.256669 19.9912C0.520492 20.9076 0.853223 21.6329 1.02498 21.9934C1.19403 22.3482 1.39541 22.7307 1.42482 22.7875C1.5063 22.9451 1.45657 22.8567 1.38382 22.6893C1.31723 22.5361 1.09313 22.0096 0.932478 21.2432C0.772271 20.479 0.584586 19.0557 0.998401 17.3173C1.21062 16.4257 1.56752 15.514 2.09825 14.6394C2.62821 13.7661 3.26404 13.041 3.93268 12.4588L17.0673 27.5412ZM16.4866 24.1108C18.2596 22.5997 19.2683 20.8516 19.8446 19.5753C20.4321 18.2744 20.7685 17.021 20.9776 16.0376C21.3849 14.1214 21.5241 12.1456 21.6044 10.8084C21.7049 9.13355 21.7247 8.35468 21.8066 7.58124C21.8416 7.25095 21.8532 7.31448 21.7818 7.59305C21.7618 7.67126 21.4426 9.06861 20.1997 10.5683L4.80037 -2.19333C3.2138 -0.278834 2.63264 1.7513 2.40813 2.62721C2.13226 3.70348 1.99685 4.72961 1.918 5.47373C1.77226 6.84912 1.69693 8.6663 1.64029 9.60998C1.56338 10.8912 1.4833 11.5563 1.41477 11.8787C1.38587 12.0146 1.4202 11.7798 1.61702 11.344C1.80276 10.9326 2.33237 9.8958 3.51338 8.88923L16.4866 24.1108ZM20.1999 10.5681C19.4218 11.5071 18.0643 12.7444 16.0004 13.4466C13.8502 14.1782 11.7874 14.0378 10.1751 13.5482C8.69773 13.0997 7.68939 12.3958 7.16721 11.9799C6.61778 11.5423 6.26304 11.147 6.09319 10.9464C5.77109 10.566 5.65693 10.3387 5.7427 10.4865C5.79949 10.5843 5.90131 10.7735 6.05356 11.0842C6.20386 11.3909 6.3542 11.7145 6.53562 12.1061C6.68425 12.427 6.92253 12.9447 7.14769 13.3908C7.25964 13.6126 7.45233 13.9856 7.69936 14.3935C7.82446 14.6001 8.02441 14.9171 8.29161 15.2776C8.51394 15.5776 9.03037 16.2488 9.83062 16.9436C10.2454 17.3036 10.9197 17.8317 11.8462 18.3072C12.7677 18.7802 14.2359 19.3527 16.1192 19.4122C18.1472 19.4763 20.1757 18.9242 21.9188 17.7869C23.5444 16.7263 24.5232 15.4223 25.0772 14.4858C25.6305 13.5507 25.9251 12.7069 26.0848 12.1581C26.2517 11.585 26.3403 11.0927 26.3906 10.7434C26.4882 10.0651 26.5 9.5045 26.5 9.1875H6.50005C6.50005 8.97719 6.50684 8.50352 6.59465 7.89353C6.65413 7.48039 6.87837 5.96819 7.86425 4.30184C8.40871 3.38159 9.37669 2.08951 10.9904 1.03664C12.7217 -0.0928828 14.7372 -0.641454 16.7511 -0.577803C20.2588 -0.466935 22.4532 1.41646 22.9424 1.8412C23.706 2.50417 24.1817 3.12875 24.3594 3.36849C24.5819 3.66875 24.7333 3.91194 24.8062 4.03228C24.9488 4.26774 25.0224 4.41889 25.0024 4.37928C24.9637 4.30257 24.8867 4.13927 24.6833 3.70005C24.5126 3.33162 24.2741 2.81602 24.0133 2.28378C23.6201 1.48128 22.6932 -0.398888 21.357 -1.97703C20.9663 -2.43848 20.3925 -3.05497 19.6275 -3.66426C18.8898 -4.25185 17.6695 -5.07785 15.9855 -5.58913C14.1666 -6.14138 11.9025 -6.28508 9.55829 -5.48748C7.30044 -4.71927 5.75613 -3.34669 4.80022 -2.19314L20.1999 10.5681ZM26.5 9.1875C26.5 7.14241 25.8942 4.1274 23.3855 1.6418C21.0701 -0.652401 18.4071 -1.20667 17.0605 -1.35908C15.6827 -1.51502 14.5323 -1.38212 13.9849 -1.30744C13.3729 -1.22394 12.8225 -1.10825 12.5574 -1.05236C11.6567 -0.862455 12.0429 -0.962081 12.4951 -0.990386C12.8052 -1.00979 13.678 -1.04606 14.8152 -0.772572C16.0393 -0.478174 17.816 0.24288 19.3524 1.9094L4.64765 15.4656C6.43092 17.4 8.53343 18.287 10.1387 18.673C11.6571 19.0382 12.9663 19.0193 13.7446 18.9705C14.5636 18.9193 15.2659 18.8 15.6969 18.7194C16.1003 18.6439 16.564 18.5426 16.6834 18.5174C16.9191 18.4677 16.8541 18.4864 16.6884 18.509C16.5873 18.5228 15.8442 18.631 14.8112 18.514C13.8092 18.4006 11.4284 17.9491 9.30884 15.8491C6.99614 13.5576 6.50005 10.8281 6.50005 9.1875H26.5ZM19.3523 1.90926C22.3916 5.20598 21.9023 8.94979 21.738 9.86479C21.5262 11.0442 21.1327 11.7708 21.095 11.8429C20.9604 12.0997 21.0075 11.9559 21.3723 11.535C21.7094 11.1461 21.9519 10.9438 21.937 10.9553C21.9143 10.9727 21.8359 11.032 21.7035 11.1165C21.5787 11.1962 21.3364 11.343 20.9888 11.5055C20.6625 11.658 20.0625 11.9099 19.2446 12.0866C18.4531 12.2576 17.0753 12.4413 15.3954 12.0899L19.4897 -7.48652C16.0513 -8.20565 13.3357 -6.99423 12.5204 -6.61317C11.347 -6.06475 10.3977 -5.40009 9.75652 -4.90776C8.43379 -3.8921 7.22343 -2.67695 6.25855 -1.56362C5.32141 -0.482308 4.21754 0.960998 3.37917 2.56116C2.98947 3.30498 2.35581 4.64239 2.05272 6.33064C1.79709 7.75448 1.36519 11.9052 4.64778 15.4657L19.3523 1.90926ZM10.8595 9.82925C11.0895 10.0303 10.9784 9.96669 10.7321 9.64658C10.5183 9.36877 9.84676 8.4432 9.46579 6.93036C9.02906 5.19613 9.07111 3.01689 10.0777 0.892702C10.9902 -1.03292 12.3177 -2.11262 13.0377 -2.603C13.7563 -3.09247 14.3326 -3.31029 14.4555 -3.35651C14.6063 -3.41326 14.6689 -3.4257 14.4454 -3.36169C14.3836 -3.34399 13.7991 -3.18294 13.3186 -3.02239C13.0609 -2.93631 11.4481 -2.43357 9.88304 -1.22339L22.1171 14.5984C21.3202 15.2146 20.6203 15.5487 20.3214 15.6836C19.981 15.8374 19.7283 15.9228 19.6568 15.9467C19.593 15.968 19.4995 15.9949 19.9513 15.8655C20.2212 15.7882 22.3571 15.2479 24.2966 13.9269C25.4131 13.1664 27.0561 11.768 28.1512 9.45713C29.3403 6.9477 29.432 4.31668 28.8603 2.04627C27.9281 -1.65529 25.3313 -4.08395 24.0255 -5.22585L10.8595 9.82925ZM9.88134 -1.22208C7.95718 0.266419 7.03865 2.05656 6.61565 3.09922C6.17482 4.18582 5.99599 5.14299 5.9122 5.73395C5.74669 6.9012 5.78076 7.93237 5.81237 8.50739C5.87959 9.73042 6.07624 11.0004 6.2077 11.8121C6.38552 12.91 6.46934 13.3371 6.55059 13.8954C6.58643 14.1416 6.56621 14.0588 6.55253 13.8111C6.54637 13.6995 6.52459 13.2856 6.57072 12.7182C6.59441 12.4269 6.64806 11.9358 6.78956 11.334C6.91793 10.788 7.21208 9.7371 7.9133 8.56229L25.0868 18.8127C25.8077 17.6049 26.1178 16.5107 26.2587 15.9115C26.4127 15.2564 26.4754 14.7024 26.5049 14.3389C26.5628 13.6272 26.54 13.0323 26.5221 12.7084C26.485 12.0361 26.3986 11.403 26.3421 11.0149C26.2387 10.3043 26.0333 9.12616 25.9504 8.61457C25.8932 8.26128 25.8499 7.97286 25.8192 7.73662C25.7867 7.48651 25.7812 7.39153 25.7822 7.40984C25.783 7.42471 25.7882 7.52016 25.7856 7.67663C25.7832 7.81986 25.7728 8.12773 25.7141 8.5417C25.6614 8.91388 25.5278 9.68315 25.1486 10.6179C24.7872 11.5087 23.9466 13.1831 22.1188 14.5971L9.88134 -1.22208ZM7.91337 8.56217C8.28096 7.94633 8.63208 7.51494 8.74746 7.37439C8.90669 7.18043 9.03843 7.03592 9.10872 6.96021C9.24936 6.80871 9.35071 6.711 9.36691 6.69534C9.41015 6.65355 9.39314 6.67171 9.28732 6.76573C9.09127 6.93991 8.78997 7.19751 8.46322 7.4657C8.12313 7.74484 7.86513 7.94534 7.73906 8.0379C7.65593 8.09893 7.75602 8.02046 7.97259 7.88646C8.06609 7.82861 8.37427 7.63935 8.81523 7.43087C9.03637 7.32632 9.44204 7.14452 9.97561 6.97292C10.3999 6.83647 11.518 6.5 12.9999 6.5V26.5C15.4824 26.5 17.3269 25.5293 17.3637 25.5119C17.8836 25.2661 18.2893 25.022 18.4959 24.8941C18.9388 24.62 19.3281 24.3409 19.5753 24.1595C20.1097 23.767 20.6767 23.3153 21.152 22.9252C21.6406 22.5241 22.145 22.0956 22.5711 21.717C22.7764 21.5346 23.0246 21.3097 23.2653 21.0771C23.3803 20.966 23.5635 20.7859 23.7663 20.5673C23.7872 20.5449 24.4774 19.8336 25.0867 18.8128L7.91337 8.56217ZM12.9999 6.5C15.0934 6.5 16.6681 7.15349 17.4898 7.5683C18.36 8.00762 18.9845 8.4847 19.3355 8.77497C20.0243 9.34458 20.4696 9.87501 20.6299 10.0696C20.9917 10.509 21.2067 10.8565 21.2236 10.8833C21.3058 11.0137 21.296 11.0104 21.1607 10.7575C20.9214 10.3099 20.5753 9.62048 20.1778 8.80667C19.792 8.0168 19.4068 7.21076 19.0947 6.55719C18.9435 6.24052 18.8007 5.94119 18.6916 5.71497C18.638 5.60376 18.5787 5.48159 18.5237 5.3705C18.497 5.31661 18.4577 5.23765 18.4127 5.15041C18.4024 5.13042 18.2683 4.86644 18.0867 4.56217L0.913368 14.8128C0.638408 14.3522 0.435423 13.9015 0.676333 14.4012C0.764772 14.5846 0.88707 14.8408 1.04691 15.1755C1.35692 15.8247 1.7774 16.7049 2.2069 17.5842C2.62471 18.4396 3.10357 19.4025 3.52473 20.1899C3.71969 20.5544 3.99911 21.0643 4.30763 21.5534C4.43769 21.7596 4.75005 22.248 5.19092 22.7833C5.39069 23.0259 5.87096 23.5931 6.58971 24.1875C6.95568 24.4901 7.59387 24.9766 8.47658 25.4222C9.31072 25.8433 10.8966 26.5 12.9999 26.5V6.5ZM18.0881 4.56449C17.8908 4.23367 17.4542 3.53716 16.7462 2.78684C16.3781 2.39682 15.8024 1.84797 15.0041 1.31642C14.2089 0.786899 12.9847 0.136382 11.3676 -0.179393C9.65185 -0.514453 7.76695 -0.413578 5.94157 0.268478C4.18879 0.923404 2.93971 1.94392 2.12496 2.81634C1.3289 3.66874 0.832909 4.49809 0.538682 5.06854C0.235523 5.65632 0.0419379 6.17424 -0.0796863 6.5441C-0.315019 7.25973 -0.421113 7.85454 -0.470077 8.16772C-0.524905 8.51841 -0.552497 8.81232 -0.567546 9.00846C-0.596938 9.39153 -0.601299 9.71266 -0.602238 9.885C-0.6041 10.2266 -0.592631 10.5737 -0.588454 10.7101C-0.582082 10.9182 -0.57911 11.0139 -0.577869 11.1028C-0.576591 11.1944 -0.579771 11.1438 -0.572966 11.0103C-0.569257 10.9376 -0.560375 10.7942 -0.537688 10.6008C-0.516411 10.4194 -0.47145 10.0925 -0.37355 9.67758C-0.284789 9.30143 -0.0880634 8.57065 0.338592 7.70638C0.734935 6.90352 1.64636 5.33559 3.48339 4.04567C4.45043 3.36664 5.62434 2.8034 6.97487 2.49764C8.32427 2.19214 9.61868 2.19602 10.769 2.38724C12.9514 2.75 14.4299 3.74519 15.1178 4.27722L2.88225 20.0978C3.66652 20.7043 5.23086 21.7411 7.48946 22.1165C8.67793 22.3141 10.0081 22.3171 11.391 22.004C12.7751 21.6906 13.9803 21.1131 14.9765 20.4136C16.8719 19.0827 17.8333 17.4489 18.2724 16.5596C18.7417 15.6088 18.9739 14.7709 19.0918 14.2709C19.3249 13.2833 19.3806 12.4315 19.4011 12.0285C19.4256 11.5472 19.4242 11.1149 19.4202 10.8238C19.4161 10.53 19.4066 10.242 19.4022 10.0978C19.3956 9.88204 19.3979 9.90859 19.3975 9.99398C19.3972 10.0382 19.3962 10.2473 19.3738 10.5385C19.3623 10.6887 19.3392 10.9417 19.2899 11.2571C19.2464 11.5349 19.1469 12.0999 18.9194 12.7918C18.8017 13.1498 18.6123 13.6574 18.3137 14.2364C18.024 14.7981 17.5328 15.6203 16.7419 16.4671C15.9324 17.334 14.6888 18.3506 12.9419 19.0034C11.1224 19.6832 9.24368 19.7836 7.53447 19.4498C5.92401 19.1353 4.70673 18.4879 3.91889 17.9633C3.12799 17.4366 2.55995 16.8945 2.20005 16.5131C1.50831 15.78 1.08967 15.1084 0.911984 14.8105L18.0881 4.56449ZM15.1171 4.27661C13.5459 3.0617 11.4812 2.1433 10.392 1.69356C9.67171 1.39619 8.83655 1.08354 7.98123 0.827133C7.39986 0.652846 5.82122 0.1875 4.00005 0.1875V20.1875C3.56651 20.1875 3.22465 20.155 3.01164 20.129C2.78963 20.102 2.61997 20.071 2.51573 20.0501C2.31672 20.0101 2.21567 19.9781 2.23807 19.9848C2.28511 19.9989 2.47114 20.0609 2.75947 20.1799C3.03676 20.2944 3.28075 20.4089 3.4341 20.4876C3.50933 20.5263 3.51659 20.5327 3.46769 20.5036C3.44108 20.4878 3.3806 20.4512 3.29437 20.3941C3.21293 20.3402 3.06754 20.2411 2.88304 20.0984L15.1171 4.27661Z" fill="black" mask="url(#path-1-inside-1_61_2084)"/>
</svg>
