<svg width="300" height="131" viewBox="0 0 300 131" fill="none" xmlns="http://www.w3.org/2000/svg">
<path d="M2.68188 92V90.944C3.49254 90.9013 4.04721 90.72 4.34588 90.4C4.64454 90.0587 4.80454 89.6 4.82588 89.024C4.86854 88.4267 4.88988 87.7547 4.88988 87.008V73.184C4.88988 72.7573 4.90054 72.352 4.92188 71.968C4.94321 71.5627 4.96454 71.2 4.98588 70.88C4.60188 70.9013 4.21788 70.9227 3.83388 70.944C3.44988 70.9653 3.06588 70.9867 2.68188 71.008V69.6H9.88188V70.656C9.09254 70.6773 8.53788 70.8587 8.21788 71.2C7.91921 71.5413 7.74854 72 7.70588 72.576C7.68454 73.152 7.67388 73.824 7.67388 74.592V79.84H10.0739L14.0739 73.536C14.3512 73.1093 14.6925 72.64 15.0979 72.128C15.5032 71.616 15.9192 71.1893 16.3459 70.848C16.0259 70.8693 15.6952 70.88 15.3539 70.88C15.0339 70.88 14.7139 70.8907 14.3939 70.912V69.6H21.2739V70.656C20.3779 70.72 19.5779 70.8693 18.8739 71.104C18.1699 71.3387 17.4979 71.7547 16.8579 72.352C16.2179 72.928 15.5352 73.8027 14.8099 74.976L11.6739 79.968C12.2925 80.3307 12.7939 80.7573 13.1779 81.248C13.5619 81.7173 13.9459 82.1973 14.3299 82.688L17.9139 87.456C18.7245 88.5227 19.3859 89.312 19.8979 89.824C20.4312 90.3147 20.9005 90.624 21.3059 90.752C21.7325 90.88 22.1699 90.944 22.6179 90.944V92H18.7139C18.5005 92 18.2125 91.8507 17.8499 91.552C17.5085 91.2533 17.1352 90.8693 16.7299 90.4C16.3245 89.9093 15.9085 89.3973 15.4819 88.864L11.6419 83.68C11.2365 83.1467 10.8312 82.6453 10.4259 82.176C10.0205 81.6853 9.62588 81.3227 9.24188 81.088L7.67388 81.12V88.192C7.67388 88.768 7.66321 89.2693 7.64188 89.696C7.64188 90.1013 7.62054 90.4427 7.57788 90.72C7.96188 90.6987 8.34588 90.6773 8.72988 90.656C9.11388 90.6347 9.49788 90.6133 9.88188 90.592V92H2.68188ZM22.5736 92V90.944C23.2136 90.944 23.7043 90.7733 24.0456 90.432C24.387 90.0907 24.6643 89.6213 24.8776 89.024C25.1123 88.4267 25.379 87.7333 25.6776 86.944L32.2696 68.992H33.0376L40.1736 87.2C40.3443 87.648 40.5363 88.224 40.7496 88.928C40.963 89.632 41.0483 90.2293 41.0056 90.72C41.3683 90.6987 41.731 90.6773 42.0936 90.656C42.4563 90.6347 42.819 90.6133 43.1816 90.592V92H35.8536V90.944C36.6643 90.9227 37.1976 90.7413 37.4536 90.4C37.7096 90.0587 37.8056 89.6533 37.7416 89.184C37.6776 88.7147 37.571 88.288 37.4216 87.904L36.3016 84.896L27.9816 85.088L26.8616 88.512C26.7123 89.024 26.5736 89.4293 26.4456 89.728C26.339 90.0267 26.211 90.3573 26.0616 90.72C26.4883 90.6987 26.9043 90.6773 27.3096 90.656C27.7363 90.6347 28.1523 90.6133 28.5576 90.592V92H22.5736ZM28.4616 83.712H35.8536L33.5816 77.6C33.347 76.9387 33.1016 76.288 32.8456 75.648C32.611 74.9867 32.3763 74.3253 32.1416 73.664H32.0776C31.8643 74.2613 31.6403 74.8587 31.4056 75.456C31.1923 76.0533 30.9683 76.6613 30.7336 77.28L28.4616 83.712ZM60.5436 76.352C60.5223 75.0933 60.3943 74.048 60.1596 73.216C59.925 72.384 59.509 71.7653 58.9116 71.36C58.3356 70.9333 57.493 70.7307 56.3836 70.752H53.6636L53.6316 88.192C53.6316 88.768 53.621 89.2693 53.5996 89.696C53.5996 90.1013 53.5783 90.4427 53.5356 90.72C53.9836 90.6987 54.421 90.6773 54.8476 90.656C55.2956 90.6347 55.7436 90.6133 56.1916 90.592V92H48.6716V90.944C49.4823 90.9013 50.0263 90.7093 50.3036 90.368C50.6023 90.0267 50.7623 89.568 50.7836 88.992C50.8263 88.3947 50.8476 87.7333 50.8476 87.008L50.8796 70.784L47.5836 70.816C46.2396 70.816 45.2903 71.264 44.7356 72.16C44.181 73.056 43.9036 74.4533 43.9036 76.352H42.7196L42.9116 69.6H61.5676L61.7596 76.352H60.5436ZM70.0831 92V90.944C70.8938 90.9013 71.4378 90.7093 71.7151 90.368C72.0138 90.0267 72.1738 89.568 72.1951 88.992C72.2378 88.3947 72.2591 87.7333 72.2591 87.008L72.2911 83.36L66.7231 74.56C66.1898 73.7067 65.7845 72.992 65.5071 72.416C65.2511 71.84 65.0805 71.3493 64.9951 70.944C64.6538 70.9653 64.3231 70.976 64.0031 70.976C63.6831 70.976 63.3525 70.9867 63.0111 71.008V69.6H71.2671V70.656C70.2858 70.656 69.6031 70.8053 69.2191 71.104C68.8351 71.4027 68.6858 71.8187 68.7711 72.352C68.8778 72.864 69.1445 73.4613 69.5711 74.144L72.1311 78.176C72.3231 78.4747 72.5258 78.784 72.7391 79.104C72.9525 79.424 73.1658 79.7547 73.3791 80.096C73.6138 80.416 73.8591 80.7573 74.1151 81.12H74.1791C74.4138 80.6507 74.6485 80.2027 74.8831 79.776C75.1178 79.328 75.3418 78.9013 75.5551 78.496L78.2751 73.344C78.3818 73.1307 78.5098 72.8853 78.6591 72.608C78.8298 72.3093 79.0111 72.0107 79.2031 71.712C79.3951 71.392 79.5978 71.1253 79.8111 70.912C79.4058 70.9333 78.9898 70.9547 78.5631 70.976C78.1365 70.976 77.7098 70.9867 77.2831 71.008V69.6H83.8111V70.656C82.7658 70.72 81.9018 71.0827 81.2191 71.744C80.5578 72.4053 79.8538 73.4187 79.1071 74.784C78.3818 76.1493 77.6778 77.4613 76.9951 78.72C76.3338 79.9787 75.6938 81.2053 75.0751 82.4C75.0751 82.784 75.0645 83.296 75.0431 83.936C75.0431 84.576 75.0431 85.2267 75.0431 85.888C75.0431 86.528 75.0431 87.072 75.0431 87.52C75.0431 87.968 75.0431 88.192 75.0431 88.192C75.0431 88.768 75.0325 89.2693 75.0111 89.696C75.0111 90.1013 74.9898 90.4427 74.9471 90.72C75.3951 90.6987 75.8325 90.6773 76.2591 90.656C76.7071 90.6347 77.1551 90.6133 77.6031 90.592V92H70.0831ZM111.347 76.736C111.133 74.7307 110.429 73.1733 109.235 72.064C108.061 70.9547 106.547 70.4 104.691 70.4C103.56 70.4 102.493 70.6453 101.491 71.136C100.509 71.6053 99.6453 72.288 98.8986 73.184C98.152 74.08 97.5653 75.1573 97.1386 76.416C96.712 77.6747 96.4986 79.0933 96.4986 80.672C96.4986 82.6773 96.8826 84.448 97.6506 85.984C98.4186 87.52 99.4533 88.7147 100.755 89.568C102.056 90.4213 103.496 90.848 105.075 90.848C106.461 90.848 107.827 90.5387 109.171 89.92C110.515 89.28 111.613 88.3627 112.467 87.168L113.299 87.84C112.381 89.0987 111.389 90.0693 110.323 90.752C109.256 91.4347 108.189 91.8933 107.123 92.128C106.077 92.384 105.117 92.512 104.243 92.512C102.643 92.512 101.171 92.224 99.8266 91.648C98.504 91.072 97.352 90.272 96.3706 89.248C95.4106 88.2027 94.664 86.9973 94.1306 85.632C93.6186 84.2453 93.3626 82.752 93.3626 81.152C93.3626 79.6373 93.5866 78.1653 94.0346 76.736C94.504 75.3067 95.1973 74.016 96.1146 72.864C97.032 71.712 98.184 70.7947 99.5706 70.112C100.979 69.4293 102.611 69.088 104.467 69.088C105.661 69.088 106.792 69.248 107.859 69.568C108.925 69.888 109.949 70.3787 110.931 71.04L110.771 69.312H112.499V76.736H111.347ZM127.13 92.512C125.103 92.512 123.364 92.1707 121.914 91.488C120.463 90.8053 119.279 89.8987 118.362 88.768C117.466 87.616 116.804 86.3467 116.378 84.96C115.951 83.5733 115.738 82.1867 115.738 80.8C115.738 79.456 115.962 78.1013 116.41 76.736C116.858 75.3493 117.54 74.08 118.458 72.928C119.396 71.776 120.559 70.848 121.946 70.144C123.354 69.44 124.996 69.088 126.874 69.088C128.836 69.088 130.532 69.44 131.962 70.144C133.391 70.848 134.564 71.7867 135.482 72.96C136.42 74.112 137.114 75.3707 137.562 76.736C138.031 78.1013 138.266 79.456 138.266 80.8C138.266 82.1227 138.042 83.4773 137.594 84.864C137.146 86.2293 136.452 87.4987 135.514 88.672C134.596 89.824 133.444 90.752 132.058 91.456C130.671 92.16 129.028 92.512 127.13 92.512ZM127.194 91.2C128.516 91.2 129.668 90.9227 130.65 90.368C131.631 89.792 132.442 89.0347 133.082 88.096C133.743 87.136 134.234 86.08 134.554 84.928C134.895 83.7547 135.066 82.5813 135.066 81.408C135.066 80.0853 134.884 78.7733 134.522 77.472C134.159 76.1707 133.626 74.9867 132.922 73.92C132.218 72.8533 131.343 72 130.298 71.36C129.274 70.6987 128.1 70.368 126.778 70.368C125.455 70.368 124.292 70.656 123.29 71.232C122.308 71.808 121.487 72.576 120.826 73.536C120.186 74.4747 119.695 75.5307 119.354 76.704C119.034 77.856 118.874 79.0293 118.874 80.224C118.874 81.3973 119.034 82.624 119.354 83.904C119.695 85.184 120.207 86.3787 120.89 87.488C121.572 88.5973 122.436 89.4933 123.482 90.176C124.527 90.8587 125.764 91.2 127.194 91.2ZM141.151 92V90.944C141.961 90.9013 142.516 90.72 142.815 90.4C143.113 90.0587 143.273 89.6 143.295 89.024C143.337 88.4267 143.359 87.7547 143.359 87.008V73.184C143.359 72.7573 143.369 72.352 143.391 71.968C143.412 71.5627 143.433 71.2 143.455 70.88C143.071 70.9013 142.687 70.9227 142.303 70.944C141.919 70.9653 141.535 70.9867 141.151 71.008V69.6H148.351V70.656C147.561 70.6773 147.007 70.8587 146.687 71.2C146.388 71.5413 146.217 72 146.175 72.576C146.153 73.152 146.143 73.824 146.143 74.592V88.32C146.143 88.896 146.132 89.3867 146.111 89.792C146.111 90.1973 146.089 90.5387 146.047 90.816L152.031 90.72C153.375 90.6987 154.388 90.272 155.071 89.44C155.775 88.608 156.127 87.2533 156.127 85.376H157.215L157.023 92H141.151ZM159.651 92V90.944C160.461 90.9013 161.016 90.72 161.315 90.4C161.613 90.0587 161.773 89.6 161.795 89.024C161.837 88.4267 161.859 87.7547 161.859 87.008V73.184C161.859 72.7573 161.869 72.352 161.891 71.968C161.912 71.5627 161.933 71.2 161.955 70.88C161.571 70.9013 161.187 70.9227 160.803 70.944C160.419 70.9653 160.035 70.9867 159.651 71.008V69.6H166.851V70.656C166.061 70.6773 165.507 70.8587 165.187 71.2C164.888 71.5413 164.717 72 164.675 72.576C164.653 73.152 164.643 73.824 164.643 74.592V88.32C164.643 88.896 164.632 89.3867 164.611 89.792C164.611 90.1973 164.589 90.5387 164.547 90.816L170.531 90.72C171.875 90.6987 172.888 90.272 173.571 89.44C174.275 88.608 174.627 87.2533 174.627 85.376H175.715L175.523 92H159.651ZM189.287 83.712C189.287 82.7733 189.159 82.1013 188.903 81.696C188.647 81.2907 188.241 81.0453 187.687 80.96C187.132 80.8747 186.396 80.8533 185.479 80.896L183.143 80.992V88.32C183.143 88.896 183.132 89.3867 183.111 89.792C183.111 90.1973 183.089 90.5387 183.047 90.816L189.159 90.72C190.097 90.6987 190.908 90.5493 191.591 90.272C192.273 89.9733 192.807 89.4613 193.191 88.736C193.575 88.0107 193.767 87.0187 193.767 85.76H194.855L194.663 92H178.151V90.944C178.961 90.9013 179.516 90.72 179.815 90.4C180.113 90.0587 180.273 89.6 180.295 89.024C180.337 88.4267 180.359 87.7547 180.359 87.008V73.184C180.359 72.7573 180.369 72.352 180.391 71.968C180.412 71.5627 180.433 71.2 180.455 70.88C180.071 70.9013 179.687 70.9227 179.303 70.944C178.919 70.9653 178.535 70.9867 178.151 71.008V69.6H193.543L193.703 75.2H192.647C192.647 73.9413 192.455 72.992 192.071 72.352C191.687 71.6907 191.164 71.2533 190.503 71.04C189.863 70.8053 189.137 70.6987 188.327 70.72L185.575 70.784C184.785 70.8053 184.22 70.9547 183.879 71.232C183.537 71.5093 183.324 71.9253 183.239 72.48C183.175 73.0133 183.143 73.7173 183.143 74.592V79.712L189.159 79.744L188.935 76.992H190.343V83.712H189.287ZM215.753 76.736C215.54 74.7307 214.836 73.1733 213.641 72.064C212.468 70.9547 210.953 70.4 209.097 70.4C207.966 70.4 206.9 70.6453 205.897 71.136C204.916 71.6053 204.052 72.288 203.305 73.184C202.558 74.08 201.972 75.1573 201.545 76.416C201.118 77.6747 200.905 79.0933 200.905 80.672C200.905 82.6773 201.289 84.448 202.057 85.984C202.825 87.52 203.86 88.7147 205.161 89.568C206.462 90.4213 207.902 90.848 209.481 90.848C210.868 90.848 212.233 90.5387 213.577 89.92C214.921 89.28 216.02 88.3627 216.873 87.168L217.705 87.84C216.788 89.0987 215.796 90.0693 214.729 90.752C213.662 91.4347 212.596 91.8933 211.529 92.128C210.484 92.384 209.524 92.512 208.649 92.512C207.049 92.512 205.577 92.224 204.233 91.648C202.91 91.072 201.758 90.272 200.777 89.248C199.817 88.2027 199.07 86.9973 198.537 85.632C198.025 84.2453 197.769 82.752 197.769 81.152C197.769 79.6373 197.993 78.1653 198.441 76.736C198.91 75.3067 199.604 74.016 200.521 72.864C201.438 71.712 202.59 70.7947 203.977 70.112C205.385 69.4293 207.017 69.088 208.873 69.088C210.068 69.088 211.198 69.248 212.265 69.568C213.332 69.888 214.356 70.3787 215.337 71.04L215.177 69.312H216.905V76.736H215.753ZM237.2 76.352C237.179 75.0933 237.051 74.048 236.816 73.216C236.581 72.384 236.165 71.7653 235.568 71.36C234.992 70.9333 234.149 70.7307 233.04 70.752H230.32L230.288 88.192C230.288 88.768 230.277 89.2693 230.256 89.696C230.256 90.1013 230.235 90.4427 230.192 90.72C230.64 90.6987 231.077 90.6773 231.504 90.656C231.952 90.6347 232.4 90.6133 232.848 90.592V92H225.328V90.944C226.139 90.9013 226.683 90.7093 226.96 90.368C227.259 90.0267 227.419 89.568 227.44 88.992C227.483 88.3947 227.504 87.7333 227.504 87.008L227.536 70.784L224.24 70.816C222.896 70.816 221.947 71.264 221.392 72.16C220.837 73.056 220.56 74.4533 220.56 76.352H219.376L219.568 69.6H238.224L238.416 76.352H237.2ZM248.101 70.656C247.311 70.6773 246.757 70.8587 246.437 71.2C246.138 71.5413 245.967 72 245.925 72.576C245.903 73.152 245.893 73.824 245.893 74.592V88.192C245.893 88.768 245.882 89.2693 245.861 89.696C245.861 90.1013 245.839 90.4427 245.797 90.72C246.181 90.6987 246.565 90.6773 246.949 90.656C247.333 90.6347 247.717 90.6133 248.101 90.592V92H240.901V90.944C241.711 90.9013 242.266 90.72 242.565 90.4C242.863 90.0587 243.023 89.6 243.045 89.024C243.087 88.4267 243.109 87.7547 243.109 87.008V73.184C243.109 72.7573 243.119 72.352 243.141 71.968C243.162 71.5627 243.183 71.2 243.205 70.88C242.821 70.9013 242.437 70.9227 242.053 70.944C241.669 70.9653 241.285 70.9867 240.901 71.008V69.6H248.101V70.656ZM262.442 92.512C260.415 92.512 258.677 92.1707 257.226 91.488C255.775 90.8053 254.591 89.8987 253.674 88.768C252.778 87.616 252.117 86.3467 251.69 84.96C251.263 83.5733 251.05 82.1867 251.05 80.8C251.05 79.456 251.274 78.1013 251.722 76.736C252.17 75.3493 252.853 74.08 253.77 72.928C254.709 71.776 255.871 70.848 257.258 70.144C258.666 69.44 260.309 69.088 262.186 69.088C264.149 69.088 265.845 69.44 267.274 70.144C268.703 70.848 269.877 71.7867 270.794 72.96C271.733 74.112 272.426 75.3707 272.874 76.736C273.343 78.1013 273.578 79.456 273.578 80.8C273.578 82.1227 273.354 83.4773 272.906 84.864C272.458 86.2293 271.765 87.4987 270.826 88.672C269.909 89.824 268.757 90.752 267.37 91.456C265.983 92.16 264.341 92.512 262.442 92.512ZM262.506 91.2C263.829 91.2 264.981 90.9227 265.962 90.368C266.943 89.792 267.754 89.0347 268.394 88.096C269.055 87.136 269.546 86.08 269.866 84.928C270.207 83.7547 270.378 82.5813 270.378 81.408C270.378 80.0853 270.197 78.7733 269.834 77.472C269.471 76.1707 268.938 74.9867 268.234 73.92C267.53 72.8533 266.655 72 265.61 71.36C264.586 70.6987 263.413 70.368 262.09 70.368C260.767 70.368 259.605 70.656 258.602 71.232C257.621 71.808 256.799 72.576 256.138 73.536C255.498 74.4747 255.007 75.5307 254.666 76.704C254.346 77.856 254.186 79.0293 254.186 80.224C254.186 81.3973 254.346 82.624 254.666 83.904C255.007 85.184 255.519 86.3787 256.202 87.488C256.885 88.5973 257.749 89.4933 258.794 90.176C259.839 90.8587 261.077 91.2 262.506 91.2ZM293.967 92.512L281.199 75.36C281.007 75.104 280.815 74.8587 280.623 74.624C280.452 74.368 280.271 74.112 280.079 73.856H280.047L280.143 87.552C280.143 88.0853 280.143 88.6187 280.143 89.152C280.143 89.6853 280.122 90.208 280.079 90.72C280.463 90.6987 280.847 90.6773 281.231 90.656C281.615 90.6347 281.999 90.6133 282.383 90.592V92H276.527V90.944C277.188 90.944 277.658 90.8053 277.935 90.528C278.234 90.2293 278.426 89.888 278.511 89.504C278.596 89.0987 278.639 88.736 278.639 88.416L278.671 73.024C278.671 72.6613 278.671 72.2987 278.671 71.936C278.671 71.5733 278.671 71.2213 278.671 70.88C278.33 70.9013 277.978 70.9227 277.615 70.944C277.252 70.9653 276.89 70.9867 276.527 71.008V69.6H280.335L292.335 85.664C292.612 86.0267 292.879 86.3893 293.135 86.752C293.412 87.1147 293.69 87.4773 293.967 87.84H293.999L294.031 73.184C294.031 72.7573 294.042 72.352 294.063 71.968C294.084 71.5627 294.106 71.2 294.127 70.88C293.743 70.9013 293.359 70.9227 292.975 70.944C292.591 70.9653 292.207 70.9867 291.823 71.008V69.6H297.711V70.656C296.922 70.6773 296.378 70.8587 296.079 71.2C295.78 71.5413 295.62 72 295.599 72.576C295.578 73.152 295.567 73.824 295.567 74.592L295.503 92.512H293.967Z" fill="white"/>
<line x1="100" y1="105.5" x2="200" y2="105.5" stroke="white"/>
<path d="M111.804 127V115.8H112.492L117.692 124.776H117.324L122.508 115.8H123.18L123.196 127H122.396L122.38 117.032H122.604L117.692 125.512H117.292L112.364 117.032H112.604V127H111.804ZM131.852 127.08C131.02 127.08 130.247 126.941 129.532 126.664C128.828 126.376 128.21 125.976 127.676 125.464C127.154 124.941 126.748 124.339 126.46 123.656C126.172 122.963 126.028 122.211 126.028 121.4C126.028 120.589 126.172 119.843 126.46 119.16C126.748 118.467 127.154 117.864 127.676 117.352C128.21 116.829 128.828 116.429 129.532 116.152C130.247 115.864 131.02 115.72 131.852 115.72C132.684 115.72 133.452 115.864 134.156 116.152C134.871 116.429 135.49 116.824 136.012 117.336C136.535 117.848 136.94 118.451 137.228 119.144C137.527 119.827 137.676 120.579 137.676 121.4C137.676 122.221 137.527 122.979 137.228 123.672C136.94 124.355 136.535 124.952 136.012 125.464C135.49 125.976 134.871 126.376 134.156 126.664C133.452 126.941 132.684 127.08 131.852 127.08ZM131.852 126.328C132.567 126.328 133.228 126.205 133.836 125.96C134.444 125.715 134.972 125.368 135.42 124.92C135.868 124.472 136.215 123.949 136.46 123.352C136.716 122.755 136.844 122.104 136.844 121.4C136.844 120.685 136.716 120.035 136.46 119.448C136.215 118.851 135.868 118.328 135.42 117.88C134.972 117.432 134.444 117.085 133.836 116.84C133.228 116.595 132.567 116.472 131.852 116.472C131.138 116.472 130.476 116.595 129.868 116.84C129.26 117.085 128.727 117.432 128.268 117.88C127.82 118.328 127.468 118.851 127.212 119.448C126.967 120.035 126.844 120.685 126.844 121.4C126.844 122.104 126.967 122.755 127.212 123.352C127.468 123.949 127.82 124.472 128.268 124.92C128.727 125.368 129.26 125.715 129.868 125.96C130.476 126.205 131.138 126.328 131.852 126.328ZM143.451 127.08C142.619 127.08 141.829 126.941 141.083 126.664C140.347 126.376 139.776 126.008 139.371 125.56L139.739 124.952C140.123 125.347 140.645 125.683 141.307 125.96C141.979 126.227 142.688 126.36 143.435 126.36C144.181 126.36 144.789 126.264 145.259 126.072C145.739 125.869 146.091 125.603 146.315 125.272C146.549 124.941 146.667 124.573 146.667 124.168C146.667 123.688 146.539 123.304 146.283 123.016C146.027 122.728 145.691 122.499 145.275 122.328C144.859 122.157 144.405 122.013 143.915 121.896C143.424 121.779 142.928 121.656 142.427 121.528C141.925 121.389 141.467 121.213 141.051 121C140.635 120.787 140.299 120.499 140.043 120.136C139.797 119.763 139.675 119.283 139.675 118.696C139.675 118.163 139.813 117.672 140.091 117.224C140.368 116.776 140.8 116.413 141.387 116.136C141.973 115.859 142.725 115.72 143.643 115.72C144.261 115.72 144.869 115.811 145.467 115.992C146.075 116.173 146.592 116.419 147.019 116.728L146.715 117.384C146.245 117.064 145.739 116.829 145.195 116.68C144.661 116.52 144.144 116.44 143.643 116.44C142.928 116.44 142.336 116.541 141.867 116.744C141.397 116.947 141.051 117.219 140.827 117.56C140.603 117.891 140.491 118.264 140.491 118.68C140.491 119.16 140.613 119.544 140.859 119.832C141.115 120.12 141.451 120.349 141.867 120.52C142.283 120.691 142.741 120.835 143.243 120.952C143.744 121.069 144.24 121.197 144.731 121.336C145.221 121.464 145.675 121.635 146.091 121.848C146.507 122.061 146.843 122.349 147.099 122.712C147.355 123.075 147.483 123.544 147.483 124.12C147.483 124.643 147.339 125.133 147.051 125.592C146.763 126.04 146.32 126.403 145.723 126.68C145.136 126.947 144.379 127.08 143.451 127.08ZM154.993 127.08C154.161 127.08 153.387 126.941 152.673 126.664C151.969 126.376 151.355 125.976 150.833 125.464C150.31 124.952 149.905 124.355 149.617 123.672C149.329 122.979 149.185 122.221 149.185 121.4C149.185 120.579 149.329 119.827 149.617 119.144C149.905 118.451 150.31 117.848 150.833 117.336C151.366 116.824 151.985 116.429 152.689 116.152C153.393 115.864 154.161 115.72 154.993 115.72C155.782 115.72 156.518 115.848 157.201 116.104C157.894 116.36 158.486 116.749 158.977 117.272L158.465 117.8C157.985 117.331 157.451 116.995 156.865 116.792C156.289 116.579 155.675 116.472 155.025 116.472C154.31 116.472 153.643 116.595 153.025 116.84C152.417 117.085 151.883 117.432 151.425 117.88C150.977 118.328 150.625 118.851 150.369 119.448C150.123 120.045 150.001 120.696 150.001 121.4C150.001 122.104 150.123 122.755 150.369 123.352C150.625 123.949 150.977 124.472 151.425 124.92C151.883 125.368 152.417 125.715 153.025 125.96C153.643 126.205 154.31 126.328 155.025 126.328C155.675 126.328 156.289 126.227 156.865 126.024C157.451 125.811 157.985 125.464 158.465 124.984L158.977 125.512C158.486 126.035 157.894 126.429 157.201 126.696C156.518 126.952 155.782 127.08 154.993 127.08ZM166.227 127.08C165.395 127.08 164.622 126.941 163.907 126.664C163.203 126.376 162.585 125.976 162.051 125.464C161.529 124.941 161.123 124.339 160.835 123.656C160.547 122.963 160.403 122.211 160.403 121.4C160.403 120.589 160.547 119.843 160.835 119.16C161.123 118.467 161.529 117.864 162.051 117.352C162.585 116.829 163.203 116.429 163.907 116.152C164.622 115.864 165.395 115.72 166.227 115.72C167.059 115.72 167.827 115.864 168.531 116.152C169.246 116.429 169.865 116.824 170.387 117.336C170.91 117.848 171.315 118.451 171.603 119.144C171.902 119.827 172.051 120.579 172.051 121.4C172.051 122.221 171.902 122.979 171.603 123.672C171.315 124.355 170.91 124.952 170.387 125.464C169.865 125.976 169.246 126.376 168.531 126.664C167.827 126.941 167.059 127.08 166.227 127.08ZM166.227 126.328C166.942 126.328 167.603 126.205 168.211 125.96C168.819 125.715 169.347 125.368 169.795 124.92C170.243 124.472 170.59 123.949 170.835 123.352C171.091 122.755 171.219 122.104 171.219 121.4C171.219 120.685 171.091 120.035 170.835 119.448C170.59 118.851 170.243 118.328 169.795 117.88C169.347 117.432 168.819 117.085 168.211 116.84C167.603 116.595 166.942 116.472 166.227 116.472C165.513 116.472 164.851 116.595 164.243 116.84C163.635 117.085 163.102 117.432 162.643 117.88C162.195 118.328 161.843 118.851 161.587 119.448C161.342 120.035 161.219 120.685 161.219 121.4C161.219 122.104 161.342 122.755 161.587 123.352C161.843 123.949 162.195 124.472 162.643 124.92C163.102 125.368 163.635 125.715 164.243 125.96C164.851 126.205 165.513 126.328 166.227 126.328ZM177.034 127L173.226 115.8H174.09L177.706 126.504H177.274L181.002 115.8H181.786L185.482 126.504H185.066L188.714 115.8H189.514L185.722 127H184.858L181.274 116.648H181.482L177.898 127H177.034Z" fill="white"/>
<path fill-rule="evenodd" clip-rule="evenodd" d="M149.885 3.51807C141.948 3.51807 137.03 8.04235 132.748 5.45649C133.379 8.68979 129.881 13.8576 126.858 14.2476C133.286 17.2196 131.613 27.4305 129.978 34.1506C128.34 40.8707 130.606 49.147 137.791 50.8241C144.975 52.5051 148.536 55.0949 149.795 58.5856L149.764 58.5817C151.024 55.091 154.554 52.5051 161.734 50.828C168.918 49.147 171.184 40.8746 169.546 34.1545C167.908 27.4344 166.251 17.2235 172.678 14.2515C169.652 13.8654 166.145 8.69369 166.773 5.46039C162.491 8.04625 157.573 3.52197 149.636 3.52197H149.885V3.51807Z" fill="url(#paint0_linear_26_618)"/>
<path fill-rule="evenodd" clip-rule="evenodd" d="M169.542 34.1466C171.181 40.8667 168.911 49.1392 161.73 50.8202C154.573 52.4934 151.047 55.0675 149.776 58.5388C149.78 58.5544 149.772 58.5232 149.776 58.5388C149.78 58.5271 149.772 58.5505 149.776 58.5388C148.501 55.0714 144.944 52.4934 137.791 50.8202C130.606 49.1392 128.34 40.8667 129.978 34.1466C131.616 27.4265 133.286 17.2157 126.858 14.2398C129.881 13.8537 133.379 8.68194 132.748 5.44864C137.01 8.0189 141.894 3.56093 149.76 3.51412C149.718 3.51412 149.679 3.51022 149.636 3.51022H149.885C149.842 3.51022 149.803 3.51022 149.76 3.51412C157.623 3.56093 162.51 8.0228 166.773 5.44864C166.141 8.68194 169.652 13.8498 172.678 14.2398C166.247 17.2157 167.904 27.4265 169.542 34.1466ZM178.521 12.3638C174.944 11.9152 169.133 5.95567 169.878 2.23094C164.839 5.19512 159.062 0.0546034 149.76 0C140.462 0.0546034 134.682 5.19902 129.643 2.23094C130.388 5.95567 124.577 11.9152 121 12.3638C128.598 15.7921 128.301 27.563 126.363 35.3128C124.424 43.0626 127.108 52.5987 135.603 54.5371C144.062 56.4677 148.271 59.4358 149.776 63.4336C151.281 59.4319 155.451 56.4638 163.914 54.5371C172.409 52.5987 175.089 43.0626 173.154 35.3128C171.216 27.563 170.919 15.7921 178.521 12.3638Z" fill="url(#paint1_linear_26_618)"/>
<path fill-rule="evenodd" clip-rule="evenodd" d="M130.887 15.2732C136.254 18.3466 133.801 28.4131 132.467 33.8891C131.566 37.5943 132.077 41.6428 133.804 44.4509C135.072 46.5142 136.956 47.8871 139.245 48.4253C145.088 49.7943 148.465 51.8731 149.811 54.9426C151.153 51.8653 154.523 49.7865 160.35 48.4253C162.643 47.891 164.527 46.5142 165.794 44.4509C167.522 41.6389 168.033 37.5904 167.132 33.8891C164.609 23.5456 165.303 17.1765 169.191 14.9417C167.924 14.6141 166.641 13.6975 165.747 12.4572C164.893 11.2755 164.503 9.98449 164.624 8.78711C162.53 9.85968 160.311 9.19274 157.537 8.35808C155.322 7.69114 152.818 6.93839 149.803 6.91889C146.788 6.93839 144.284 7.69114 142.069 8.35808C139.296 9.19274 137.077 9.85968 134.982 8.79102C135.142 10.2146 134.686 11.8215 133.719 13.1593C132.935 14.2357 131.928 14.9846 130.887 15.2732ZM149.819 55.9137L149.71 55.6485L149.624 55.434C148.434 52.2826 145.107 50.1687 139.163 48.7763C136.776 48.2186 134.815 46.7872 133.496 44.642C131.694 41.7091 131.18 37.6567 132.116 33.8072C133.368 28.6744 135.969 17.9995 130.275 15.3668L129.709 15.1055L130.325 15.0275C131.445 14.8832 132.572 14.1304 133.418 12.9565C134.413 11.5797 134.842 9.91429 134.565 8.4985L134.487 8.10067L134.834 8.31128C136.89 9.55156 139.124 8.87681 141.956 8.02656C144.167 7.35962 146.667 6.60688 149.682 6.57178C149.756 6.57178 149.831 6.57178 149.905 6.57178C152.923 6.60688 155.42 7.35962 157.631 8.02656C160.463 8.88071 162.698 9.55156 164.753 8.31128L165.1 8.10067L165.022 8.4985C164.792 9.68417 165.159 11.0532 166.028 12.2583C166.992 13.5922 168.415 14.5244 169.745 14.696L170.361 14.774L169.796 15.0353C165.74 16.9113 164.932 23.4052 167.471 33.8111C168.411 37.6606 167.896 41.713 166.091 44.6459C164.772 46.7911 162.811 48.2225 160.424 48.7802C154.503 50.1648 151.184 52.2787 149.994 55.4301L149.819 55.9137Z" fill="url(#paint2_linear_26_618)"/>
<path fill-rule="evenodd" clip-rule="evenodd" d="M130.887 15.2732C136.254 18.3466 133.801 28.4131 132.467 33.8891C131.566 37.5943 132.077 41.6428 133.804 44.4509C135.072 46.5142 136.956 47.8871 139.245 48.4253C145.088 49.7943 148.465 51.8731 149.811 54.9426C151.153 51.8653 154.523 49.7865 160.35 48.4253C162.643 47.891 164.527 46.5142 165.794 44.4509C167.522 41.6389 168.033 37.5904 167.132 33.8891C164.609 23.5456 165.303 17.1765 169.191 14.9417C167.924 14.6141 166.641 13.6975 165.747 12.4572C164.893 11.2755 164.503 9.98449 164.624 8.78711C162.53 9.85968 160.311 9.19274 157.537 8.35808C155.322 7.69114 152.818 6.93839 149.803 6.91889C146.788 6.93839 144.284 7.69114 142.069 8.35808C139.296 9.19274 137.077 9.85968 134.982 8.79102C135.142 10.2146 134.686 11.8215 133.719 13.1593C132.935 14.2357 131.928 14.9846 130.887 15.2732ZM149.819 55.9137L149.71 55.6485L149.624 55.434C148.434 52.2826 145.107 50.1687 139.163 48.7763C136.776 48.2186 134.815 46.7872 133.496 44.642C131.694 41.7091 131.18 37.6567 132.116 33.8072C133.368 28.6744 135.969 17.9995 130.275 15.3668L129.709 15.1055L130.325 15.0275C131.445 14.8832 132.572 14.1304 133.418 12.9565C134.413 11.5797 134.842 9.91429 134.565 8.4985L134.487 8.10067L134.834 8.31128C136.89 9.55156 139.124 8.87681 141.956 8.02656C144.167 7.35962 146.667 6.60688 149.682 6.57178C149.756 6.57178 149.831 6.57178 149.905 6.57178C152.923 6.60688 155.42 7.35962 157.631 8.02656C160.463 8.88071 162.698 9.55156 164.753 8.31128L165.1 8.10067L165.022 8.4985C164.792 9.68417 165.159 11.0532 166.028 12.2583C166.992 13.5922 168.415 14.5244 169.745 14.696L170.361 14.774L169.796 15.0353C165.74 16.9113 164.932 23.4052 167.471 33.8111C168.411 37.6606 167.896 41.713 166.091 44.6459C164.772 46.7911 162.811 48.2225 160.424 48.7802C154.503 50.1648 151.184 52.2787 149.994 55.4301L149.819 55.9137Z" fill="url(#paint3_linear_26_618)"/>
<path fill-rule="evenodd" clip-rule="evenodd" d="M149.885 3.51807C141.948 3.51807 137.03 8.04235 132.748 5.45649C133.379 8.68979 129.881 13.8576 126.858 14.2476C133.286 17.2196 131.613 27.4305 129.978 34.1506C128.34 40.8707 130.606 49.147 137.791 50.8241C144.975 52.5051 148.536 55.0949 149.795 58.5856L149.764 58.5817C151.024 55.091 154.554 52.5051 161.734 50.828C168.918 49.147 171.184 40.8746 169.546 34.1545C167.908 27.4344 166.251 17.2235 172.678 14.2515C169.652 13.8654 166.145 8.69369 166.773 5.46039C162.491 8.04625 157.573 3.52197 149.636 3.52197H149.885V3.51807Z" fill="white"/>
<path fill-rule="evenodd" clip-rule="evenodd" d="M169.542 34.1466C171.181 40.8667 168.911 49.1392 161.73 50.8202C154.573 52.4934 151.047 55.0675 149.776 58.5388C149.78 58.5544 149.772 58.5232 149.776 58.5388C149.78 58.5271 149.772 58.5505 149.776 58.5388C148.501 55.0714 144.944 52.4934 137.791 50.8202C130.606 49.1392 128.34 40.8667 129.978 34.1466C131.616 27.4265 133.286 17.2157 126.858 14.2398C129.881 13.8537 133.379 8.68194 132.748 5.44864C137.01 8.0189 141.894 3.56093 149.76 3.51412C149.718 3.51412 149.679 3.51022 149.636 3.51022H149.885C149.842 3.51022 149.803 3.51022 149.76 3.51412C157.623 3.56093 162.51 8.0228 166.773 5.44864C166.141 8.68194 169.652 13.8498 172.678 14.2398C166.247 17.2157 167.904 27.4265 169.542 34.1466ZM178.521 12.3638C174.944 11.9152 169.133 5.95567 169.878 2.23094C164.839 5.19512 159.062 0.0546034 149.76 0C140.462 0.0546034 134.682 5.19902 129.643 2.23094C130.388 5.95567 124.577 11.9152 121 12.3638C128.598 15.7921 128.301 27.563 126.363 35.3128C124.424 43.0626 127.108 52.5987 135.603 54.5371C144.062 56.4677 148.271 59.4358 149.776 63.4336C151.281 59.4319 155.451 56.4638 163.914 54.5371C172.409 52.5987 175.089 43.0626 173.154 35.3128C171.216 27.563 170.919 15.7921 178.521 12.3638Z" fill="black"/>
<path fill-rule="evenodd" clip-rule="evenodd" d="M130.887 15.2732C136.254 18.3466 133.801 28.4131 132.467 33.8891C131.566 37.5943 132.077 41.6428 133.804 44.4509C135.072 46.5142 136.956 47.8871 139.245 48.4253C145.088 49.7943 148.465 51.8731 149.811 54.9426C151.153 51.8653 154.523 49.7865 160.35 48.4253C162.643 47.891 164.527 46.5142 165.794 44.4509C167.522 41.6389 168.033 37.5904 167.132 33.8891C164.609 23.5456 165.303 17.1765 169.191 14.9417C167.924 14.6141 166.641 13.6975 165.747 12.4572C164.893 11.2755 164.503 9.98449 164.624 8.78711C162.53 9.85968 160.311 9.19274 157.537 8.35808C155.322 7.69114 152.818 6.93839 149.803 6.91889C146.788 6.93839 144.284 7.69114 142.069 8.35808C139.296 9.19274 137.077 9.85968 134.982 8.79102C135.142 10.2146 134.686 11.8215 133.719 13.1593C132.935 14.2357 131.928 14.9846 130.887 15.2732ZM149.819 55.9137L149.71 55.6485L149.624 55.434C148.434 52.2826 145.107 50.1687 139.163 48.7763C136.776 48.2186 134.815 46.7872 133.496 44.642C131.694 41.7091 131.18 37.6567 132.116 33.8072C133.368 28.6744 135.969 17.9995 130.275 15.3668L129.709 15.1055L130.325 15.0275C131.445 14.8832 132.572 14.1304 133.418 12.9565C134.413 11.5797 134.842 9.91429 134.565 8.4985L134.487 8.10067L134.834 8.31128C136.89 9.55156 139.124 8.87681 141.956 8.02656C144.167 7.35962 146.667 6.60688 149.682 6.57178C149.756 6.57178 149.831 6.57178 149.905 6.57178C152.923 6.60688 155.42 7.35962 157.631 8.02656C160.463 8.88071 162.698 9.55156 164.753 8.31128L165.1 8.10067L165.022 8.4985C164.792 9.68417 165.159 11.0532 166.028 12.2583C166.992 13.5922 168.415 14.5244 169.745 14.696L170.361 14.774L169.796 15.0353C165.74 16.9113 164.932 23.4052 167.471 33.8111C168.411 37.6606 167.896 41.713 166.091 44.6459C164.772 46.7911 162.811 48.2225 160.424 48.7802C154.503 50.1648 151.184 52.2787 149.994 55.4301L149.819 55.9137Z" fill="black"/>
<path fill-rule="evenodd" clip-rule="evenodd" d="M156.64 26.7089C155.97 26.4632 155.221 26.5763 154.655 27.017C154.437 27.1652 154.273 27.3797 154.187 27.6293C154.082 27.8867 154.019 28.1637 154.008 28.4406C154 28.8579 154.086 29.2713 154.257 29.6497C154.811 28.7604 155.369 28.2183 155.934 28.0272C156.41 27.8399 156.933 27.8048 157.432 27.9179C157.998 28.1013 158.505 28.4211 158.91 28.8579C159.472 29.7706 159.866 30.7807 160.065 31.8377C160.279 32.8323 160.256 33.8658 159.995 34.8526C159.78 36.1124 159.238 37.2941 158.427 38.2809C157.736 39.1389 156.777 39.7357 155.7 39.9775C153.949 40.3714 153.009 38.1678 152.623 37.0835C152.132 35.8081 151.547 34.3534 150.872 32.7153C150.384 31.5101 149.831 30.3361 149.21 29.1972C148.715 28.2963 148.173 27.4226 147.584 26.5841L152.892 19.2555C153.419 18.5145 154.051 17.8592 154.768 17.3054C154.952 17.1689 155.143 17.048 155.346 16.9427C155.56 16.8218 155.845 16.6735 156.192 16.4902C156.543 16.3069 156.968 16.1002 157.475 15.8584H150.833C151.059 16.1431 151.27 16.4356 151.465 16.7437C151.601 16.9544 151.714 17.1806 151.808 17.4107C151.89 17.5784 151.941 17.7656 151.952 17.9528C151.952 18.4599 151.64 19.1307 151.012 19.9732L146.863 25.6402C146.574 25.3048 146.305 25.0045 146.051 24.7392C145.806 24.4818 145.548 24.24 145.275 24.0177V20.4451C145.275 19.0254 145.419 18.0269 145.708 17.4497C145.778 17.3522 145.876 17.2196 145.997 17.0519C146.118 16.931 146.274 16.7711 146.465 16.5643C146.71 16.3108 146.976 16.0768 147.26 15.8584H140.946C141.223 16.0729 141.488 16.2991 141.742 16.5409C141.933 16.7321 142.089 16.892 142.21 17.009C142.33 17.1533 142.44 17.2859 142.533 17.4068C142.798 17.984 142.931 18.9942 142.931 20.4373V20.9404C142.88 21.6269 142.728 22.3016 142.479 22.9451C142.295 23.5419 141.827 24.006 141.234 24.1893C141.406 24.3024 141.605 24.3648 141.812 24.3687C141.995 24.3687 142.178 24.3453 142.354 24.2985C142.553 24.2478 142.748 24.1776 142.931 24.084V35.5975C142.931 36.9938 142.798 37.9923 142.533 38.5929C142.432 38.7411 142.323 38.8893 142.21 39.0258C142.061 39.1975 141.905 39.3613 141.742 39.5134C141.547 39.6928 141.285 39.9151 140.946 40.1803H147.26C146.804 39.8332 146.383 39.4471 145.997 39.0258C145.884 38.8932 145.79 38.7489 145.708 38.5929C145.419 38.0157 145.275 37.0172 145.275 35.5975V26.1394C146.114 27.6683 146.855 29.2479 147.494 30.8665C148.274 32.7932 149.171 35.1373 150.186 37.9065C150.267 38.1366 152.424 42.185 155.79 41.4674C156.594 41.3387 157.35 41.0228 158.009 40.5469C158.715 40.0321 159.308 39.3808 159.761 38.6319C160.272 37.7973 160.63 36.8807 160.825 35.9251C160.993 35.1256 161.052 34.3065 161.005 33.4875C160.962 32.8205 160.821 32.1614 160.591 31.5374C160.369 30.8158 160.061 30.1255 159.671 29.4819C159.304 28.8657 158.84 28.3119 158.298 27.8399C157.834 27.3524 157.268 26.9624 156.64 26.7089Z" fill="black"/>
<defs>
<linearGradient id="paint0_linear_26_618" x1="132.289" y1="6.73226" x2="164.005" y2="42.939" gradientUnits="userSpaceOnUse">
<stop stop-color="#BA7C16"/>
<stop offset="0.33" stop-color="#FFE54E"/>
<stop offset="0.52" stop-color="#FFED85"/>
<stop offset="0.66" stop-color="#FFE54E"/>
<stop offset="1" stop-color="#BA7C16"/>
</linearGradient>
<linearGradient id="paint1_linear_26_618" x1="132.494" y1="6.98573" x2="163.395" y2="42.2624" gradientUnits="userSpaceOnUse">
<stop stop-color="#BA7C16"/>
<stop offset="0.33" stop-color="#FFE54E"/>
<stop offset="0.52" stop-color="#FFED85"/>
<stop offset="0.66" stop-color="#FFE54E"/>
<stop offset="1" stop-color="#BA7C16"/>
</linearGradient>
<linearGradient id="paint2_linear_26_618" x1="132.1" y1="6.83816" x2="163.95" y2="43.1983" gradientUnits="userSpaceOnUse">
<stop stop-color="#BA7C16"/>
<stop offset="0.33" stop-color="#FFE54E"/>
<stop offset="0.52" stop-color="#FFED85"/>
<stop offset="0.66" stop-color="#FFE54E"/>
<stop offset="1" stop-color="#BA7C16"/>
</linearGradient>
<linearGradient id="paint3_linear_26_618" x1="132.1" y1="6.83816" x2="163.95" y2="43.1983" gradientUnits="userSpaceOnUse">
<stop stop-color="#BA7C16"/>
<stop offset="0.33" stop-color="#FFE54E"/>
<stop offset="0.52" stop-color="#FFED85"/>
<stop offset="0.66" stop-color="#FFE54E"/>
<stop offset="1" stop-color="#BA7C16"/>
</linearGradient>
</defs>
</svg>
