<svg width="300" height="150" viewBox="0 0 300 150" fill="none" xmlns="http://www.w3.org/2000/svg">
<path d="M2.68188 111V109.944C3.49254 109.901 4.04721 109.72 4.34588 109.4C4.64454 109.059 4.80454 108.6 4.82588 108.024C4.86854 107.427 4.88988 106.755 4.88988 106.008V92.184C4.88988 91.7573 4.90054 91.352 4.92188 90.968C4.94321 90.5627 4.96454 90.2 4.98588 89.88C4.60188 89.9013 4.21788 89.9227 3.83388 89.944C3.44988 89.9653 3.06588 89.9867 2.68188 90.008V88.6H9.88188V89.656C9.09254 89.6773 8.53788 89.8587 8.21788 90.2C7.91921 90.5413 7.74854 91 7.70588 91.576C7.68454 92.152 7.67388 92.824 7.67388 93.592V98.84H10.0739L14.0739 92.536C14.3512 92.1093 14.6925 91.64 15.0979 91.128C15.5032 90.616 15.9192 90.1893 16.3459 89.848C16.0259 89.8693 15.6952 89.88 15.3539 89.88C15.0339 89.88 14.7139 89.8907 14.3939 89.912V88.6H21.2739V89.656C20.3779 89.72 19.5779 89.8693 18.8739 90.104C18.1699 90.3387 17.4979 90.7547 16.8579 91.352C16.2179 91.928 15.5352 92.8027 14.8099 93.976L11.6739 98.968C12.2925 99.3307 12.7939 99.7573 13.1779 100.248C13.5619 100.717 13.9459 101.197 14.3299 101.688L17.9139 106.456C18.7245 107.523 19.3859 108.312 19.8979 108.824C20.4312 109.315 20.9005 109.624 21.3059 109.752C21.7325 109.88 22.1699 109.944 22.6179 109.944V111H18.7139C18.5005 111 18.2125 110.851 17.8499 110.552C17.5085 110.253 17.1352 109.869 16.7299 109.4C16.3245 108.909 15.9085 108.397 15.4819 107.864L11.6419 102.68C11.2365 102.147 10.8312 101.645 10.4259 101.176C10.0205 100.685 9.62588 100.323 9.24188 100.088L7.67388 100.12V107.192C7.67388 107.768 7.66321 108.269 7.64188 108.696C7.64188 109.101 7.62054 109.443 7.57788 109.72C7.96188 109.699 8.34588 109.677 8.72988 109.656C9.11388 109.635 9.49788 109.613 9.88188 109.592V111H2.68188ZM22.5736 111V109.944C23.2136 109.944 23.7043 109.773 24.0456 109.432C24.387 109.091 24.6643 108.621 24.8776 108.024C25.1123 107.427 25.379 106.733 25.6776 105.944L32.2696 87.992H33.0376L40.1736 106.2C40.3443 106.648 40.5363 107.224 40.7496 107.928C40.963 108.632 41.0483 109.229 41.0056 109.72C41.3683 109.699 41.731 109.677 42.0936 109.656C42.4563 109.635 42.819 109.613 43.1816 109.592V111H35.8536V109.944C36.6643 109.923 37.1976 109.741 37.4536 109.4C37.7096 109.059 37.8056 108.653 37.7416 108.184C37.6776 107.715 37.571 107.288 37.4216 106.904L36.3016 103.896L27.9816 104.088L26.8616 107.512C26.7123 108.024 26.5736 108.429 26.4456 108.728C26.339 109.027 26.211 109.357 26.0616 109.72C26.4883 109.699 26.9043 109.677 27.3096 109.656C27.7363 109.635 28.1523 109.613 28.5576 109.592V111H22.5736ZM28.4616 102.712H35.8536L33.5816 96.6C33.347 95.9387 33.1016 95.288 32.8456 94.648C32.611 93.9867 32.3763 93.3253 32.1416 92.664H32.0776C31.8643 93.2613 31.6403 93.8587 31.4056 94.456C31.1923 95.0533 30.9683 95.6613 30.7336 96.28L28.4616 102.712ZM60.5436 95.352C60.5223 94.0933 60.3943 93.048 60.1596 92.216C59.925 91.384 59.509 90.7653 58.9116 90.36C58.3356 89.9333 57.493 89.7307 56.3836 89.752H53.6636L53.6316 107.192C53.6316 107.768 53.621 108.269 53.5996 108.696C53.5996 109.101 53.5783 109.443 53.5356 109.72C53.9836 109.699 54.421 109.677 54.8476 109.656C55.2956 109.635 55.7436 109.613 56.1916 109.592V111H48.6716V109.944C49.4823 109.901 50.0263 109.709 50.3036 109.368C50.6023 109.027 50.7623 108.568 50.7836 107.992C50.8263 107.395 50.8476 106.733 50.8476 106.008L50.8796 89.784L47.5836 89.816C46.2396 89.816 45.2903 90.264 44.7356 91.16C44.181 92.056 43.9036 93.4533 43.9036 95.352H42.7196L42.9116 88.6H61.5676L61.7596 95.352H60.5436ZM70.0831 111V109.944C70.8938 109.901 71.4378 109.709 71.7151 109.368C72.0138 109.027 72.1738 108.568 72.1951 107.992C72.2378 107.395 72.2591 106.733 72.2591 106.008L72.2911 102.36L66.7231 93.56C66.1898 92.7067 65.7845 91.992 65.5071 91.416C65.2511 90.84 65.0805 90.3493 64.9951 89.944C64.6538 89.9653 64.3231 89.976 64.0031 89.976C63.6831 89.976 63.3525 89.9867 63.0111 90.008V88.6H71.2671V89.656C70.2858 89.656 69.6031 89.8053 69.2191 90.104C68.8351 90.4027 68.6858 90.8187 68.7711 91.352C68.8778 91.864 69.1445 92.4613 69.5711 93.144L72.1311 97.176C72.3231 97.4747 72.5258 97.784 72.7391 98.104C72.9525 98.424 73.1658 98.7547 73.3791 99.096C73.6138 99.416 73.8591 99.7573 74.1151 100.12H74.1791C74.4138 99.6507 74.6485 99.2027 74.8831 98.776C75.1178 98.328 75.3418 97.9013 75.5551 97.496L78.2751 92.344C78.3818 92.1307 78.5098 91.8853 78.6591 91.608C78.8298 91.3093 79.0111 91.0107 79.2031 90.712C79.3951 90.392 79.5978 90.1253 79.8111 89.912C79.4058 89.9333 78.9898 89.9547 78.5631 89.976C78.1365 89.976 77.7098 89.9867 77.2831 90.008V88.6H83.8111V89.656C82.7658 89.72 81.9018 90.0827 81.2191 90.744C80.5578 91.4053 79.8538 92.4187 79.1071 93.784C78.3818 95.1493 77.6778 96.4613 76.9951 97.72C76.3338 98.9787 75.6938 100.205 75.0751 101.4C75.0751 101.784 75.0645 102.296 75.0431 102.936C75.0431 103.576 75.0431 104.227 75.0431 104.888C75.0431 105.528 75.0431 106.072 75.0431 106.52C75.0431 106.968 75.0431 107.192 75.0431 107.192C75.0431 107.768 75.0325 108.269 75.0111 108.696C75.0111 109.101 74.9898 109.443 74.9471 109.72C75.3951 109.699 75.8325 109.677 76.2591 109.656C76.7071 109.635 77.1551 109.613 77.6031 109.592V111H70.0831ZM111.347 95.736C111.133 93.7307 110.429 92.1733 109.235 91.064C108.061 89.9547 106.547 89.4 104.691 89.4C103.56 89.4 102.493 89.6453 101.491 90.136C100.509 90.6053 99.6453 91.288 98.8986 92.184C98.152 93.08 97.5653 94.1573 97.1386 95.416C96.712 96.6747 96.4986 98.0933 96.4986 99.672C96.4986 101.677 96.8826 103.448 97.6506 104.984C98.4186 106.52 99.4533 107.715 100.755 108.568C102.056 109.421 103.496 109.848 105.075 109.848C106.461 109.848 107.827 109.539 109.171 108.92C110.515 108.28 111.613 107.363 112.467 106.168L113.299 106.84C112.381 108.099 111.389 109.069 110.323 109.752C109.256 110.435 108.189 110.893 107.123 111.128C106.077 111.384 105.117 111.512 104.243 111.512C102.643 111.512 101.171 111.224 99.8266 110.648C98.504 110.072 97.352 109.272 96.3706 108.248C95.4106 107.203 94.664 105.997 94.1306 104.632C93.6186 103.245 93.3626 101.752 93.3626 100.152C93.3626 98.6373 93.5866 97.1653 94.0346 95.736C94.504 94.3067 95.1973 93.016 96.1146 91.864C97.032 90.712 98.184 89.7947 99.5706 89.112C100.979 88.4293 102.611 88.088 104.467 88.088C105.661 88.088 106.792 88.248 107.859 88.568C108.925 88.888 109.949 89.3787 110.931 90.04L110.771 88.312H112.499V95.736H111.347ZM127.13 111.512C125.103 111.512 123.364 111.171 121.914 110.488C120.463 109.805 119.279 108.899 118.362 107.768C117.466 106.616 116.804 105.347 116.378 103.96C115.951 102.573 115.738 101.187 115.738 99.8C115.738 98.456 115.962 97.1013 116.41 95.736C116.858 94.3493 117.54 93.08 118.458 91.928C119.396 90.776 120.559 89.848 121.946 89.144C123.354 88.44 124.996 88.088 126.874 88.088C128.836 88.088 130.532 88.44 131.962 89.144C133.391 89.848 134.564 90.7867 135.482 91.96C136.42 93.112 137.114 94.3707 137.562 95.736C138.031 97.1013 138.266 98.456 138.266 99.8C138.266 101.123 138.042 102.477 137.594 103.864C137.146 105.229 136.452 106.499 135.514 107.672C134.596 108.824 133.444 109.752 132.058 110.456C130.671 111.16 129.028 111.512 127.13 111.512ZM127.194 110.2C128.516 110.2 129.668 109.923 130.65 109.368C131.631 108.792 132.442 108.035 133.082 107.096C133.743 106.136 134.234 105.08 134.554 103.928C134.895 102.755 135.066 101.581 135.066 100.408C135.066 99.0853 134.884 97.7733 134.522 96.472C134.159 95.1707 133.626 93.9867 132.922 92.92C132.218 91.8533 131.343 91 130.298 90.36C129.274 89.6987 128.1 89.368 126.778 89.368C125.455 89.368 124.292 89.656 123.29 90.232C122.308 90.808 121.487 91.576 120.826 92.536C120.186 93.4747 119.695 94.5307 119.354 95.704C119.034 96.856 118.874 98.0293 118.874 99.224C118.874 100.397 119.034 101.624 119.354 102.904C119.695 104.184 120.207 105.379 120.89 106.488C121.572 107.597 122.436 108.493 123.482 109.176C124.527 109.859 125.764 110.2 127.194 110.2ZM141.151 111V109.944C141.961 109.901 142.516 109.72 142.815 109.4C143.113 109.059 143.273 108.6 143.295 108.024C143.337 107.427 143.359 106.755 143.359 106.008V92.184C143.359 91.7573 143.369 91.352 143.391 90.968C143.412 90.5627 143.433 90.2 143.455 89.88C143.071 89.9013 142.687 89.9227 142.303 89.944C141.919 89.9653 141.535 89.9867 141.151 90.008V88.6H148.351V89.656C147.561 89.6773 147.007 89.8587 146.687 90.2C146.388 90.5413 146.217 91 146.175 91.576C146.153 92.152 146.143 92.824 146.143 93.592V107.32C146.143 107.896 146.132 108.387 146.111 108.792C146.111 109.197 146.089 109.539 146.047 109.816L152.031 109.72C153.375 109.699 154.388 109.272 155.071 108.44C155.775 107.608 156.127 106.253 156.127 104.376H157.215L157.023 111H141.151ZM159.651 111V109.944C160.461 109.901 161.016 109.72 161.315 109.4C161.613 109.059 161.773 108.6 161.795 108.024C161.837 107.427 161.859 106.755 161.859 106.008V92.184C161.859 91.7573 161.869 91.352 161.891 90.968C161.912 90.5627 161.933 90.2 161.955 89.88C161.571 89.9013 161.187 89.9227 160.803 89.944C160.419 89.9653 160.035 89.9867 159.651 90.008V88.6H166.851V89.656C166.061 89.6773 165.507 89.8587 165.187 90.2C164.888 90.5413 164.717 91 164.675 91.576C164.653 92.152 164.643 92.824 164.643 93.592V107.32C164.643 107.896 164.632 108.387 164.611 108.792C164.611 109.197 164.589 109.539 164.547 109.816L170.531 109.72C171.875 109.699 172.888 109.272 173.571 108.44C174.275 107.608 174.627 106.253 174.627 104.376H175.715L175.523 111H159.651ZM189.287 102.712C189.287 101.773 189.159 101.101 188.903 100.696C188.647 100.291 188.241 100.045 187.687 99.96C187.132 99.8747 186.396 99.8533 185.479 99.896L183.143 99.992V107.32C183.143 107.896 183.132 108.387 183.111 108.792C183.111 109.197 183.089 109.539 183.047 109.816L189.159 109.72C190.097 109.699 190.908 109.549 191.591 109.272C192.273 108.973 192.807 108.461 193.191 107.736C193.575 107.011 193.767 106.019 193.767 104.76H194.855L194.663 111H178.151V109.944C178.961 109.901 179.516 109.72 179.815 109.4C180.113 109.059 180.273 108.6 180.295 108.024C180.337 107.427 180.359 106.755 180.359 106.008V92.184C180.359 91.7573 180.369 91.352 180.391 90.968C180.412 90.5627 180.433 90.2 180.455 89.88C180.071 89.9013 179.687 89.9227 179.303 89.944C178.919 89.9653 178.535 89.9867 178.151 90.008V88.6H193.543L193.703 94.2H192.647C192.647 92.9413 192.455 91.992 192.071 91.352C191.687 90.6907 191.164 90.2533 190.503 90.04C189.863 89.8053 189.137 89.6987 188.327 89.72L185.575 89.784C184.785 89.8053 184.22 89.9547 183.879 90.232C183.537 90.5093 183.324 90.9253 183.239 91.48C183.175 92.0133 183.143 92.7173 183.143 93.592V98.712L189.159 98.744L188.935 95.992H190.343V102.712H189.287ZM215.753 95.736C215.54 93.7307 214.836 92.1733 213.641 91.064C212.468 89.9547 210.953 89.4 209.097 89.4C207.966 89.4 206.9 89.6453 205.897 90.136C204.916 90.6053 204.052 91.288 203.305 92.184C202.558 93.08 201.972 94.1573 201.545 95.416C201.118 96.6747 200.905 98.0933 200.905 99.672C200.905 101.677 201.289 103.448 202.057 104.984C202.825 106.52 203.86 107.715 205.161 108.568C206.462 109.421 207.902 109.848 209.481 109.848C210.868 109.848 212.233 109.539 213.577 108.92C214.921 108.28 216.02 107.363 216.873 106.168L217.705 106.84C216.788 108.099 215.796 109.069 214.729 109.752C213.662 110.435 212.596 110.893 211.529 111.128C210.484 111.384 209.524 111.512 208.649 111.512C207.049 111.512 205.577 111.224 204.233 110.648C202.91 110.072 201.758 109.272 200.777 108.248C199.817 107.203 199.07 105.997 198.537 104.632C198.025 103.245 197.769 101.752 197.769 100.152C197.769 98.6373 197.993 97.1653 198.441 95.736C198.91 94.3067 199.604 93.016 200.521 91.864C201.438 90.712 202.59 89.7947 203.977 89.112C205.385 88.4293 207.017 88.088 208.873 88.088C210.068 88.088 211.198 88.248 212.265 88.568C213.332 88.888 214.356 89.3787 215.337 90.04L215.177 88.312H216.905V95.736H215.753ZM237.2 95.352C237.179 94.0933 237.051 93.048 236.816 92.216C236.581 91.384 236.165 90.7653 235.568 90.36C234.992 89.9333 234.149 89.7307 233.04 89.752H230.32L230.288 107.192C230.288 107.768 230.277 108.269 230.256 108.696C230.256 109.101 230.235 109.443 230.192 109.72C230.64 109.699 231.077 109.677 231.504 109.656C231.952 109.635 232.4 109.613 232.848 109.592V111H225.328V109.944C226.139 109.901 226.683 109.709 226.96 109.368C227.259 109.027 227.419 108.568 227.44 107.992C227.483 107.395 227.504 106.733 227.504 106.008L227.536 89.784L224.24 89.816C222.896 89.816 221.947 90.264 221.392 91.16C220.837 92.056 220.56 93.4533 220.56 95.352H219.376L219.568 88.6H238.224L238.416 95.352H237.2ZM248.101 89.656C247.311 89.6773 246.757 89.8587 246.437 90.2C246.138 90.5413 245.967 91 245.925 91.576C245.903 92.152 245.893 92.824 245.893 93.592V107.192C245.893 107.768 245.882 108.269 245.861 108.696C245.861 109.101 245.839 109.443 245.797 109.72C246.181 109.699 246.565 109.677 246.949 109.656C247.333 109.635 247.717 109.613 248.101 109.592V111H240.901V109.944C241.711 109.901 242.266 109.72 242.565 109.4C242.863 109.059 243.023 108.6 243.045 108.024C243.087 107.427 243.109 106.755 243.109 106.008V92.184C243.109 91.7573 243.119 91.352 243.141 90.968C243.162 90.5627 243.183 90.2 243.205 89.88C242.821 89.9013 242.437 89.9227 242.053 89.944C241.669 89.9653 241.285 89.9867 240.901 90.008V88.6H248.101V89.656ZM262.442 111.512C260.415 111.512 258.677 111.171 257.226 110.488C255.775 109.805 254.591 108.899 253.674 107.768C252.778 106.616 252.117 105.347 251.69 103.96C251.263 102.573 251.05 101.187 251.05 99.8C251.05 98.456 251.274 97.1013 251.722 95.736C252.17 94.3493 252.853 93.08 253.77 91.928C254.709 90.776 255.871 89.848 257.258 89.144C258.666 88.44 260.309 88.088 262.186 88.088C264.149 88.088 265.845 88.44 267.274 89.144C268.703 89.848 269.877 90.7867 270.794 91.96C271.733 93.112 272.426 94.3707 272.874 95.736C273.343 97.1013 273.578 98.456 273.578 99.8C273.578 101.123 273.354 102.477 272.906 103.864C272.458 105.229 271.765 106.499 270.826 107.672C269.909 108.824 268.757 109.752 267.37 110.456C265.983 111.16 264.341 111.512 262.442 111.512ZM262.506 110.2C263.829 110.2 264.981 109.923 265.962 109.368C266.943 108.792 267.754 108.035 268.394 107.096C269.055 106.136 269.546 105.08 269.866 103.928C270.207 102.755 270.378 101.581 270.378 100.408C270.378 99.0853 270.197 97.7733 269.834 96.472C269.471 95.1707 268.938 93.9867 268.234 92.92C267.53 91.8533 266.655 91 265.61 90.36C264.586 89.6987 263.413 89.368 262.09 89.368C260.767 89.368 259.605 89.656 258.602 90.232C257.621 90.808 256.799 91.576 256.138 92.536C255.498 93.4747 255.007 94.5307 254.666 95.704C254.346 96.856 254.186 98.0293 254.186 99.224C254.186 100.397 254.346 101.624 254.666 102.904C255.007 104.184 255.519 105.379 256.202 106.488C256.885 107.597 257.749 108.493 258.794 109.176C259.839 109.859 261.077 110.2 262.506 110.2ZM293.967 111.512L281.199 94.36C281.007 94.104 280.815 93.8587 280.623 93.624C280.452 93.368 280.271 93.112 280.079 92.856H280.047L280.143 106.552C280.143 107.085 280.143 107.619 280.143 108.152C280.143 108.685 280.122 109.208 280.079 109.72C280.463 109.699 280.847 109.677 281.231 109.656C281.615 109.635 281.999 109.613 282.383 109.592V111H276.527V109.944C277.188 109.944 277.658 109.805 277.935 109.528C278.234 109.229 278.426 108.888 278.511 108.504C278.596 108.099 278.639 107.736 278.639 107.416L278.671 92.024C278.671 91.6613 278.671 91.2987 278.671 90.936C278.671 90.5733 278.671 90.2213 278.671 89.88C278.33 89.9013 277.978 89.9227 277.615 89.944C277.252 89.9653 276.89 89.9867 276.527 90.008V88.6H280.335L292.335 104.664C292.612 105.027 292.879 105.389 293.135 105.752C293.412 106.115 293.69 106.477 293.967 106.84H293.999L294.031 92.184C294.031 91.7573 294.042 91.352 294.063 90.968C294.084 90.5627 294.106 90.2 294.127 89.88C293.743 89.9013 293.359 89.9227 292.975 89.944C292.591 89.9653 292.207 89.9867 291.823 90.008V88.6H297.711V89.656C296.922 89.6773 296.378 89.8587 296.079 90.2C295.78 90.5413 295.62 91 295.599 91.576C295.578 92.152 295.567 92.824 295.567 93.592L295.503 111.512H293.967Z" fill="black"/>
<line x1="100" y1="124.5" x2="200" y2="124.5" stroke="black"/>
<path d="M111.804 146V134.8H112.492L117.692 143.776H117.324L122.508 134.8H123.18L123.196 146H122.396L122.38 136.032H122.604L117.692 144.512H117.292L112.364 136.032H112.604V146H111.804ZM131.852 146.08C131.02 146.08 130.247 145.941 129.532 145.664C128.828 145.376 128.21 144.976 127.676 144.464C127.154 143.941 126.748 143.339 126.46 142.656C126.172 141.963 126.028 141.211 126.028 140.4C126.028 139.589 126.172 138.843 126.46 138.16C126.748 137.467 127.154 136.864 127.676 136.352C128.21 135.829 128.828 135.429 129.532 135.152C130.247 134.864 131.02 134.72 131.852 134.72C132.684 134.72 133.452 134.864 134.156 135.152C134.871 135.429 135.49 135.824 136.012 136.336C136.535 136.848 136.94 137.451 137.228 138.144C137.527 138.827 137.676 139.579 137.676 140.4C137.676 141.221 137.527 141.979 137.228 142.672C136.94 143.355 136.535 143.952 136.012 144.464C135.49 144.976 134.871 145.376 134.156 145.664C133.452 145.941 132.684 146.08 131.852 146.08ZM131.852 145.328C132.567 145.328 133.228 145.205 133.836 144.96C134.444 144.715 134.972 144.368 135.42 143.92C135.868 143.472 136.215 142.949 136.46 142.352C136.716 141.755 136.844 141.104 136.844 140.4C136.844 139.685 136.716 139.035 136.46 138.448C136.215 137.851 135.868 137.328 135.42 136.88C134.972 136.432 134.444 136.085 133.836 135.84C133.228 135.595 132.567 135.472 131.852 135.472C131.138 135.472 130.476 135.595 129.868 135.84C129.26 136.085 128.727 136.432 128.268 136.88C127.82 137.328 127.468 137.851 127.212 138.448C126.967 139.035 126.844 139.685 126.844 140.4C126.844 141.104 126.967 141.755 127.212 142.352C127.468 142.949 127.82 143.472 128.268 143.92C128.727 144.368 129.26 144.715 129.868 144.96C130.476 145.205 131.138 145.328 131.852 145.328ZM143.451 146.08C142.619 146.08 141.829 145.941 141.083 145.664C140.347 145.376 139.776 145.008 139.371 144.56L139.739 143.952C140.123 144.347 140.645 144.683 141.307 144.96C141.979 145.227 142.688 145.36 143.435 145.36C144.181 145.36 144.789 145.264 145.259 145.072C145.739 144.869 146.091 144.603 146.315 144.272C146.549 143.941 146.667 143.573 146.667 143.168C146.667 142.688 146.539 142.304 146.283 142.016C146.027 141.728 145.691 141.499 145.275 141.328C144.859 141.157 144.405 141.013 143.915 140.896C143.424 140.779 142.928 140.656 142.427 140.528C141.925 140.389 141.467 140.213 141.051 140C140.635 139.787 140.299 139.499 140.043 139.136C139.797 138.763 139.675 138.283 139.675 137.696C139.675 137.163 139.813 136.672 140.091 136.224C140.368 135.776 140.8 135.413 141.387 135.136C141.973 134.859 142.725 134.72 143.643 134.72C144.261 134.72 144.869 134.811 145.467 134.992C146.075 135.173 146.592 135.419 147.019 135.728L146.715 136.384C146.245 136.064 145.739 135.829 145.195 135.68C144.661 135.52 144.144 135.44 143.643 135.44C142.928 135.44 142.336 135.541 141.867 135.744C141.397 135.947 141.051 136.219 140.827 136.56C140.603 136.891 140.491 137.264 140.491 137.68C140.491 138.16 140.613 138.544 140.859 138.832C141.115 139.12 141.451 139.349 141.867 139.52C142.283 139.691 142.741 139.835 143.243 139.952C143.744 140.069 144.24 140.197 144.731 140.336C145.221 140.464 145.675 140.635 146.091 140.848C146.507 141.061 146.843 141.349 147.099 141.712C147.355 142.075 147.483 142.544 147.483 143.12C147.483 143.643 147.339 144.133 147.051 144.592C146.763 145.04 146.32 145.403 145.723 145.68C145.136 145.947 144.379 146.08 143.451 146.08ZM154.993 146.08C154.161 146.08 153.387 145.941 152.673 145.664C151.969 145.376 151.355 144.976 150.833 144.464C150.31 143.952 149.905 143.355 149.617 142.672C149.329 141.979 149.185 141.221 149.185 140.4C149.185 139.579 149.329 138.827 149.617 138.144C149.905 137.451 150.31 136.848 150.833 136.336C151.366 135.824 151.985 135.429 152.689 135.152C153.393 134.864 154.161 134.72 154.993 134.72C155.782 134.72 156.518 134.848 157.201 135.104C157.894 135.36 158.486 135.749 158.977 136.272L158.465 136.8C157.985 136.331 157.451 135.995 156.865 135.792C156.289 135.579 155.675 135.472 155.025 135.472C154.31 135.472 153.643 135.595 153.025 135.84C152.417 136.085 151.883 136.432 151.425 136.88C150.977 137.328 150.625 137.851 150.369 138.448C150.123 139.045 150.001 139.696 150.001 140.4C150.001 141.104 150.123 141.755 150.369 142.352C150.625 142.949 150.977 143.472 151.425 143.92C151.883 144.368 152.417 144.715 153.025 144.96C153.643 145.205 154.31 145.328 155.025 145.328C155.675 145.328 156.289 145.227 156.865 145.024C157.451 144.811 157.985 144.464 158.465 143.984L158.977 144.512C158.486 145.035 157.894 145.429 157.201 145.696C156.518 145.952 155.782 146.08 154.993 146.08ZM166.227 146.08C165.395 146.08 164.622 145.941 163.907 145.664C163.203 145.376 162.585 144.976 162.051 144.464C161.529 143.941 161.123 143.339 160.835 142.656C160.547 141.963 160.403 141.211 160.403 140.4C160.403 139.589 160.547 138.843 160.835 138.16C161.123 137.467 161.529 136.864 162.051 136.352C162.585 135.829 163.203 135.429 163.907 135.152C164.622 134.864 165.395 134.72 166.227 134.72C167.059 134.72 167.827 134.864 168.531 135.152C169.246 135.429 169.865 135.824 170.387 136.336C170.91 136.848 171.315 137.451 171.603 138.144C171.902 138.827 172.051 139.579 172.051 140.4C172.051 141.221 171.902 141.979 171.603 142.672C171.315 143.355 170.91 143.952 170.387 144.464C169.865 144.976 169.246 145.376 168.531 145.664C167.827 145.941 167.059 146.08 166.227 146.08ZM166.227 145.328C166.942 145.328 167.603 145.205 168.211 144.96C168.819 144.715 169.347 144.368 169.795 143.92C170.243 143.472 170.59 142.949 170.835 142.352C171.091 141.755 171.219 141.104 171.219 140.4C171.219 139.685 171.091 139.035 170.835 138.448C170.59 137.851 170.243 137.328 169.795 136.88C169.347 136.432 168.819 136.085 168.211 135.84C167.603 135.595 166.942 135.472 166.227 135.472C165.513 135.472 164.851 135.595 164.243 135.84C163.635 136.085 163.102 136.432 162.643 136.88C162.195 137.328 161.843 137.851 161.587 138.448C161.342 139.035 161.219 139.685 161.219 140.4C161.219 141.104 161.342 141.755 161.587 142.352C161.843 142.949 162.195 143.472 162.643 143.92C163.102 144.368 163.635 144.715 164.243 144.96C164.851 145.205 165.513 145.328 166.227 145.328ZM177.034 146L173.226 134.8H174.09L177.706 145.504H177.274L181.002 134.8H181.786L185.482 145.504H185.066L188.714 134.8H189.514L185.722 146H184.858L181.274 135.648H181.482L177.898 146H177.034Z" fill="black"/>
<path fill-rule="evenodd" clip-rule="evenodd" d="M150.403 4.01717C141.339 4.01717 135.723 9.18336 130.833 6.23061C131.555 9.92266 127.56 15.8237 124.108 16.2691C131.448 19.6627 129.537 31.3223 127.671 38.9958C125.801 46.6694 128.388 56.12 136.592 58.035C144.795 59.9545 148.862 62.9118 150.3 66.8977L150.264 66.8933C151.703 62.9073 155.734 59.9545 163.933 58.0395C172.136 56.12 174.724 46.6739 172.853 39.0003C170.983 31.3267 169.09 19.6672 176.429 16.2735C172.973 15.8326 168.97 9.92712 169.687 6.23507C164.797 9.18782 159.181 4.02163 150.118 4.02163H150.403V4.01717Z" fill="url(#paint0_linear_342_18)"/>
<path fill-rule="evenodd" clip-rule="evenodd" d="M172.849 38.9914C174.719 46.6649 172.127 56.1111 163.928 58.0306C155.756 59.9412 151.73 62.8806 150.278 66.8443C150.274 66.8265 150.282 66.8621 150.278 66.8443C150.274 66.8576 150.282 66.8309 150.278 66.8443C148.822 62.885 144.76 59.9412 136.592 58.0306C128.388 56.1111 125.801 46.6649 127.671 38.9914C129.542 31.3178 131.448 19.6583 124.109 16.2601C127.56 15.8192 131.555 9.91374 130.833 6.2217C135.701 9.15663 141.277 4.06615 150.26 4.01271C150.211 4.01271 150.167 4.00825 150.118 4.00825H150.403C150.354 4.00825 150.309 4.00826 150.26 4.01271C159.239 4.06615 164.819 9.16108 169.687 6.2217C168.965 9.91374 172.974 15.8148 176.43 16.2601C169.086 19.6583 170.978 31.3178 172.849 38.9914ZM183.101 14.118C179.017 13.6058 172.381 6.80067 173.232 2.54747C167.478 5.93221 160.882 0.0623506 150.26 0C139.643 0.0623506 133.042 5.93667 127.288 2.54747C128.139 6.80067 121.503 13.6058 117.419 14.118C126.095 18.0327 125.756 31.4737 123.543 40.323C121.329 49.1723 124.394 60.0614 134.094 62.2749C143.753 64.4794 148.559 67.8686 150.278 72.4336C151.997 67.8642 156.758 64.475 166.422 62.2749C176.122 60.0614 179.182 49.1723 176.973 40.323C174.759 31.4737 174.421 18.0327 183.101 14.118Z" fill="url(#paint1_linear_342_18)"/>
<path fill-rule="evenodd" clip-rule="evenodd" d="M128.709 17.4404C134.837 20.9498 132.036 32.4446 130.513 38.6975C129.484 42.9284 130.067 47.5513 132.04 50.7579C133.488 53.1138 135.639 54.6815 138.253 55.2961C144.925 56.8593 148.781 59.2331 150.318 62.7381C151.85 59.2242 155.698 56.8504 162.352 55.2961C164.97 54.686 167.121 53.1138 168.569 50.7579C170.542 47.5468 171.125 42.924 170.096 38.6975C167.215 26.8865 168.008 19.6138 172.448 17.0618C171.001 16.6877 169.535 15.6411 168.515 14.2249C167.54 12.8754 167.095 11.4013 167.233 10.034C164.841 11.2588 162.307 10.4972 159.141 9.54413C156.611 8.78256 153.752 7.92302 150.309 7.90075C146.866 7.92302 144.007 8.78256 141.478 9.54413C138.311 10.4972 135.777 11.2588 133.385 10.0385C133.568 11.6641 133.047 13.4989 131.942 15.0265C131.047 16.2557 129.898 17.1108 128.709 17.4404ZM150.327 63.847L150.202 63.5442L150.104 63.2992C148.746 59.7007 144.947 57.2869 138.16 55.6969C135.434 55.0601 133.194 53.4256 131.688 50.9761C129.631 47.627 129.043 42.9997 130.112 38.604C131.541 32.743 134.512 20.5535 128.01 17.5473L127.364 17.2489L128.068 17.1598C129.346 16.995 130.633 16.1355 131.599 14.7949C132.735 13.2228 133.225 11.3211 132.909 9.70447L132.82 9.25019L133.216 9.49069C135.563 10.9069 138.115 10.1365 141.348 9.16557C143.874 8.404 146.728 7.54447 150.171 7.50438C150.256 7.50438 150.34 7.50438 150.425 7.50438C153.872 7.54447 156.722 8.404 159.247 9.16557C162.481 10.1409 165.033 10.9069 167.38 9.49069L167.776 9.25019L167.687 9.70447C167.424 11.0584 167.843 12.6216 168.836 13.9977C169.936 15.5209 171.562 16.5853 173.08 16.7813L173.784 16.8703L173.138 17.1687C168.506 19.3109 167.585 26.7262 170.484 38.6084C171.557 43.0041 170.969 47.6314 168.907 50.9805C167.402 53.43 165.162 55.0645 162.436 55.7014C155.676 57.2824 151.886 59.6963 150.527 63.2948L150.327 63.847Z" fill="url(#paint2_linear_342_18)"/>
<path fill-rule="evenodd" clip-rule="evenodd" d="M128.709 17.4404C134.837 20.9498 132.036 32.4446 130.513 38.6975C129.484 42.9284 130.067 47.5513 132.04 50.7579C133.488 53.1138 135.639 54.6815 138.253 55.2961C144.925 56.8593 148.781 59.2331 150.318 62.7381C151.85 59.2242 155.698 56.8504 162.352 55.2961C164.97 54.686 167.121 53.1138 168.569 50.7579C170.542 47.5468 171.125 42.924 170.096 38.6975C167.215 26.8865 168.008 19.6138 172.448 17.0618C171.001 16.6877 169.535 15.6411 168.515 14.2249C167.54 12.8754 167.095 11.4013 167.233 10.034C164.841 11.2588 162.307 10.4972 159.141 9.54413C156.611 8.78256 153.752 7.92302 150.309 7.90075C146.866 7.92302 144.007 8.78256 141.478 9.54413C138.311 10.4972 135.777 11.2588 133.385 10.0385C133.568 11.6641 133.047 13.4989 131.942 15.0265C131.047 16.2557 129.898 17.1108 128.709 17.4404ZM150.327 63.847L150.202 63.5442L150.104 63.2992C148.746 59.7007 144.947 57.2869 138.16 55.6969C135.434 55.0601 133.194 53.4256 131.688 50.9761C129.631 47.627 129.043 42.9997 130.112 38.604C131.541 32.743 134.512 20.5535 128.01 17.5473L127.364 17.2489L128.068 17.1598C129.346 16.995 130.633 16.1355 131.599 14.7949C132.735 13.2228 133.225 11.3211 132.909 9.70447L132.82 9.25019L133.216 9.49069C135.563 10.9069 138.115 10.1365 141.348 9.16557C143.874 8.404 146.728 7.54447 150.171 7.50438C150.256 7.50438 150.34 7.50438 150.425 7.50438C153.872 7.54447 156.722 8.404 159.247 9.16557C162.481 10.1409 165.033 10.9069 167.38 9.49069L167.776 9.25019L167.687 9.70447C167.424 11.0584 167.843 12.6216 168.836 13.9977C169.936 15.5209 171.562 16.5853 173.08 16.7813L173.784 16.8703L173.138 17.1687C168.506 19.3109 167.585 26.7262 170.484 38.6084C171.557 43.0041 170.969 47.6314 168.907 50.9805C167.402 53.43 165.162 55.0645 162.436 55.7014C155.676 57.2824 151.886 59.6963 150.527 63.2948L150.327 63.847Z" fill="url(#paint3_linear_342_18)"/>
<path fill-rule="evenodd" clip-rule="evenodd" d="M150.403 4.01717C141.339 4.01717 135.723 9.18336 130.833 6.23061C131.555 9.92266 127.56 15.8237 124.108 16.2691C131.448 19.6627 129.537 31.3223 127.671 38.9958C125.801 46.6694 128.388 56.12 136.592 58.035C144.795 59.9545 148.862 62.9118 150.3 66.8977L150.264 66.8933C151.703 62.9073 155.734 59.9545 163.933 58.0395C172.136 56.12 174.724 46.6739 172.853 39.0003C170.983 31.3267 169.09 19.6672 176.429 16.2735C172.973 15.8326 168.97 9.92712 169.687 6.23507C164.797 9.18782 159.181 4.02163 150.118 4.02163H150.403V4.01717Z" fill="white"/>
<path fill-rule="evenodd" clip-rule="evenodd" d="M172.849 38.9914C174.719 46.6649 172.127 56.1111 163.928 58.0306C155.756 59.9412 151.73 62.8806 150.278 66.8443C150.274 66.8265 150.282 66.8621 150.278 66.8443C150.274 66.8576 150.282 66.8309 150.278 66.8443C148.822 62.885 144.76 59.9412 136.592 58.0306C128.388 56.1111 125.801 46.6649 127.671 38.9914C129.542 31.3178 131.448 19.6583 124.109 16.2601C127.56 15.8192 131.555 9.91374 130.833 6.2217C135.701 9.15663 141.277 4.06615 150.26 4.01271C150.211 4.01271 150.167 4.00825 150.118 4.00825H150.403C150.354 4.00825 150.309 4.00826 150.26 4.01271C159.239 4.06615 164.819 9.16108 169.687 6.2217C168.965 9.91374 172.974 15.8148 176.43 16.2601C169.086 19.6583 170.978 31.3178 172.849 38.9914ZM183.101 14.118C179.017 13.6058 172.381 6.80067 173.232 2.54747C167.478 5.93221 160.882 0.0623506 150.26 0C139.643 0.0623506 133.042 5.93667 127.288 2.54747C128.139 6.80067 121.503 13.6058 117.419 14.118C126.095 18.0327 125.756 31.4737 123.543 40.323C121.329 49.1723 124.394 60.0614 134.094 62.2749C143.753 64.4794 148.559 67.8686 150.278 72.4336C151.997 67.8642 156.758 64.475 166.422 62.2749C176.122 60.0614 179.182 49.1723 176.973 40.323C174.759 31.4737 174.421 18.0327 183.101 14.118Z" fill="black"/>
<path fill-rule="evenodd" clip-rule="evenodd" d="M128.709 17.4404C134.837 20.9498 132.036 32.4446 130.513 38.6975C129.484 42.9284 130.067 47.5513 132.04 50.7579C133.488 53.1138 135.639 54.6815 138.253 55.2961C144.925 56.8593 148.781 59.2331 150.318 62.7381C151.85 59.2242 155.698 56.8504 162.352 55.2961C164.97 54.686 167.121 53.1138 168.569 50.7579C170.542 47.5468 171.125 42.924 170.096 38.6975C167.215 26.8865 168.008 19.6138 172.448 17.0618C171.001 16.6877 169.535 15.6411 168.515 14.2249C167.54 12.8754 167.095 11.4013 167.233 10.034C164.841 11.2588 162.307 10.4972 159.141 9.54413C156.611 8.78256 153.752 7.92302 150.309 7.90075C146.866 7.92302 144.007 8.78256 141.478 9.54413C138.311 10.4972 135.777 11.2588 133.385 10.0385C133.568 11.6641 133.047 13.4989 131.942 15.0265C131.047 16.2557 129.898 17.1108 128.709 17.4404ZM150.327 63.847L150.202 63.5442L150.104 63.2992C148.746 59.7007 144.947 57.2869 138.16 55.6969C135.434 55.0601 133.194 53.4256 131.688 50.9761C129.631 47.627 129.043 42.9997 130.112 38.604C131.541 32.743 134.512 20.5535 128.01 17.5473L127.364 17.2489L128.068 17.1598C129.346 16.995 130.633 16.1355 131.599 14.7949C132.735 13.2228 133.225 11.3211 132.909 9.70447L132.82 9.25019L133.216 9.49069C135.563 10.9069 138.115 10.1365 141.348 9.16557C143.874 8.404 146.728 7.54447 150.171 7.50438C150.256 7.50438 150.34 7.50438 150.425 7.50438C153.872 7.54447 156.722 8.404 159.247 9.16557C162.481 10.1409 165.033 10.9069 167.38 9.49069L167.776 9.25019L167.687 9.70447C167.424 11.0584 167.843 12.6216 168.836 13.9977C169.936 15.5209 171.562 16.5853 173.08 16.7813L173.784 16.8703L173.138 17.1687C168.506 19.3109 167.585 26.7262 170.484 38.6084C171.557 43.0041 170.969 47.6314 168.907 50.9805C167.402 53.43 165.162 55.0645 162.436 55.7014C155.676 57.2824 151.886 59.6963 150.527 63.2948L150.327 63.847Z" fill="black"/>
<path fill-rule="evenodd" clip-rule="evenodd" d="M158.116 30.4984C157.35 30.2178 156.495 30.347 155.85 30.8502C155.6 31.0195 155.413 31.2644 155.315 31.5495C155.195 31.8434 155.124 32.1596 155.11 32.4758C155.101 32.9523 155.199 33.4244 155.395 33.8564C156.028 32.841 156.665 32.2219 157.31 32.0037C157.854 31.7899 158.45 31.7499 159.02 31.879C159.666 32.0883 160.245 32.4535 160.708 32.9523C161.35 33.9945 161.8 35.148 162.027 36.3549C162.272 37.4906 162.245 38.6708 161.946 39.7975C161.702 41.2361 161.083 42.5855 160.156 43.7123C159.368 44.6921 158.272 45.3735 157.043 45.6496C155.043 46.0994 153.97 43.5831 153.529 42.345C152.968 40.8887 152.3 39.2275 151.53 37.357C150.973 35.9808 150.34 34.6403 149.632 33.3398C149.067 32.311 148.448 31.3134 147.775 30.3559L153.836 21.9875C154.438 21.1414 155.159 20.3932 155.979 19.7607C156.188 19.6049 156.406 19.4668 156.638 19.3466C156.883 19.2085 157.208 19.0393 157.604 18.8299C158.005 18.6206 158.491 18.3846 159.069 18.1085H151.485C151.743 18.4336 151.984 18.7676 152.206 19.1194C152.362 19.3599 152.492 19.6182 152.598 19.881C152.692 20.0725 152.75 20.2863 152.763 20.5C152.763 21.079 152.407 21.845 151.69 22.807L146.951 29.2781C146.622 28.8951 146.314 28.5522 146.025 28.2493C145.744 27.9554 145.45 27.6793 145.139 27.4254V23.3459C145.139 21.7248 145.303 20.5847 145.633 19.9255C145.713 19.8142 145.824 19.6628 145.963 19.4713C146.101 19.3332 146.279 19.1506 146.497 18.9146C146.778 18.6251 147.08 18.3579 147.405 18.1085H140.195C140.511 18.3534 140.814 18.6117 141.104 18.8878C141.322 19.1061 141.5 19.2887 141.638 19.4223C141.776 19.587 141.901 19.7385 142.008 19.8765C142.311 20.5357 142.462 21.6892 142.462 23.337V23.9115C142.404 24.6953 142.23 25.4658 141.945 26.2007C141.736 26.8821 141.202 27.412 140.525 27.6214C140.721 27.7505 140.948 27.8218 141.184 27.8262C141.393 27.8262 141.602 27.7995 141.803 27.7461C142.03 27.6882 142.253 27.608 142.462 27.5011V40.6482C142.462 42.2426 142.311 43.3827 142.008 44.0686C141.892 44.2378 141.767 44.407 141.638 44.5629C141.469 44.7589 141.291 44.9459 141.104 45.1196C140.881 45.3245 140.583 45.5783 140.195 45.8812H147.405C146.884 45.4848 146.403 45.0439 145.963 44.5629C145.833 44.4115 145.726 44.2467 145.633 44.0686C145.303 43.4094 145.139 42.2693 145.139 40.6482V29.8482C146.096 31.594 146.942 33.3977 147.673 35.2459C148.563 37.446 149.588 40.1227 150.746 43.2847C150.839 43.5475 153.302 48.1703 157.146 47.3509C158.063 47.2039 158.927 46.8432 159.68 46.2998C160.486 45.7119 161.163 44.9682 161.679 44.1131C162.263 43.16 162.672 42.1134 162.895 41.0223C163.087 40.1093 163.153 39.174 163.1 38.2388C163.051 37.4772 162.891 36.7245 162.628 36.012C162.374 35.1881 162.022 34.3998 161.577 33.6649C161.158 32.9613 160.628 32.3288 160.009 31.79C159.479 31.2333 158.833 30.7879 158.116 30.4984Z" fill="black"/>
<defs>
<linearGradient id="paint0_linear_342_18" x1="130.31" y1="7.68739" x2="166.526" y2="49.0311" gradientUnits="userSpaceOnUse">
<stop stop-color="#BA7C16"/>
<stop offset="0.33" stop-color="#FFE54E"/>
<stop offset="0.52" stop-color="#FFED85"/>
<stop offset="0.66" stop-color="#FFE54E"/>
<stop offset="1" stop-color="#BA7C16"/>
</linearGradient>
<linearGradient id="paint1_linear_342_18" x1="130.544" y1="7.97687" x2="165.829" y2="48.2587" gradientUnits="userSpaceOnUse">
<stop stop-color="#BA7C16"/>
<stop offset="0.33" stop-color="#FFE54E"/>
<stop offset="0.52" stop-color="#FFED85"/>
<stop offset="0.66" stop-color="#FFE54E"/>
<stop offset="1" stop-color="#BA7C16"/>
</linearGradient>
<linearGradient id="paint2_linear_342_18" x1="130.094" y1="7.80856" x2="166.463" y2="49.3275" gradientUnits="userSpaceOnUse">
<stop stop-color="#BA7C16"/>
<stop offset="0.33" stop-color="#FFE54E"/>
<stop offset="0.52" stop-color="#FFED85"/>
<stop offset="0.66" stop-color="#FFE54E"/>
<stop offset="1" stop-color="#BA7C16"/>
</linearGradient>
<linearGradient id="paint3_linear_342_18" x1="130.094" y1="7.80856" x2="166.463" y2="49.3275" gradientUnits="userSpaceOnUse">
<stop stop-color="#BA7C16"/>
<stop offset="0.33" stop-color="#FFE54E"/>
<stop offset="0.52" stop-color="#FFED85"/>
<stop offset="0.66" stop-color="#FFE54E"/>
<stop offset="1" stop-color="#BA7C16"/>
</linearGradient>
</defs>
</svg>
