<svg width="21" height="21" viewBox="0 0 21 21" fill="none" xmlns="http://www.w3.org/2000/svg">
<g id="&#208;&#152;&#208;&#186;&#208;&#190;&#208;&#189;&#208;&#186;&#208;&#176;">
<circle id="Ellipse 8" cx="10.7988" cy="10.1826" r="10" fill="white"/>
<path id="Vector" d="M13.6127 11.3388C13.4561 11.2606 12.6859 10.8839 12.5425 10.8314C12.3986 10.7795 12.2942 10.7538 12.1893 10.9101C12.0854 11.066 11.7849 11.417 11.6937 11.5209C11.6025 11.6253 11.5108 11.6379 11.3542 11.5602C11.1976 11.4815 10.6926 11.3173 10.0942 10.7863C9.62872 10.3728 9.31399 9.86232 9.22278 9.70596C9.13158 9.55013 9.21329 9.46565 9.29132 9.388C9.36196 9.31821 9.44842 9.20593 9.52644 9.11516C9.605 9.02386 9.63083 8.9588 9.68355 8.85438C9.73574 8.7505 9.70991 8.65972 9.67037 8.58154C9.63083 8.50337 9.31768 7.73574 9.18746 7.42355C9.05988 7.11975 8.93072 7.1612 8.83477 7.15596C8.73465 7.15199 8.63446 7.15024 8.53427 7.15071C8.42988 7.15071 8.26012 7.18954 8.11673 7.3459C7.97333 7.50173 7.56845 7.87898 7.56845 8.64661C7.56845 9.41371 8.12991 10.1551 8.20793 10.2595C8.28648 10.3634 9.31293 11.9385 10.8845 12.6138C11.2583 12.7744 11.5498 12.8704 11.7776 12.9417C12.1529 13.0608 12.4945 13.044 12.7639 13.0036C13.065 12.959 13.6908 12.6264 13.8215 12.2623C13.9522 11.8981 13.9522 11.5859 13.9127 11.5209C13.8737 11.4558 13.7698 11.417 13.6127 11.3388ZM10.7543 15.2231H10.7522C9.81891 15.2232 8.90282 14.9734 8.09986 14.5001L7.90954 14.3878L5.93731 14.903L6.46345 12.989L6.33956 12.7927C5.81787 11.9659 5.54188 11.0091 5.54349 10.0328C5.54402 7.17327 7.88213 4.84679 10.7564 4.84679C12.1482 4.84679 13.4567 5.38722 14.4404 6.36735C14.9258 6.84829 15.3105 7.42026 15.5723 8.05016C15.8341 8.68006 15.9678 9.35538 15.9656 10.037C15.964 12.8966 13.6264 15.2231 10.7543 15.2231ZM15.1896 5.62281C14.6087 5.04089 13.9176 4.57948 13.1562 4.26533C12.3949 3.95118 11.5785 3.79052 10.7543 3.79269C7.29852 3.79269 4.48594 6.59191 4.48436 10.0323C4.48436 11.1321 4.77274 12.2056 5.32154 13.1516L4.43164 16.3853L7.7556 15.5174C8.67481 16.0159 9.70487 16.2771 10.7516 16.2772H10.7543C14.2095 16.2772 17.0226 13.478 17.0242 10.037C17.0267 9.21709 16.8659 8.40478 16.551 7.64709C16.2361 6.8894 15.7734 6.20137 15.1896 5.62281Z" fill="#0071F5"/>
</g>
</svg>
