<svg width="28" height="28" viewBox="0 0 28 28" fill="none" xmlns="http://www.w3.org/2000/svg">
<path d="M7.1234 26.4199H20.8766C23.2904 26.4199 25.254 24.4562 25.254 22.0424V8.95672C25.254 8.52984 24.9048 8.18058 24.4779 8.18058H19.8211V7.01637C19.8211 3.80702 17.2093 1.19531 14 1.19531C10.7907 1.19531 8.17895 3.80702 8.17895 7.01637V8.18058H3.52211C3.09523 8.18058 2.74597 8.52984 2.74597 8.95672V22.0424C2.74597 24.4562 4.70961 26.4199 7.1234 26.4199ZM9.73123 7.01637C9.73123 4.66078 11.6444 2.74759 14 2.74759C16.3556 2.74759 18.2688 4.66078 18.2688 7.01637V8.18058H9.73123V7.01637ZM4.29825 9.73286H8.17895V11.6732C8.17895 12.1001 8.52822 12.4493 8.95509 12.4493C9.38197 12.4493 9.73123 12.1001 9.73123 11.6732V9.73286H18.2688V11.6732C18.2688 12.1001 18.618 12.4493 19.0449 12.4493C19.4718 12.4493 19.8211 12.1001 19.8211 11.6732V9.73286H23.7018V22.0424C23.7018 23.5986 22.4328 24.8676 20.8766 24.8676H7.1234C5.56724 24.8676 4.29825 23.5986 4.29825 22.0424V9.73286Z" fill="black"/>
</svg>
