<svg width="28" height="28" viewBox="0 0 28 28" fill="none" xmlns="http://www.w3.org/2000/svg">
<path d="M26.7538 25.5855L20.041 18.98C21.7989 17.0701 22.8789 14.5443 22.8789 11.7649C22.8781 5.81919 17.9808 0.999939 11.9392 0.999939C5.89766 0.999939 1.00037 5.81919 1.00037 11.7649C1.00037 17.7106 5.89766 22.5298 11.9392 22.5298C14.5496 22.5298 16.9438 21.6269 18.8244 20.1259L25.5632 26.7574C25.8916 27.0809 26.4247 27.0809 26.753 26.7574C27.0821 26.434 27.0821 25.909 26.7538 25.5855ZM11.9392 20.8736C6.8274 20.8736 2.68346 16.7955 2.68346 11.7649C2.68346 6.73427 6.8274 2.65619 11.9392 2.65619C17.0511 2.65619 21.195 6.73427 21.195 11.7649C21.195 16.7955 17.0511 20.8736 11.9392 20.8736Z" fill="black"/>
</svg>
