<svg width="20" height="20" viewBox="0 0 20 20" fill="none" xmlns="http://www.w3.org/2000/svg">
<g clip-path="url(#clip0_335_634)">
<path d="M19.1099 18.2754L14.315 13.5571C15.5707 12.1929 16.3422 10.3888 16.3422 8.40347C16.3416 4.15655 12.8435 0.714233 8.52807 0.714233C4.21266 0.714233 0.7146 4.15655 0.7146 8.40347C0.7146 12.6504 4.21266 16.0927 8.52807 16.0927C10.3926 16.0927 12.1028 15.4478 13.446 14.3756L18.2595 19.1124C18.4941 19.3435 18.8748 19.3435 19.1094 19.1124C19.3444 18.8814 19.3444 18.5064 19.1099 18.2754ZM8.52807 14.9097C4.87677 14.9097 1.91681 11.9968 1.91681 8.40347C1.91681 4.81019 4.87677 1.89727 8.52807 1.89727C12.1794 1.89727 15.1393 4.81019 15.1393 8.40347C15.1393 11.9968 12.1794 14.9097 8.52807 14.9097Z" fill="black"/>
</g>
<defs>
<clipPath id="clip0_335_634">
<rect width="20" height="20" fill="white"/>
</clipPath>
</defs>
</svg>
