<svg width="28" height="28" viewBox="0 0 28 28" fill="none" xmlns="http://www.w3.org/2000/svg">
<path d="M7.1234 26.4182H20.8766C23.2904 26.4182 25.254 24.4546 25.254 22.0408V8.95509C25.254 8.52821 24.9048 8.17895 24.4779 8.17895H19.8211V7.01474C19.8211 3.8054 17.2093 1.19369 14 1.19369C10.7907 1.19369 8.17895 3.8054 8.17895 7.01474V8.17895H3.52211C3.09523 8.17895 2.74597 8.52821 2.74597 8.95509V22.0408C2.74597 24.4546 4.70961 26.4182 7.1234 26.4182ZM9.73123 7.01474C9.73123 4.65915 11.6444 2.74597 14 2.74597C16.3556 2.74597 18.2688 4.65915 18.2688 7.01474V8.17895H9.73123V7.01474ZM4.29825 9.73123H8.17895V11.6716C8.17895 12.0985 8.52822 12.4477 8.95509 12.4477C9.38197 12.4477 9.73123 12.0985 9.73123 11.6716V9.73123H18.2688V11.6716C18.2688 12.0985 18.618 12.4477 19.0449 12.4477C19.4718 12.4477 19.8211 12.0985 19.8211 11.6716V9.73123H23.7018V22.0408C23.7018 23.597 22.4328 24.866 20.8766 24.866H7.1234C5.56724 24.866 4.29825 23.597 4.29825 22.0408V9.73123Z" fill="black"/>
</svg>
