<svg width="37" height="36" viewBox="0 0 37 36" fill="none" xmlns="http://www.w3.org/2000/svg">
<g clip-path="url(#clip0_94_11242)">
<path d="M26.7551 0H10.2449C4.87145 0 0.5 4.37145 0.5 9.74485V26.2554C0.5 31.6285 4.87145 35.9999 10.2449 35.9999H26.7554C32.1285 35.9999 36.4999 31.6285 36.4999 26.2554V9.74485C36.4999 4.37145 32.1285 0 26.7551 0ZM34.3895 26.2554C34.3895 30.4648 30.9648 33.8895 26.7551 33.8895H10.2449C6.03518 33.8895 2.61047 30.4648 2.61047 26.2554V9.74485C2.61047 5.53518 6.03518 2.11047 10.2449 2.11047H26.7554C30.9648 2.11047 34.3895 5.53518 34.3895 9.74485V26.2554Z" fill="white"/>
<path d="M18.5 8.15649C13.0722 8.15649 8.65649 12.5722 8.65649 18C8.65649 23.4277 13.0722 27.8434 18.5 27.8434C23.9277 27.8434 28.3434 23.4277 28.3434 18C28.3434 12.5722 23.9277 8.15649 18.5 8.15649ZM18.5 25.7329C14.2362 25.7329 10.767 22.264 10.767 18C10.767 13.7362 14.2362 10.267 18.5 10.267C22.764 10.267 26.2329 13.7362 26.2329 18C26.2329 22.264 22.764 25.7329 18.5 25.7329Z" fill="white"/>
<path d="M28.5788 4.66064C26.9748 4.66064 25.6702 5.96554 25.6702 7.56927C25.6702 9.17327 26.9748 10.4782 28.5788 10.4782C30.1828 10.4782 31.4877 9.17327 31.4877 7.56927C31.4877 5.96527 30.1828 4.66064 28.5788 4.66064ZM28.5788 8.36742C28.1388 8.36742 27.7806 8.00927 27.7806 7.56927C27.7806 7.12899 28.1388 6.77111 28.5788 6.77111C29.0191 6.77111 29.3772 7.12899 29.3772 7.56927C29.3772 8.00927 29.0191 8.36742 28.5788 8.36742Z" fill="white"/>
</g>
<defs>
<clipPath id="clip0_94_11242">
<rect width="36" height="36" fill="white" transform="translate(0.5)"/>
</clipPath>
</defs>
</svg>
