<svg width="37" height="36" viewBox="0 0 37 36" fill="none" xmlns="http://www.w3.org/2000/svg">
<g clip-path="url(#clip0_94_12696)">
<path d="M31.2278 5.27203C27.828 1.87228 23.3078 0 18.4999 0C18.4996 0 18.5 0 18.4997 0C13.6922 0 9.17164 1.87249 5.77203 5.27203C2.37235 8.67178 0.5 13.192 0.5 18C0.500141 21.0606 1.27906 24.0688 2.75647 26.7294L0.538953 34.6613C0.436438 35.0281 0.539656 35.4217 0.808953 35.691C1.07825 35.9603 1.47172 36.0634 1.83875 35.961L9.77077 33.7434C12.4311 35.221 15.4392 35.9999 18.4999 36C23.308 36 27.8281 34.1277 31.228 30.7279C34.6278 27.3281 36.5 22.8079 36.5 17.9999C36.4999 13.1919 34.6274 8.67178 31.2278 5.27203ZM18.4999 33.8906C15.663 33.8906 12.8784 33.1331 10.4469 31.7003C10.2831 31.6038 10.0981 31.5543 9.91147 31.5543C9.81627 31.5543 9.72078 31.5671 9.62748 31.5932L3.07477 33.4252L4.9067 26.8727C4.98397 26.5963 4.9453 26.3005 4.79968 26.0533C3.36685 23.6214 2.60952 20.8366 2.60938 17.9999C2.60938 13.7554 4.26228 9.76493 7.26364 6.76357C10.265 3.76221 14.2554 2.10938 18.4999 2.10938C27.2618 2.10938 34.3903 9.23787 34.3906 17.9999C34.3906 26.7621 27.2621 33.8906 18.4999 33.8906Z" fill="white"/>
<path d="M26.2701 19.3487C25.6254 18.7039 24.7657 18.3488 23.8494 18.3488C22.933 18.3488 22.0734 18.7039 21.4289 19.3486L20.9399 19.8375C20.8193 19.958 20.6572 20.0245 20.4836 20.0245C20.3099 20.0245 20.1478 19.958 20.027 19.8372L16.661 16.4712C16.5404 16.3507 16.474 16.1886 16.4739 16.0148C16.4739 15.8411 16.5402 15.6791 16.6607 15.5586L17.1498 15.0696C18.4845 13.7349 18.4845 11.5631 17.1498 10.2283L16.1717 9.24991C15.5269 8.60535 14.6672 8.25049 13.751 8.25049C12.8348 8.25049 11.9751 8.60543 11.3304 9.25019L10.6011 9.97961C9.05919 11.5215 8.49951 13.8176 9.02495 16.4452C9.51946 18.9177 10.933 21.4207 13.0051 23.493C15.6165 26.1041 18.9423 27.6631 21.9018 27.6633H21.9023C23.7671 27.6633 25.3635 27.0527 26.5187 25.8975L27.2481 25.1682C28.5828 23.8334 28.5828 21.6615 27.2481 20.3266L26.2701 19.3487ZM25.7566 23.6766L25.0272 24.406C24.2762 25.157 23.1957 25.5539 21.9024 25.5539H21.9021C19.4895 25.5538 16.7211 24.2258 14.4968 22.0016C12.7158 20.2204 11.5071 18.1002 11.0935 16.0316C10.7108 14.1179 11.0656 12.4983 12.0928 11.4712L12.822 10.7418C13.0683 10.4956 13.3982 10.3599 13.7511 10.3599C14.1041 10.3599 14.4342 10.4956 14.6803 10.7417L15.6583 11.7198C16.1706 12.2322 16.1706 13.0658 15.6584 13.5781L15.1693 14.0671C14.6503 14.586 14.3646 15.2779 14.3646 16.0152C14.3647 16.7523 14.6506 17.4441 15.1695 17.963L18.5356 21.3289C19.0546 21.8481 19.7465 22.134 20.4837 22.134C21.2208 22.134 21.9125 21.8482 22.4314 21.3292L22.9205 20.8403C23.1667 20.594 23.4966 20.4584 23.8494 20.4584C24.2023 20.4584 24.5322 20.594 24.7786 20.8404L25.7566 21.8183C26.2689 22.3306 26.269 23.1643 25.7566 23.6766Z" fill="white"/>
</g>
<defs>
<clipPath id="clip0_94_12696">
<rect width="36" height="36" fill="white" transform="translate(0.5)"/>
</clipPath>
</defs>
</svg>
