<svg width="28" height="28" viewBox="0 0 28 28" fill="none" xmlns="http://www.w3.org/2000/svg">
<path d="M25.1749 22.8636C25.8346 22.1768 25.84 21.4737 25.1911 20.8248L25.1749 22.8636ZM25.1749 22.8636C24.9477 23.1069 24.7098 23.3395 24.4556 23.5828L25.1749 22.8636ZM6.23036 18.3313L6.23044 18.3314C8.80908 21.4138 11.9134 23.841 15.4567 25.5584L15.4571 25.5586C16.8048 26.1973 18.6128 26.9579 20.629 27.0884L20.63 27.0884L20.6454 27.0891C20.7641 27.0943 20.8795 27.0993 20.9999 27.0993C22.3596 27.0993 23.4544 26.629 24.3456 25.6617C24.3501 25.6572 24.3633 25.6441 24.3727 25.6283C24.6622 25.2794 24.9889 24.9625 25.3334 24.6283C25.3588 24.6038 25.3842 24.5791 25.4097 24.5544C25.664 24.3108 25.9241 24.0562 26.1735 23.7959C26.7569 23.1879 27.0514 22.4945 27.05 21.8028C27.0486 21.1111 26.7513 20.4269 26.162 19.8376L22.9125 16.5882C22.9124 16.5881 22.9123 16.5879 22.9122 16.5878C22.3527 16.0066 21.6806 15.6968 20.9729 15.6968C20.2652 15.6968 19.5878 16.0066 19.0123 16.5821L17.1033 18.4911C16.9341 18.3953 16.7613 18.3088 16.5992 18.2278L16.5986 18.2275C16.3823 18.1193 16.1843 18.0176 16.0082 17.9056L16.0082 17.9056C14.2505 16.7895 12.6538 15.3333 11.1263 13.4604C10.3649 12.4966 9.85194 11.6872 9.49258 10.8656C9.99217 10.4121 10.4604 9.9384 10.9121 9.47607L10.9123 9.4759C11.0742 9.3086 11.2415 9.14125 11.4092 8.97355C12.0005 8.38226 12.3216 7.69416 12.3216 6.99135C12.3216 6.28873 12.0061 5.60056 11.4091 5.00903C11.4091 5.00901 11.4091 5.009 11.4091 5.00898L9.79766 3.39758C9.61377 3.21369 9.44008 3.03489 9.2614 2.85095L9.24657 2.83569C8.88974 2.46804 8.51599 2.08886 8.14738 1.74732C7.58244 1.19357 6.91612 0.900706 6.2093 0.900706C5.5076 0.900706 4.83593 1.1938 4.24958 1.75274L4.24957 1.75273L4.24873 1.75358L2.22617 3.77614C1.48241 4.5199 1.06081 5.42322 0.973287 6.46801L0.97327 6.46822C0.869776 7.77008 1.10976 9.15116 1.72792 10.8159C2.67663 13.3909 4.10756 15.7807 6.23036 18.3313ZM21.8948 17.6046L25.1557 20.8601L16.6006 19.8081C16.6101 19.8135 16.6195 19.8189 16.6303 19.8243L16.6075 19.8688C16.6075 19.8688 16.6076 19.8689 16.6077 19.8689C16.7924 19.964 16.9732 20.0095 17.1549 20.0095C17.6093 20.0095 17.9032 19.72 17.9961 19.6271L20.0186 17.6046C20.3262 17.2969 20.655 17.1379 20.9729 17.1379C21.3632 17.1379 21.6861 17.38 21.8935 17.6032L21.8948 17.6046ZM24.3582 23.6077C23.9995 23.9559 23.6268 24.3177 23.2878 24.7232L25.1558 20.8602C25.4739 21.1783 25.6263 21.5042 25.6237 21.8296C25.6212 22.1554 25.4632 22.4913 25.1388 22.8289L25.1383 22.8295C24.9122 23.0718 24.675 23.3035 24.421 23.5467L24.4208 23.547C24.4 23.5672 24.3791 23.5874 24.3582 23.6077Z" fill="black" stroke="black" stroke-width="0.1"/>
</svg>
