<svg width="37" height="36" viewBox="0 0 37 36" fill="none" xmlns="http://www.w3.org/2000/svg">
<g id="telegram (7) 1">
<g id="telegram, social, media, network, chat">
<path id="Vector" d="M34.496 3.19459C34.1027 2.86419 33.6269 2.64712 33.1195 2.56666C32.6122 2.4862 32.0925 2.54539 31.6163 2.73788L2.55234 14.3711C2.12867 14.5471 1.76664 14.8446 1.51195 15.2262C1.25726 15.6078 1.12134 16.0563 1.12134 16.515C1.12134 16.9738 1.25726 17.4223 1.51195 17.8039C1.76664 18.1854 2.12867 18.483 2.55234 18.659L4.42989 19.4328C4.73945 19.5638 5.08834 19.5665 5.39993 19.4405C5.71152 19.3144 5.96035 19.0698 6.09177 18.7605C6.15624 18.6064 6.18966 18.4411 6.1901 18.2741C6.19055 18.1071 6.15802 17.9417 6.09437 17.7873C6.03072 17.6329 5.93721 17.4925 5.81921 17.3744C5.70121 17.2562 5.56103 17.1625 5.40672 17.0986L4.01124 16.5277L32.5677 5.11019C32.6116 5.08327 32.6621 5.06903 32.7136 5.06903C32.7651 5.06903 32.8156 5.08327 32.8595 5.11019C32.9009 5.14535 32.9322 5.19095 32.95 5.24225C32.9679 5.29356 32.9717 5.34871 32.961 5.40197L27.747 29.734C27.7299 29.8206 27.6905 29.9013 27.6326 29.9681C27.5748 30.0348 27.5005 30.0853 27.4172 30.1146C27.3354 30.147 27.2464 30.1571 27.1595 30.1437C27.0725 30.1303 26.9907 30.094 26.9224 30.0385L16.7735 22.1223L26.7067 12.0876C26.9189 11.8674 27.0445 11.578 27.0603 11.2727C27.076 10.9673 26.981 10.6665 26.7927 10.4257C26.6043 10.1848 26.3353 10.0201 26.0351 9.96182C25.7349 9.90355 25.4238 9.95565 25.159 10.1085L10.5953 18.7351C10.4336 18.8082 10.289 18.9144 10.1709 19.0469C10.0527 19.1794 9.96373 19.3353 9.90961 19.5043C9.85548 19.6734 9.83744 19.8519 9.85664 20.0284C9.87584 20.2048 9.93187 20.3753 10.0211 20.5288C10.1103 20.6822 10.2307 20.8153 10.3746 20.9192C10.5184 21.0232 10.6825 21.0959 10.8562 21.1325C11.0299 21.1691 11.2094 21.1688 11.3829 21.1317C11.5565 21.0946 11.7204 21.0215 11.864 20.9171L17.9914 17.3016L15.0101 20.3336C14.7374 20.5898 14.5247 20.9032 14.3874 21.2513C14.25 21.5994 14.1913 21.9736 14.2156 22.3471C14.2398 22.7205 14.3464 23.0839 14.5276 23.4114C14.7089 23.7388 14.9603 24.0221 15.2638 24.2409L25.4128 32.0429C25.9469 32.4551 26.6029 32.6782 27.2776 32.6772C27.6369 32.6746 27.9931 32.6102 28.3306 32.4869C28.8152 32.3129 29.247 32.0174 29.5846 31.6287C29.9223 31.2399 30.1544 30.771 30.2589 30.2668L35.4348 5.96016C35.5447 5.4574 35.5153 4.93418 35.3499 4.44686C35.1845 3.95954 34.8893 3.52658 34.496 3.19459Z" fill="white"/>
</g>
</g>
</svg>
