<svg width="37" height="36" viewBox="0 0 37 36" fill="none" xmlns="http://www.w3.org/2000/svg">
<g id="vk (5) 1" clip-path="url(#clip0_94_11116)">
<path id="Vector" d="M18.7175 29.25C23.9255 29.25 22.0685 25.953 22.4705 25.005C22.4645 24.297 22.4585 23.616 22.4825 23.202C22.8125 23.295 23.591 23.6895 25.199 25.2525C27.6815 27.7575 28.316 29.25 30.3215 29.25H34.013C35.183 29.25 35.792 28.7655 36.0965 28.359C36.3905 27.966 36.6785 27.276 36.3635 26.202C35.54 23.616 30.737 19.1505 30.4385 18.6795C30.4835 18.5925 30.5555 18.477 30.593 18.417H30.59C31.538 17.1645 35.156 11.7435 35.6885 9.5745C35.69 9.5715 35.6915 9.567 35.6915 9.5625C35.9795 8.5725 35.7155 7.9305 35.4425 7.5675C35.0315 7.0245 34.3775 6.75 33.494 6.75H29.8025C28.5665 6.75 27.629 7.3725 27.155 8.508C26.3615 10.5255 24.1325 14.6745 22.4615 16.143C22.4105 14.0625 22.445 12.474 22.472 11.2935C22.526 8.991 22.7 6.75 20.3105 6.75H14.5085C13.0115 6.75 11.579 8.385 13.13 10.326C14.486 12.027 13.6175 12.975 13.91 17.694C12.77 16.4715 10.742 13.17 9.308 8.9505C8.906 7.809 8.297 6.7515 6.5825 6.7515H2.891C1.394 6.7515 0.5 7.5675 0.5 8.934C0.5 12.003 7.2935 29.25 18.7175 29.25ZM6.5825 9.0015C6.908 9.0015 6.941 9.0015 7.1825 9.687C8.651 14.0115 11.945 20.4105 14.351 20.4105C16.1585 20.4105 16.1585 18.558 16.1585 17.8605L16.157 12.3075C16.058 10.47 15.389 9.555 14.9495 9L20.2115 9.006C20.2145 9.0315 20.1815 15.1485 20.2265 16.6305C20.2265 18.735 21.8975 19.941 24.506 17.301C27.2585 14.1945 29.162 9.5505 29.2385 9.3615C29.351 9.0915 29.4485 9 29.8025 9H33.494H33.509C33.5075 9.0045 33.5075 9.009 33.506 9.0135C33.1685 10.5885 29.837 15.6075 28.7225 17.166C28.7045 17.19 28.688 17.2155 28.6715 17.241C28.181 18.042 27.782 18.927 28.739 20.172C28.826 20.277 29.054 20.523 29.384 20.865C30.41 21.924 33.929 25.545 34.241 26.985C34.034 27.018 33.809 26.994 30.3215 27.0015C29.579 27.0015 28.9985 25.8915 26.783 23.6565C24.791 21.7185 23.498 20.9265 22.3205 20.9265C20.0345 20.9265 20.201 22.782 20.222 25.026C20.2295 27.459 20.2145 26.6895 20.231 26.8425C20.0975 26.895 19.715 27 18.7175 27C9.2 27 3.002 11.8935 2.7635 9.006C2.846 8.9985 3.9815 9.003 6.5825 9.0015Z" fill="white"/>
</g>
<defs>
<clipPath id="clip0_94_11116">
<rect width="36" height="36" fill="white" transform="translate(0.5)"/>
</clipPath>
</defs>
</svg>
