<svg width="28" height="28" viewBox="0 0 28 28" fill="none" xmlns="http://www.w3.org/2000/svg">
<g id="whatsapp (6) 1" clip-path="url(#clip0_115_2480)">
<g id="Group">
<path id="Vector" d="M23.8994 4.10047C21.2551 1.45622 17.7394 0 13.9999 0C13.9997 0 14 0 13.9998 0C10.2606 0 6.74461 1.45638 4.10047 4.10047C1.45627 6.74472 0 10.2604 0 14C0.000109375 16.3805 0.605937 18.7202 1.75503 20.7896L0.0302969 26.9587C-0.0494375 27.2441 0.0308438 27.5502 0.240297 27.7596C0.44975 27.9691 0.755781 28.0493 1.04125 27.9696L7.2106 26.2449C9.27976 27.3941 11.6193 27.9999 13.9999 28C17.7395 28 21.2552 26.5437 23.8995 23.8995C26.5438 21.2552 28 17.7395 28 13.9999C27.9999 10.2604 26.5436 6.74472 23.8994 4.10047ZM13.9999 26.3594C11.7935 26.3593 9.62768 25.7702 7.73648 24.6558C7.60911 24.5807 7.46517 24.5422 7.32003 24.5422C7.24598 24.5422 7.17172 24.5522 7.09915 24.5725L2.0026 25.9973L3.42743 20.901C3.48753 20.686 3.45745 20.456 3.3442 20.2637C2.22977 18.3722 1.64073 16.2063 1.64062 13.9999C1.64062 10.6986 2.92622 7.59495 5.26061 5.26055C7.595 2.92616 10.6987 1.64062 13.9999 1.64062C20.8147 1.64062 26.3592 7.18501 26.3594 13.9999C26.3594 20.8149 20.8149 26.3594 13.9999 26.3594Z" fill="black"/>
<path id="Vector_2" d="M20.0434 15.0489C19.542 14.5474 18.8733 14.2713 18.1606 14.2713C17.4479 14.2713 16.7793 14.5474 16.278 15.0489L15.8977 15.4291C15.8039 15.5228 15.6779 15.5745 15.5428 15.5745C15.4077 15.5745 15.2817 15.5228 15.1877 15.4289L12.5696 12.8109C12.4759 12.7172 12.4242 12.591 12.4242 12.4559C12.4242 12.3208 12.4758 12.1948 12.5694 12.1011L12.9498 11.7208C13.988 10.6826 13.988 8.99343 12.9499 7.9553L12.1891 7.19432C11.6876 6.693 11.019 6.41699 10.3064 6.41699C9.59372 6.41699 8.92511 6.69305 8.42363 7.19454L7.85641 7.76187C6.65716 8.96111 6.22185 10.747 6.63053 12.7907C7.01515 14.7137 8.11453 16.6605 9.72623 18.2723C11.7573 20.3031 14.344 21.5157 16.6458 21.5158H16.6463C18.0966 21.5158 19.3383 21.0409 20.2368 20.1425L20.8041 19.5752C21.8422 18.5371 21.8422 16.8478 20.8041 15.8095L20.0434 15.0489ZM19.644 18.4151L19.0768 18.9824C18.4926 19.5665 17.6523 19.8752 16.6463 19.8752H16.6461C14.7696 19.8751 12.6165 18.8422 10.8864 17.1123C9.50119 15.7269 8.56111 14.0779 8.23938 12.4689C7.94172 10.9805 8.21773 9.72088 9.0166 8.92195L9.58377 8.35468C9.77534 8.16316 10.0319 8.05767 10.3064 8.05767C10.581 8.05767 10.8377 8.16316 11.0292 8.35457L11.7898 9.11538C12.1883 9.51389 12.1883 10.1622 11.7899 10.5607L11.4095 10.941C11.0058 11.3446 10.7836 11.8827 10.7836 12.4562C10.7837 13.0295 11.006 13.5676 11.4096 13.9711L14.0277 16.5891C14.4314 16.9929 14.9695 17.2153 15.5429 17.2153C16.1162 17.2153 16.6542 16.993 17.0578 16.5894L17.4382 16.2091C17.6297 16.0175 17.8863 15.912 18.1607 15.912C18.4352 15.912 18.6918 16.0175 18.8834 16.2091L19.644 16.9698C20.0425 17.3682 20.0425 18.0166 19.644 18.4151Z" fill="black"/>
</g>
</g>
<defs>
<clipPath id="clip0_115_2480">
<rect width="28" height="28" fill="white"/>
</clipPath>
</defs>
</svg>
