<svg width="33" height="33" viewBox="0 0 33 33" fill="none" xmlns="http://www.w3.org/2000/svg">
<path d="M13.2184 0.651042C13.4775 0.594122 14.0338 0.492932 14.4509 0.429688C14.8681 0.366443 15.399 0.309524 16.0627 0.296875V1.25819C16.0627 1.78944 16.0311 2.78237 15.9995 3.45908C15.9679 4.13579 15.9047 5.02121 15.8731 5.41965C15.8352 5.81808 15.7593 6.46317 15.7088 6.84264C15.6519 7.22843 15.5571 7.81027 15.4875 8.13914C15.418 8.46801 15.2663 9.06883 15.1399 9.46727C15.0135 9.86571 14.7796 10.4792 14.609 10.827C14.4446 11.1749 14.1223 11.7124 13.9074 12.0223C13.6861 12.3322 13.2753 12.8002 12.9972 13.0659C12.7191 13.3315 12.245 13.7046 11.9543 13.9007C11.6572 14.0967 11.24 14.3497 11.0188 14.4572C10.8039 14.5647 10.2919 14.7671 9.88739 14.9063C9.47655 15.0454 8.81288 15.2288 8.41467 15.3173C8.01647 15.3996 7.37176 15.5071 6.99252 15.564C6.61328 15.6146 5.96857 15.6905 5.57036 15.7284C5.17216 15.7601 4.28726 15.8233 3.61095 15.8549C2.93463 15.8865 1.94229 15.9182 0.450603 15.9182L0.488527 15.3679C0.507489 15.058 0.564375 14.5141 0.614941 14.1473C0.671827 13.7805 0.766637 13.2113 0.842486 12.8825C0.912013 12.5536 1.10795 11.8579 1.27861 11.333C1.46191 10.7827 1.80323 9.96057 2.09398 9.3724C2.36577 8.81586 2.79558 8.0506 3.04209 7.66481C3.29491 7.28535 3.70576 6.71615 3.95227 6.39993C4.20509 6.09003 4.6349 5.59041 4.91301 5.29948C5.1848 5.00224 5.72838 4.49628 6.10762 4.16741C6.48686 3.83854 7.18846 3.31362 7.65619 3.00372C8.12392 2.69383 8.83816 2.27642 9.23636 2.07403C9.63457 1.86533 10.2919 1.57441 10.6901 1.4163C11.0883 1.25819 11.7141 1.04316 12.0807 0.93564C12.4473 0.83445 12.9593 0.701637 13.2184 0.651042Z" fill="black"/>
<path d="M17.1372 3.33259C17.1056 2.58631 17.074 1.59338 17.074 1.13802V0.296875H17.4027C17.586 0.296875 18.1296 0.353795 18.6099 0.423363C19.084 0.492932 19.754 0.606771 20.089 0.682664C20.4303 0.752232 21.1319 0.954614 21.6565 1.12537C22.1938 1.30878 23.0408 1.65662 23.6159 1.9349C24.1722 2.20685 24.9686 2.65588 25.3857 2.93415C25.8029 3.21243 26.3718 3.61719 26.6499 3.83854C26.928 4.0599 27.5411 4.62277 28.0088 5.0971C28.4955 5.58408 29.1276 6.30506 29.4626 6.7541C29.7913 7.19681 30.2716 7.90514 30.5181 8.3352C30.771 8.76526 31.1312 9.47359 31.3209 9.90998C31.5042 10.3464 31.7507 10.9725 31.8644 11.3013C31.9719 11.6302 32.1425 12.2437 32.2437 12.6611C32.3448 13.0785 32.4712 13.7173 32.5218 14.0841C32.5724 14.4509 32.6356 15.0201 32.7051 15.9498L30.9732 15.9055C30.0188 15.8802 28.8431 15.8296 28.3565 15.7917C27.8698 15.7537 27.0228 15.6715 26.4729 15.6019C25.9293 15.5324 25.1455 15.4059 24.7347 15.3173C24.3302 15.2288 23.6855 15.0517 23.2999 14.9252C22.9143 14.7924 22.3328 14.5521 22.0042 14.3813C21.6755 14.2169 21.2204 13.945 20.9928 13.7805C20.7653 13.6161 20.3861 13.2999 20.1459 13.0722C19.9057 12.8445 19.5454 12.4334 19.3368 12.1551C19.1346 11.8769 18.8122 11.3519 18.6289 10.9851C18.4393 10.6183 18.2117 10.106 18.1233 9.84673C18.0284 9.58743 17.8831 9.10045 17.8009 8.77158C17.7187 8.44271 17.5923 7.82925 17.5228 7.41184C17.4533 6.99442 17.3521 6.2102 17.3016 5.67262C17.2447 5.13505 17.1751 4.07887 17.1372 3.33259Z" fill="black"/>
<path d="M0.614941 18.7009C0.564375 18.3404 0.501168 17.7902 0.475885 17.4866L0.431641 16.9364H1.27861C1.74634 16.9364 2.73869 16.9617 3.48453 16.9996C4.23038 17.0313 5.28593 17.1072 5.82319 17.1578C6.36045 17.2083 7.14421 17.3095 7.56138 17.3791C7.97855 17.4487 8.64854 17.5941 9.04674 17.6953C9.44495 17.8028 10.0581 17.9989 10.4057 18.1444C10.7533 18.2835 11.2211 18.5049 11.4486 18.6377C11.6762 18.7705 12.087 19.0487 12.3651 19.2575C12.6432 19.4662 13.0667 19.8456 13.3006 20.1049C13.5408 20.3579 13.8631 20.769 14.0274 21.0156C14.1855 21.256 14.4446 21.6987 14.59 21.9896C14.7354 22.2868 14.9692 22.8687 15.1083 23.2924C15.241 23.7098 15.4117 24.3486 15.4875 24.7091C15.5571 25.0759 15.6582 25.6767 15.7151 26.0435C15.7656 26.404 15.8352 27.0302 15.8731 27.4286C15.9047 27.8334 15.9679 28.7124 15.9995 29.3955C16.0311 30.0722 16.0627 31.0651 16.0627 32.5893L15.4812 32.5324C15.1589 32.5071 14.5963 32.4438 14.2297 32.3869C13.8631 32.3363 13.2247 32.2098 12.8076 32.115C12.3904 32.0138 11.7078 31.8114 11.2906 31.6659C10.8734 31.5205 10.2603 31.2802 9.93164 31.1284C9.60296 30.9766 9.09099 30.7236 8.79391 30.5592C8.49684 30.3947 8.05439 30.1354 7.81421 29.9773C7.5677 29.8192 7.09997 29.4904 6.77129 29.2437C6.44262 28.997 5.82319 28.4531 5.39338 28.0294C4.95726 27.612 4.36311 26.9732 4.07236 26.6064C3.78161 26.2459 3.35812 25.6767 3.14322 25.3415C2.92199 25.0127 2.59964 24.4877 2.42898 24.1715C2.252 23.8616 1.99285 23.3367 1.84115 23.0015C1.69578 22.6726 1.43663 21.9896 1.27229 21.4836C1.10163 20.984 0.912013 20.301 0.842486 19.9658C0.766637 19.6369 0.671827 19.0677 0.614941 18.7009Z" fill="black"/>
<path d="M27.3451 17.1514C27.9014 17.0945 28.8431 17.0313 29.431 16.9996C30.0251 16.9743 30.9985 16.9427 32.6861 16.9301V17.1704C32.6861 17.2969 32.6419 17.7775 32.5913 18.2266C32.5344 18.6756 32.4396 19.3207 32.3701 19.6496C32.3006 19.9784 32.1742 20.5097 32.0857 20.8196C31.9972 21.1295 31.8076 21.6987 31.6685 22.0845C31.5231 22.4703 31.226 23.1533 31.0048 23.6023C30.7836 24.0514 30.3791 24.766 30.1073 25.1834C29.8355 25.6008 29.3804 26.227 29.1023 26.5748C28.8242 26.9226 28.23 27.5614 27.7813 27.9978C27.3325 28.4342 26.6941 28.9907 26.3654 29.2374C26.0368 29.484 25.5248 29.8445 25.2277 30.0343C24.9306 30.224 24.4187 30.5276 24.09 30.7046C23.7613 30.8817 23.104 31.179 22.6362 31.3687C22.1685 31.5584 21.5301 31.7861 21.2141 31.8747C20.9044 31.9695 20.405 32.096 20.108 32.1656C19.8109 32.2351 19.2736 32.33 18.907 32.3869C18.5404 32.4375 17.9716 32.5008 17.0424 32.5703L17.093 30.9007C17.1183 29.9837 17.1688 28.8326 17.2004 28.3456C17.2384 27.8587 17.3079 27.0744 17.3648 26.6064C17.4217 26.1384 17.5165 25.4554 17.5797 25.0886C17.6492 24.7217 17.8009 24.0703 17.9273 23.6339C18.0537 23.1976 18.3129 22.5145 18.5025 22.1161C18.6984 21.7177 19.0018 21.1738 19.1788 20.9144C19.3621 20.6551 19.735 20.2124 20.0131 19.9342C20.2913 19.6496 20.7337 19.2701 20.9928 19.0867C21.252 18.9033 21.7134 18.625 22.0231 18.4732C22.3265 18.3214 22.7626 18.1254 23.0028 18.0305C23.2367 17.942 23.7423 17.7902 24.1216 17.689C24.5072 17.5878 25.1582 17.4487 25.5753 17.3791C25.9925 17.3095 26.7889 17.2083 27.3451 17.1514Z" fill="black"/>
</svg>
