<svg width="37" height="37" viewBox="0 0 37 37" fill="none" xmlns="http://www.w3.org/2000/svg">
<path d="M11.2215 0.738281H26.3901C32.1685 0.738281 36.8636 5.4333 36.8636 11.2118V26.3803C36.8636 29.158 35.7601 31.822 33.7959 33.7862C31.8318 35.7503 29.1678 36.8538 26.3901 36.8538H11.2215C5.44306 36.8538 0.748047 32.1588 0.748047 26.3803V11.2118C0.748047 8.43403 1.8515 5.77006 3.81566 3.8059C5.77983 1.84174 8.4438 0.738281 11.2215 0.738281ZM10.8604 4.34983C9.13627 4.34983 7.48277 5.03474 6.26364 6.25387C5.0445 7.473 4.3596 9.12651 4.3596 10.8506V26.7414C4.3596 30.3349 7.2669 33.2422 10.8604 33.2422H26.7512C28.4753 33.2422 30.1288 32.5573 31.348 31.3382C32.5671 30.1191 33.252 28.4656 33.252 26.7414V10.8506C33.252 7.25713 30.3447 4.34983 26.7512 4.34983H10.8604ZM28.2861 7.0585C28.8848 7.0585 29.4589 7.29631 29.8822 7.71962C30.3055 8.14293 30.5433 8.71706 30.5433 9.31571C30.5433 9.91437 30.3055 10.4885 29.8822 10.9118C29.4589 11.3351 28.8848 11.5729 28.2861 11.5729C27.6875 11.5729 27.1133 11.3351 26.69 10.9118C26.2667 10.4885 26.0289 9.91437 26.0289 9.31571C26.0289 8.71706 26.2667 8.14293 26.69 7.71962C27.1133 7.29631 27.6875 7.0585 28.2861 7.0585ZM18.8058 9.76716C21.2004 9.76716 23.4969 10.7184 25.1902 12.4117C26.8834 14.1049 27.8347 16.4014 27.8347 18.796C27.8347 21.1906 26.8834 23.4872 25.1902 25.1804C23.4969 26.8737 21.2004 27.8249 18.8058 27.8249C16.4112 27.8249 14.1147 26.8737 12.4214 25.1804C10.7282 23.4872 9.77693 21.1906 9.77693 18.796C9.77693 16.4014 10.7282 14.1049 12.4214 12.4117C14.1147 10.7184 16.4112 9.76716 18.8058 9.76716ZM18.8058 13.3787C17.369 13.3787 15.9911 13.9495 14.9752 14.9654C13.9592 15.9814 13.3885 17.3593 13.3885 18.796C13.3885 20.2328 13.9592 21.6107 14.9752 22.6267C15.9911 23.6426 17.369 24.2134 18.8058 24.2134C20.2426 24.2134 21.6205 23.6426 22.6364 22.6267C23.6524 21.6107 24.2231 20.2328 24.2231 18.796C24.2231 17.3593 23.6524 15.9814 22.6364 14.9654C21.6205 13.9495 20.2426 13.3787 18.8058 13.3787Z" fill="black"/>
</svg>
