<svg width="665" height="244" viewBox="0 0 665 244" fill="none" xmlns="http://www.w3.org/2000/svg">
<path fill-rule="evenodd" clip-rule="evenodd" d="M68.432 131.012L76.501 151.761C80.9495 163.159 84.8135 173.112 85.0895 173.875C85.3655 174.638 85.7551 175.986 85.9824 176.879C86.1935 177.772 86.3721 178.892 86.3721 180.207C87.0377 180.158 89.3594 180.012 91.2427 179.882V183.13L74.7638 183.048V180.792L75.9003 180.613C76.5334 180.516 77.3127 180.256 77.6699 180.028C78.1083 179.769 78.433 179.379 78.6927 178.827C78.8876 178.389 79.0662 177.723 79.0662 177.366C79.0662 177.009 78.9525 176.245 78.8064 175.661C78.6765 175.076 78.3843 174.102 78.157 173.469C77.9297 172.852 77.2965 171.147 75.7379 167.04L73.7085 167.072C72.5883 167.072 68.3995 167.169 57.0673 167.462L55.1028 173.307C54.0312 176.521 53.0571 179.347 52.9597 179.606C52.8461 179.85 52.7649 180.077 52.7649 180.126C52.7649 180.175 53.3331 180.175 54.0312 180.126C54.7131 180.093 55.9633 180.012 58.2849 179.882V183.13H47.0825C35.9775 183.13 35.8801 183.13 35.1982 182.789C34.8086 182.594 33.9156 181.847 33.2013 181.116C32.4869 180.402 31.3505 179.152 30.6848 178.34C30.0192 177.544 28.1196 175.06 26.4636 172.82C24.8239 170.595 22.5347 167.478 21.3657 165.919C20.213 164.361 18.6382 162.315 17.8589 161.373C17.0796 160.431 16.0892 159.392 14.8553 158.467L11.2024 158.451V168.079C11.2024 173.355 11.1537 178.259 10.9589 180.24L12.1765 180.142C12.8422 180.093 14.0273 180.012 16.2354 179.882V183.13H0V180.775L1.00659 180.597C1.57483 180.499 2.37036 180.256 2.77625 180.045C3.19836 179.85 3.73413 179.411 3.96143 179.087C4.18872 178.762 4.46472 178.242 4.57837 177.934C4.72449 177.512 4.80566 172.316 4.87061 156.665C4.93555 143.919 5.01672 135.85 5.11414 135.655C5.27649 135.347 5.21155 135.347 0 135.558V132.473H16.2354V134.746L15.4723 134.843C15.0339 134.892 14.4332 135.006 14.1248 135.103C13.8163 135.184 13.2968 135.428 12.9883 135.623C12.6798 135.834 12.2252 136.353 11.9817 136.792C11.6407 137.376 11.4946 137.977 11.3647 139.048C11.2836 139.86 11.2024 143.887 11.2024 155.528H16.6412L19.7909 150.544C21.5281 147.783 23.801 144.228 24.8401 142.62C25.8629 141.013 27.1455 139.146 27.6813 138.48C28.2008 137.814 29.045 136.84 29.5483 136.321C30.0354 135.801 30.3763 135.379 30.2789 135.363C30.1978 135.347 29.2723 135.33 26.3824 135.314L26.3013 132.473H41.8872V134.746L41.3677 134.811C41.0754 134.86 40.1338 135.006 39.2896 135.152C38.4453 135.298 37.2439 135.59 36.6107 135.785C35.9938 135.98 34.9222 136.467 34.2566 136.857C33.4448 137.327 32.5032 138.107 31.4154 139.195C30.2789 140.331 29.3535 141.484 28.3956 142.945C27.6163 144.114 25.5057 147.426 23.7036 150.333C21.8853 153.239 20.3916 155.69 20.3591 155.772C20.3267 155.869 20.83 156.307 21.4794 156.746C22.1125 157.2 23.0704 158.077 23.59 158.694C24.1257 159.327 27.0806 163.192 30.1653 167.299C33.2662 171.407 36.2373 175.288 36.7568 175.904C37.2926 176.538 38.1693 177.479 38.7213 177.999C39.2571 178.535 40.1338 179.249 40.6696 179.59C41.2703 179.98 42.0658 180.304 42.7477 180.451C43.3484 180.58 44.2576 180.694 44.7771 180.694C45.2804 180.694 46.0922 180.58 46.563 180.451C47.1475 180.288 47.6183 179.996 48.1053 179.525C48.495 179.135 48.9983 178.502 49.2418 178.096C49.4691 177.69 50.151 176.083 50.7517 174.524C51.3362 172.966 52.2778 170.4 52.8461 168.842C53.4143 167.283 54.6644 163.89 55.6061 161.292C56.564 158.71 58.0739 154.57 58.9668 152.119C59.8597 149.667 61.2397 145.9 62.019 143.757C62.8146 141.614 64.1621 137.928 65.0226 135.558C65.8831 133.187 66.6299 131.206 66.6624 131.141C66.7111 131.06 67.1169 131.012 68.432 131.012ZM64.4381 146.517C63.74 148.4 62.5386 151.713 61.7755 153.905C60.9962 156.096 59.8597 159.327 59.2428 161.097L58.1226 164.296C70.9647 164.296 74.6826 164.263 74.6826 164.214C74.6826 164.166 74.3254 163.159 73.8871 161.99C73.4487 160.805 72.8318 159.133 72.5233 158.288C72.1986 157.444 71.3706 155.171 70.6562 153.255C69.9419 151.339 68.7242 147.995 67.9287 145.835C67.1332 143.66 66.4026 141.89 66.3052 141.89C66.2078 141.89 66.0292 142.166 65.9155 142.507C65.8019 142.831 65.1362 144.65 64.4381 146.517ZM617.268 132.473H625.873L628.194 135.59C629.461 137.311 631.718 140.364 633.211 142.377C634.721 144.39 637.351 147.93 639.088 150.251C640.809 152.573 644.3 157.249 646.816 160.643C649.349 164.036 652.483 168.257 653.781 170.011C655.08 171.78 656.233 173.209 656.314 173.226C656.428 173.226 656.525 166.91 656.606 154.846C656.671 144.731 656.785 136.207 656.964 135.347L651.687 135.558V132.473H665V134.746L664.237 134.843C663.799 134.892 663.117 135.038 662.695 135.168C662.143 135.33 661.737 135.606 661.315 136.093C660.974 136.483 660.6 137.116 660.47 137.522C660.292 138.107 660.227 141.646 660.129 157.152C660.064 167.559 660 177.918 659.967 184.266H656.558L655.908 183.422C655.551 182.951 654.366 181.36 653.262 179.882C652.174 178.405 650.664 176.359 649.901 175.336C649.154 174.313 647.255 171.748 645.696 169.654C644.138 167.559 642.384 165.189 641.783 164.377C641.183 163.581 637.936 159.197 634.559 154.635C631.182 150.089 627.74 145.429 626.896 144.293C626.068 143.14 625.353 142.214 625.305 142.214C625.256 142.214 625.24 150.771 625.305 180.223L626.441 180.142C627.074 180.093 628.211 180.012 630.419 179.882V183.13H617.268V180.775L618.112 180.678C618.583 180.613 619.281 180.418 619.671 180.223C620.044 180.045 620.531 179.639 620.742 179.363C620.953 179.071 621.229 178.616 621.376 178.34C621.505 178.08 621.684 177.382 621.798 176.797C621.928 176.051 621.976 169.719 621.976 135.395L617.268 135.558V132.473ZM296.701 222.113C297.594 222.113 298.844 222.21 299.461 222.34C300.094 222.47 301.214 222.876 301.978 223.249C303.065 223.785 303.65 224.223 304.673 225.246C305.728 226.301 306.118 226.837 306.653 227.941C307.01 228.704 307.433 229.89 307.562 230.588C307.709 231.27 307.822 232.276 307.822 232.812C307.822 233.348 307.709 234.355 307.562 235.053C307.433 235.735 307.01 236.92 306.653 237.683C306.118 238.787 305.728 239.323 304.673 240.362C303.796 241.239 302.984 241.872 302.221 242.262C301.604 242.586 300.727 242.944 300.273 243.057C299.834 243.155 299.396 243.317 299.299 243.382C299.218 243.463 298.097 243.528 296.782 243.528C295.483 243.528 294.363 243.463 294.266 243.398C294.185 243.317 293.762 243.171 293.34 243.057C292.902 242.96 292.139 242.668 291.636 242.408C291.116 242.148 290.223 241.58 289.655 241.158C289.087 240.719 288.291 239.924 287.885 239.388C287.479 238.852 286.944 237.943 286.668 237.358C286.408 236.774 286.099 235.767 285.969 235.134C285.84 234.484 285.742 233.445 285.742 232.812C285.742 232.195 285.84 231.14 285.969 230.507C286.099 229.857 286.408 228.851 286.668 228.266C286.944 227.682 287.512 226.74 287.95 226.172C288.389 225.603 289.152 224.824 289.639 224.434C290.126 224.061 291.084 223.493 291.749 223.168C292.415 222.843 293.438 222.486 294.022 222.356C294.607 222.226 295.808 222.113 296.701 222.113ZM292.318 225.149C291.879 225.392 291.019 226.058 290.434 226.642C289.72 227.357 289.2 228.039 288.876 228.753C288.6 229.338 288.291 230.214 288.161 230.701C288.048 231.189 287.966 232.146 287.966 232.812C287.966 233.478 288.048 234.436 288.161 234.923C288.291 235.41 288.583 236.254 288.843 236.79C289.087 237.326 289.655 238.154 290.077 238.641C290.499 239.128 291.295 239.81 291.83 240.151C292.366 240.492 293.275 240.946 293.86 241.141C294.737 241.434 295.256 241.499 296.863 241.482C298.601 241.482 298.942 241.434 299.948 241.028C300.581 240.784 301.474 240.313 301.961 239.989C302.448 239.664 303.098 239.096 303.39 238.738C303.698 238.381 304.202 237.651 304.51 237.115C304.802 236.579 305.16 235.637 305.306 235.004C305.436 234.387 305.549 233.397 305.549 232.812C305.549 232.228 305.436 231.254 305.306 230.62C305.16 230.003 304.786 229.013 304.462 228.428C304.137 227.844 303.455 226.967 302.968 226.48C302.465 225.977 301.588 225.344 301.003 225.051C300.419 224.759 299.445 224.418 298.812 224.288C298.195 224.158 297.204 224.061 296.62 224.061C296.035 224.061 295.013 224.207 294.347 224.386C293.681 224.564 292.772 224.905 292.318 225.149ZM319.349 222.161C321.054 222.21 321.801 222.307 322.678 222.583C323.311 222.778 324.155 223.119 324.593 223.33C325.016 223.541 325.389 223.801 325.438 223.882C325.486 223.98 325.356 224.418 325.162 224.856C324.951 225.311 324.756 225.652 324.707 225.62C324.658 225.603 324.155 225.344 323.571 225.051C322.986 224.775 322.044 224.418 321.46 224.272C320.843 224.11 319.804 223.996 318.943 223.996C318.115 223.996 317.093 224.11 316.589 224.256C316.102 224.402 315.437 224.678 315.144 224.889C314.836 225.1 314.365 225.555 314.122 225.912C313.862 226.269 313.618 226.853 313.553 227.211C313.505 227.568 313.505 228.136 313.57 228.477C313.618 228.818 313.894 229.321 314.203 229.662C314.479 229.987 315.015 230.425 315.372 230.62C315.729 230.831 317.499 231.416 319.317 231.903C321.119 232.406 323.019 233.023 323.538 233.283C324.041 233.543 324.804 234.111 325.21 234.533C325.616 234.972 326.055 235.621 326.168 235.978C326.298 236.335 326.396 237.18 326.396 237.845C326.379 238.738 326.298 239.274 326.022 239.875C325.827 240.33 325.389 240.963 325.064 241.32C324.74 241.661 324.204 242.099 323.895 242.31C323.587 242.505 322.759 242.862 322.077 243.106C320.94 243.479 320.567 243.528 318.505 243.528C317.223 243.528 316.119 243.479 316.021 243.398C315.94 243.317 315.453 243.171 314.966 243.057C314.479 242.944 313.57 242.603 312.936 242.294C312.319 242.002 311.589 241.531 310.826 240.768L311.232 239.956C311.459 239.501 311.67 239.144 311.719 239.144C311.767 239.144 311.979 239.323 312.206 239.55C312.433 239.761 313.147 240.2 313.797 240.508C314.43 240.833 315.453 241.206 316.07 241.352C316.849 241.531 317.71 241.596 319.106 241.547C320.746 241.499 321.2 241.417 321.931 241.093C322.418 240.865 323.083 240.378 323.424 240.005C323.83 239.566 324.09 239.079 324.155 238.706C324.22 238.365 324.22 237.764 324.171 237.358C324.106 236.887 323.895 236.417 323.603 236.059C323.343 235.751 322.743 235.296 322.255 235.053C321.768 234.809 320.681 234.42 319.836 234.192C318.992 233.965 317.742 233.624 317.076 233.445C316.411 233.251 315.355 232.893 314.722 232.634C313.975 232.341 313.31 231.903 312.774 231.383C312.238 230.88 311.865 230.328 311.67 229.809C311.524 229.354 311.394 228.526 311.394 227.941C311.394 227.357 311.524 226.496 311.67 226.009C311.849 225.473 312.238 224.808 312.628 224.386C312.985 223.98 313.716 223.411 314.251 223.119C314.771 222.827 315.648 222.486 316.183 222.356C316.898 222.177 317.758 222.113 319.349 222.161ZM340.374 222.113C341.267 222.113 342.517 222.21 343.134 222.34C343.767 222.47 344.79 222.827 345.407 223.135C346.04 223.444 346.917 224.012 348.167 225.165L346.868 226.513L345.813 225.749C345.229 225.344 344.352 224.856 343.865 224.678C343.378 224.499 342.566 224.272 342.079 224.175C341.592 224.077 340.601 224.045 339.887 224.093C339.14 224.142 338.134 224.353 337.533 224.564C336.948 224.775 336.12 225.165 335.666 225.425C335.228 225.684 334.464 226.301 333.994 226.789C333.507 227.292 332.906 228.136 332.646 228.672C332.386 229.208 332.062 230.052 331.932 230.539C331.802 231.026 331.688 232.049 331.688 232.812C331.688 233.575 331.802 234.598 331.932 235.085C332.062 235.572 332.386 236.417 332.646 236.952C332.906 237.504 333.539 238.349 334.075 238.901C334.627 239.453 335.52 240.135 336.169 240.476C336.786 240.817 337.809 241.19 338.426 241.32C339.059 241.466 339.968 241.58 340.455 241.58C340.942 241.58 341.787 241.499 342.322 241.401C342.858 241.304 343.735 241.028 344.271 240.784C344.806 240.524 345.553 240.07 345.943 239.745C346.316 239.404 346.673 239.144 346.755 239.144C346.82 239.144 347.161 239.437 348.167 240.443L347.761 240.865C347.534 241.093 346.917 241.563 346.381 241.921C345.845 242.262 344.936 242.7 344.352 242.895C343.767 243.073 343.167 243.284 343.021 243.382C342.858 243.463 341.689 243.528 340.423 243.528C339.14 243.528 338.036 243.463 337.939 243.398C337.858 243.317 337.419 243.155 336.965 243.057C336.526 242.944 335.682 242.603 335.098 242.294C334.513 242.002 333.701 241.466 333.296 241.141C332.89 240.8 332.24 240.167 331.867 239.713C331.493 239.274 330.941 238.43 330.649 237.845C330.341 237.261 329.967 236.319 329.805 235.735C329.61 235.02 329.529 234.079 329.529 232.812C329.529 231.546 329.61 230.604 329.805 229.89C329.967 229.305 330.357 228.331 330.682 227.698C331.023 227.081 331.575 226.22 331.932 225.814C332.289 225.392 332.987 224.727 333.474 224.337C333.977 223.947 334.887 223.395 335.504 223.119C336.137 222.827 337.111 222.486 337.695 222.356C338.28 222.226 339.481 222.113 340.374 222.113ZM361.642 222.113C362.535 222.113 363.786 222.21 364.402 222.34C365.036 222.47 366.156 222.892 366.919 223.265C367.958 223.785 368.607 224.256 369.533 225.181C370.475 226.107 370.945 226.724 371.449 227.746C371.806 228.477 372.228 229.532 372.358 230.101C372.488 230.653 372.601 231.87 372.601 232.812C372.601 233.786 372.488 234.972 372.342 235.572C372.212 236.157 371.806 237.18 371.465 237.845C371.108 238.511 370.442 239.501 369.971 240.021C369.5 240.557 368.559 241.352 367.893 241.775C367.227 242.213 366.205 242.716 365.62 242.895C365.036 243.073 364.435 243.284 364.289 243.382C364.126 243.463 362.925 243.528 361.61 243.528C360.279 243.528 359.175 243.496 359.126 243.447C359.077 243.414 358.46 243.171 357.746 242.911C357.032 242.667 355.911 242.099 355.246 241.661C354.58 241.206 353.671 240.443 353.233 239.956C352.794 239.469 352.129 238.414 351.739 237.602C351.349 236.806 350.96 235.751 350.862 235.296C350.765 234.825 350.684 233.705 350.684 232.812C350.684 231.919 350.765 230.799 350.862 230.344C350.96 229.873 351.365 228.786 351.788 227.941C352.372 226.724 352.762 226.155 353.671 225.246C354.564 224.369 355.165 223.931 356.366 223.346C357.21 222.924 358.379 222.47 358.964 222.356C359.548 222.226 360.75 222.113 361.642 222.113ZM358.915 224.499C358.444 224.629 357.649 224.97 357.113 225.246C356.593 225.522 355.749 226.188 355.229 226.724C354.629 227.341 354.077 228.152 353.703 228.915C353.314 229.711 353.054 230.572 352.94 231.432C352.794 232.423 352.794 233.056 352.94 234.111C353.07 235.069 353.298 235.865 353.703 236.709C354.093 237.521 354.623 238.268 355.294 238.949C355.863 239.55 356.723 240.2 357.34 240.524C357.925 240.833 358.915 241.19 359.532 241.32C360.165 241.466 361.107 241.58 361.642 241.58C362.178 241.58 363.136 241.466 363.753 241.32C364.386 241.19 365.36 240.833 365.945 240.524C366.529 240.216 367.406 239.566 367.893 239.096C368.38 238.608 369.046 237.715 369.387 237.099C369.728 236.449 370.085 235.442 370.231 234.728C370.377 234.03 370.491 233.169 370.491 232.812C370.491 232.455 370.377 231.594 370.231 230.913C370.085 230.214 369.728 229.175 369.419 228.591C369.127 228.006 368.542 227.194 368.137 226.772C367.731 226.334 367.016 225.749 366.562 225.441C366.091 225.132 365.23 224.727 364.646 224.532C363.948 224.288 363.071 224.158 362.048 224.126C361.204 224.093 360.344 224.11 360.133 224.158C359.938 224.223 359.386 224.369 358.915 224.499ZM260.788 222.34L261.389 223.395C261.714 223.98 263.711 227.406 265.821 231.026C267.932 234.647 269.718 237.618 269.783 237.651C269.848 237.683 271.26 235.377 272.9 232.536C274.54 229.695 276.374 226.529 276.975 225.506C277.576 224.483 278.241 223.33 278.453 222.941C278.842 222.259 278.842 222.259 280.709 222.259L280.628 243.447H278.68L278.647 235.296C278.615 228.899 278.55 227.13 278.404 227.13C278.29 227.13 277.56 228.201 276.797 229.516C276.033 230.848 274.28 233.868 272.9 236.254C271.276 239.096 270.286 240.638 270.075 240.703C269.896 240.768 269.637 240.768 269.507 240.735C269.377 240.687 267.477 237.618 265.286 233.884C263.094 230.166 261.259 227.13 261.194 227.13C261.113 227.13 261.048 230.799 260.983 243.447L260.253 243.496C259.847 243.528 259.36 243.512 258.792 243.366L258.759 232.926C258.743 227.113 258.808 222.421 258.873 222.356C258.954 222.291 259.425 222.259 260.788 222.34ZM377.066 222.259L379.988 231.042C381.596 235.881 382.992 239.875 383.073 239.907C383.171 239.94 384.356 236.774 385.703 232.861C387.067 228.948 388.447 224.97 389.324 222.259L391.483 222.34L392.473 225.262C393.025 226.87 394.389 230.864 395.509 234.16C396.613 237.439 397.587 240.102 397.669 240.086C397.734 240.053 399.146 236.059 403.757 222.34L404.812 222.307C405.397 222.275 405.884 222.307 405.868 222.389C405.868 222.454 404.276 227.211 398.821 243.447H396.548L394.876 238.576C393.951 235.897 392.603 231.952 391.873 229.825C391.142 227.698 390.476 225.912 390.379 225.879C390.298 225.847 389.713 227.259 389.096 229.029C388.48 230.799 387.148 234.696 386.125 237.683C385.086 240.67 384.177 243.22 384.064 243.333C383.966 243.463 383.511 243.544 382.992 243.544C382.456 243.544 382.034 243.463 381.92 243.333C381.823 243.22 380.199 238.495 378.3 232.861C376.417 227.211 374.874 222.518 374.874 222.421C374.874 222.324 375.345 222.259 377.066 222.259ZM337.289 0.00208981C338.637 -0.0141463 340.488 0.0670311 341.429 0.148212C342.371 0.245629 344.384 0.57035 345.894 0.878837C347.42 1.18732 350.343 1.93419 352.388 2.51869C354.45 3.11943 357.178 3.85005 358.477 4.17477C360.522 4.66186 361.107 4.74304 363.022 4.75928C365.117 4.77551 365.279 4.74304 366.675 4.23972C367.487 3.94747 368.218 3.68769 368.299 3.67146C368.396 3.65522 368.478 3.89876 368.51 4.20725C368.526 4.51573 368.624 5.24636 368.721 5.83086C368.819 6.41536 369.159 7.47071 369.5 8.1851C369.825 8.89949 370.491 10.0685 370.978 10.7829C371.449 11.4973 372.715 12.9585 373.803 14.0464C375.004 15.2316 376.335 16.3844 377.228 16.9689C378.04 17.5047 379.323 18.2028 380.118 18.5113C380.898 18.8198 381.547 19.0958 381.547 19.1445C381.547 19.1932 381.06 19.5179 380.459 19.8751C379.858 20.2323 378.852 20.9954 378.235 21.5799C377.602 22.1644 376.709 23.1548 376.254 23.7718C375.783 24.405 375.069 25.574 374.679 26.3696C374.274 27.1814 373.673 28.6751 373.348 29.698C373.023 30.7209 372.601 32.588 372.39 33.8382C372.082 35.8028 372.033 36.712 372.049 40.495C372.049 43.9858 372.13 45.4146 372.39 47.4766C372.585 48.9054 372.991 51.2434 373.316 52.6721C373.624 54.1009 373.998 55.8869 374.144 56.65C374.274 57.4131 374.452 58.9068 374.533 59.9784C374.614 61.05 374.614 62.8035 374.533 63.8751C374.468 64.9467 374.225 66.7326 373.998 67.8529C373.787 68.9732 373.348 70.5806 373.04 71.4249C372.731 72.2692 372.244 73.4382 371.952 74.0227C371.66 74.6072 371.01 75.695 370.507 76.4581C370.004 77.2212 368.981 78.4551 368.218 79.2182C367.455 79.9813 366.286 80.9555 365.62 81.4101C364.954 81.8485 363.704 82.5142 362.86 82.9038C362.016 83.2773 360.409 83.8131 359.288 84.0891C358.168 84.3651 356.382 84.8522 355.311 85.1444C354.239 85.4529 352.486 86.0212 351.414 86.4108C350.343 86.8005 348.622 87.5311 347.599 88.0345C346.576 88.5378 345.115 89.3658 344.352 89.8691C343.589 90.3887 342.533 91.168 342.014 91.6227C341.494 92.0773 340.618 93.0027 340.066 93.6684C339.514 94.3341 338.783 95.4544 338.426 96.1525C338.069 96.8344 337.728 97.4027 337.663 97.4027C337.582 97.4027 337.208 96.802 336.819 96.0714C336.413 95.3245 335.698 94.2529 335.228 93.6684C334.74 93.0839 333.815 92.1422 333.149 91.5739C332.484 90.9894 331.38 90.1614 330.714 89.723C330.048 89.3009 328.62 88.5053 327.548 87.9857C326.477 87.4824 324.691 86.7193 323.571 86.3134C322.45 85.9075 320.307 85.2581 318.781 84.8522C317.271 84.4463 315.55 84.0079 314.966 83.8618C314.381 83.7156 313.212 83.2773 312.368 82.9038C311.524 82.5142 310.274 81.8485 309.608 81.4101C308.943 80.9717 307.774 79.9813 307.01 79.2182C306.247 78.4551 305.225 77.2049 304.721 76.4581C304.218 75.695 303.585 74.6396 303.309 74.1039C303.049 73.5681 302.562 72.4153 302.237 71.5548C301.913 70.678 301.474 69.0382 301.247 67.9016C301.02 66.7489 300.76 64.9467 300.679 63.8751C300.598 62.7061 300.598 61.1474 300.679 59.9784C300.76 58.9068 301.052 56.9423 301.312 55.5947C301.588 54.2633 301.994 52.2987 302.221 51.2596C302.448 50.2042 302.741 48.3696 302.887 47.2006C303.017 46.0153 303.179 43.4662 303.228 41.5504C303.293 38.8227 303.26 37.5076 303.033 35.543C302.887 34.1629 302.659 32.5556 302.513 31.9711C302.383 31.3866 302.059 30.2176 301.783 29.3733C301.507 28.529 300.955 27.1814 300.565 26.3696C300.159 25.574 299.461 24.405 298.99 23.788C298.536 23.1711 297.643 22.1807 297.01 21.5962C296.376 21.0117 295.37 20.2323 294.769 19.8751C294.168 19.5179 293.681 19.1932 293.681 19.1445C293.681 19.0958 294.298 18.836 295.029 18.5438C295.776 18.2677 297.042 17.6021 297.838 17.0663C298.649 16.5305 299.818 15.6537 300.435 15.0855C301.068 14.5334 301.994 13.5917 302.513 12.991C303.049 12.4065 303.796 11.4486 304.202 10.8641C304.608 10.2796 305.208 9.25669 305.549 8.59101C305.874 7.92533 306.247 7.08105 306.361 6.72385C306.475 6.36666 306.621 5.52238 306.67 4.8567C306.734 4.19101 306.848 3.65522 306.929 3.67146C307.027 3.68769 307.757 3.94747 308.553 4.23972C309.917 4.72681 310.144 4.75928 312.125 4.75928C313.911 4.75928 314.576 4.6781 316.508 4.23972C317.758 3.94747 319.479 3.50909 320.323 3.24932C321.168 2.98954 323.067 2.43751 324.545 2.03161C326.022 1.6257 328.328 1.07367 329.659 0.813896C331.006 0.537881 332.711 0.245631 333.474 0.180686C334.237 0.0995056 335.958 0.018326 337.289 0.00208981ZM331.526 6.09064C330.227 6.33419 327.564 6.98363 325.6 7.53566C323.635 8.10392 321.85 8.63971 321.622 8.72089C321.395 8.80207 320.372 9.04562 319.349 9.25669C318.229 9.46776 316.898 9.61388 316.021 9.61388C315.144 9.61388 314.138 9.50024 313.505 9.33787C312.92 9.17551 312.255 8.9482 312.011 8.81831L311.556 8.59101C311.459 11.0914 311.329 11.8058 310.923 12.9748C310.631 13.819 310.095 15.0368 309.722 15.6537C309.365 16.2869 308.764 17.1962 308.391 17.6833C308.017 18.1703 307.189 19.0633 306.54 19.6803C305.728 20.4434 304.997 20.9467 304.088 21.3851C303.374 21.7098 302.806 22.0183 302.789 22.067C302.789 22.1157 303.163 22.3755 303.617 22.6353C304.072 22.9113 304.851 23.5283 305.338 24.0154C305.842 24.5024 306.523 25.3467 306.881 25.8825C307.222 26.4183 307.725 27.3762 307.985 27.9932C308.228 28.6264 308.602 29.7142 308.78 30.4286C308.975 31.143 309.202 32.6367 309.3 33.757C309.413 34.9585 309.446 36.9393 309.381 38.6279C309.316 40.1865 309.154 42.2323 309.024 43.174C308.894 44.1157 308.537 46.1615 308.244 47.7201C307.936 49.2788 307.498 51.2921 307.286 52.1851C307.059 53.078 306.832 54.0685 306.783 54.3769C306.734 54.6854 306.621 55.9031 306.523 57.0559C306.394 58.5821 306.394 59.7673 306.523 61.3585C306.621 62.56 306.848 64.1349 307.01 64.8492C307.173 65.5636 307.546 66.8138 307.822 67.6094C308.115 68.4212 308.602 69.5415 308.926 70.126C309.251 70.7105 309.803 71.6197 310.144 72.1555C310.501 72.6913 311.362 73.6979 312.076 74.3961C312.904 75.2079 313.862 75.9548 314.852 76.523C315.664 76.9939 316.93 77.5784 317.645 77.8057C318.359 78.0492 319.82 78.4551 320.892 78.7149C321.963 78.9909 323.717 79.5105 324.788 79.8677C325.86 80.2411 327.613 80.9717 328.685 81.4913C329.756 82.0109 331.217 82.8227 331.932 83.2773C332.646 83.7481 333.701 84.5762 334.27 85.1282C334.838 85.6802 335.601 86.557 335.991 87.0928C336.364 87.6286 336.867 88.4566 337.111 88.9274C337.338 89.3821 337.614 89.7717 337.695 89.7717C337.793 89.7717 337.858 89.6743 337.858 89.5769C337.858 89.4632 338.182 88.8138 338.605 88.1481C339.01 87.4824 339.757 86.4595 340.26 85.8913C340.78 85.323 341.803 84.3813 342.566 83.8131C343.329 83.2448 344.969 82.2869 346.219 81.6699C347.469 81.0529 349.369 80.2411 350.44 79.8677C351.512 79.5105 353.379 78.9585 354.58 78.65C355.781 78.3415 357.324 77.9031 357.99 77.6758C358.655 77.4485 359.792 76.8965 360.506 76.4581C361.22 76.0197 362.276 75.2404 362.86 74.7046C363.445 74.185 364.289 73.2433 364.743 72.6264C365.182 72.0094 365.864 70.954 366.237 70.2884C366.594 69.6227 367.13 68.4212 367.406 67.6094C367.682 66.8138 368.055 65.5636 368.218 64.8492C368.396 64.1349 368.624 62.56 368.721 61.3585C368.835 59.7836 368.835 58.5172 368.721 56.8935C368.607 55.4648 368.364 53.8736 368.039 52.591C367.779 51.4707 367.276 49.1002 366.919 47.3142C366.578 45.5282 366.205 43.2227 366.091 42.1998C365.977 41.177 365.88 38.8065 365.88 36.9231C365.88 35.0559 365.961 32.9452 366.075 32.2633C366.188 31.5652 366.529 30.2176 366.838 29.2596C367.146 28.2855 367.714 26.9541 368.12 26.2884C368.559 25.5253 369.273 24.6486 370.02 23.9342C370.686 23.3172 371.497 22.6515 371.838 22.4729C372.163 22.2943 372.439 22.1157 372.439 22.067C372.439 22.0183 371.822 21.7098 371.091 21.3526C369.987 20.8331 369.5 20.4596 368.283 19.2419C367.341 18.284 366.497 17.2449 365.929 16.3032C365.425 15.5076 364.841 14.3711 364.614 13.7866C364.386 13.2021 364.078 12.2928 363.932 11.7571C363.786 11.2213 363.672 10.2958 363.672 9.69507V8.59101C362.6 9.07809 361.707 9.33787 360.993 9.48399C360.084 9.67883 359.353 9.72753 358.558 9.64635C357.941 9.58141 356.691 9.40282 355.798 9.22422C354.905 9.04562 353.379 8.65595 352.388 8.34746C351.414 8.05521 349.547 7.50319 348.248 7.146C346.949 6.77256 344.871 6.28548 343.621 6.05817C341.738 5.70097 340.796 5.61979 338.182 5.58732C336.445 5.55485 334.757 5.57108 334.448 5.60356C334.14 5.65227 332.825 5.86334 331.526 6.09064ZM230.623 131.304C231.435 131.336 232.961 131.499 234.033 131.677C235.104 131.856 236.744 132.262 237.686 132.57C238.627 132.879 239.91 133.382 240.527 133.674C241.16 133.967 242.15 134.502 242.767 134.876C243.368 135.249 243.887 135.476 243.936 135.395C243.985 135.314 243.952 134.6 243.855 133.82C243.774 133.025 243.693 132.262 243.693 132.116C243.693 131.856 243.887 131.823 247.589 131.823V148.547H244.991L244.894 147.946C244.845 147.605 244.715 146.809 244.586 146.192C244.472 145.575 244.163 144.504 243.92 143.838C243.693 143.172 243.303 142.263 243.076 141.809C242.865 141.37 242.394 140.591 242.069 140.104C241.728 139.617 240.949 138.724 240.348 138.139C239.731 137.555 238.79 136.792 238.254 136.451C237.718 136.11 236.841 135.639 236.306 135.428C235.77 135.2 234.828 134.876 234.195 134.713C233.481 134.519 232.263 134.356 230.948 134.307C229.617 134.243 228.318 134.291 227.457 134.421C226.694 134.535 225.525 134.795 224.86 135.022C224.194 135.249 223.171 135.671 222.587 135.964C222.002 136.256 221.028 136.873 220.395 137.311C219.778 137.75 218.755 138.626 218.122 139.243C217.505 139.876 216.58 140.964 216.06 141.662C215.557 142.377 214.794 143.643 214.355 144.488C213.917 145.332 213.3 146.842 212.975 147.816C212.634 148.79 212.212 150.479 212.001 151.55C211.693 153.239 211.644 154.018 211.644 157.395C211.644 161.016 211.677 161.438 212.082 163.37C212.326 164.507 212.667 165.887 212.862 166.455C213.04 167.007 213.625 168.338 214.144 169.41C214.696 170.579 215.557 172.008 216.287 172.982C216.953 173.875 217.943 174.995 218.463 175.482C218.982 175.969 219.859 176.7 220.395 177.09C220.931 177.496 222.181 178.21 223.155 178.681C224.145 179.152 225.525 179.704 226.24 179.882C226.954 180.061 228.204 180.288 229 180.386C229.828 180.499 231.094 180.516 231.922 180.467C232.734 180.402 233.968 180.24 234.682 180.093C235.396 179.964 236.565 179.671 237.28 179.444C237.994 179.217 239.39 178.648 240.364 178.161C241.355 177.69 242.67 176.911 243.287 176.44C243.92 175.969 244.829 175.174 245.332 174.687C245.819 174.2 246.518 173.437 247.508 172.203L248.401 172.901C248.888 173.274 249.294 173.648 249.294 173.729C249.294 173.794 248.742 174.524 248.076 175.352C247.411 176.164 246.42 177.236 245.884 177.739C245.349 178.226 244.407 179.022 243.774 179.493C243.157 179.947 241.988 180.71 241.176 181.149C240.381 181.603 239.017 182.253 238.173 182.578C237.328 182.902 235.835 183.341 234.844 183.535C233.87 183.747 232.295 184.006 231.354 184.12C230.363 184.234 228.821 184.266 227.701 184.217C226.629 184.169 224.827 183.941 223.691 183.714C222.538 183.487 220.931 183.032 220.119 182.707C219.291 182.399 217.992 181.798 217.229 181.392C216.466 180.986 215.411 180.353 214.875 179.964C214.339 179.59 213.43 178.876 212.845 178.372C212.261 177.869 211.319 176.927 210.767 176.278C210.199 175.628 209.339 174.508 208.868 173.794C208.397 173.079 207.65 171.797 207.244 170.952C206.822 170.108 206.221 168.647 205.913 167.705C205.588 166.764 205.215 165.383 205.036 164.62C204.874 163.857 204.663 162.299 204.565 161.13C204.452 159.944 204.419 158.191 204.484 157.152C204.533 156.129 204.695 154.554 204.825 153.661C204.955 152.768 205.264 151.226 205.523 150.251C205.783 149.277 206.286 147.702 206.66 146.761C207.017 145.819 207.699 144.358 208.17 143.513C208.64 142.669 209.55 141.273 210.183 140.428C210.816 139.584 211.985 138.269 212.781 137.522C213.576 136.775 214.745 135.817 215.362 135.395C215.995 134.973 217.115 134.291 217.878 133.885C218.641 133.479 219.924 132.927 220.72 132.635C221.531 132.359 222.911 131.986 223.804 131.807C224.697 131.629 226.272 131.417 227.295 131.352C228.318 131.304 229.828 131.271 230.623 131.304ZM281.196 131.304C282.041 131.336 283.502 131.466 284.443 131.58C285.385 131.71 286.7 131.969 287.366 132.148C288.031 132.31 289.168 132.684 289.882 132.96C290.597 133.252 291.652 133.739 292.236 134.064C292.821 134.372 293.73 134.941 294.266 135.282C294.802 135.639 295.792 136.386 296.458 136.938C297.123 137.506 298.049 138.383 298.503 138.902C298.958 139.438 299.753 140.445 300.273 141.159C300.776 141.874 301.507 142.978 301.864 143.595C302.237 144.212 302.87 145.543 303.276 146.517C303.698 147.491 304.234 149.001 304.478 149.845C304.705 150.69 305.014 151.907 305.16 152.524C305.322 153.239 305.452 154.846 305.501 156.827C305.566 159.327 305.533 160.383 305.306 161.86C305.16 162.883 304.786 164.604 304.478 165.676C304.169 166.747 303.601 168.355 303.228 169.248C302.838 170.141 302.172 171.488 301.734 172.219C301.279 172.966 300.5 174.135 299.981 174.817C299.477 175.515 298.519 176.619 297.87 177.285C297.237 177.966 296.149 178.924 295.483 179.428C294.818 179.931 293.649 180.727 292.886 181.165C292.123 181.62 290.775 182.285 289.882 182.626C288.989 182.983 287.561 183.406 286.716 183.6C285.872 183.779 284.378 184.006 283.388 184.12C282.333 184.234 280.644 184.266 279.248 184.217C277.949 184.169 275.985 183.958 274.865 183.779C273.744 183.584 272.186 183.211 271.374 182.951C270.578 182.675 269.263 182.155 268.452 181.766C267.656 181.376 266.292 180.597 265.448 180.028C264.604 179.46 263.289 178.372 262.526 177.609C261.763 176.846 260.691 175.612 260.139 174.849C259.603 174.086 258.873 172.95 258.516 172.333C258.175 171.716 257.574 170.482 257.2 169.621C256.827 168.744 256.275 167.056 255.967 165.887C255.658 164.702 255.317 163.175 255.187 162.51C255.057 161.747 254.976 159.977 254.976 157.801C254.976 155.122 255.041 153.969 255.268 152.849C255.431 152.037 255.788 150.576 256.064 149.602C256.324 148.628 256.908 147.004 257.347 146.03C257.785 145.056 258.483 143.676 258.921 142.978C259.344 142.279 260.042 141.224 260.48 140.623C260.918 140.023 261.99 138.837 262.834 137.993C263.695 137.149 265.058 136.012 265.854 135.46C266.666 134.924 267.786 134.226 268.37 133.902C268.955 133.593 270.124 133.074 270.968 132.749C271.812 132.44 273.273 132.018 274.215 131.823C275.157 131.629 276.764 131.417 277.787 131.352C278.81 131.304 280.352 131.271 281.196 131.304ZM275.887 134.567C275.417 134.665 274.459 134.957 273.777 135.233C273.079 135.493 271.942 136.077 271.26 136.532C270.562 136.97 269.409 137.912 268.679 138.61C267.964 139.292 266.942 140.477 266.422 141.24C265.919 142.003 265.172 143.237 264.799 144C264.409 144.764 263.873 146.03 263.581 146.842C263.289 147.654 262.85 149.18 262.623 150.251C262.396 151.323 262.136 153.076 262.039 154.148C261.925 155.22 261.892 156.827 261.957 157.72C262.006 158.613 262.201 160.253 262.38 161.373C262.558 162.493 262.834 163.955 263.013 164.62C263.175 165.286 263.548 166.488 263.841 167.299C264.117 168.111 264.701 169.491 265.123 170.384C265.562 171.277 266.373 172.706 266.925 173.55C267.494 174.395 268.533 175.677 269.263 176.408C269.978 177.122 271 178.031 271.536 178.421C272.072 178.811 273.062 179.395 273.728 179.736C274.394 180.077 275.498 180.499 276.163 180.678C276.829 180.873 278.144 181.084 279.086 181.165C280.125 181.262 281.424 181.262 282.414 181.165C283.307 181.084 284.573 180.873 285.223 180.694C285.856 180.516 286.927 180.126 287.577 179.817C288.21 179.509 289.33 178.827 290.045 178.307C290.759 177.772 291.782 176.879 292.301 176.294C292.837 175.726 293.6 174.735 294.022 174.119C294.428 173.502 295.029 172.511 295.354 171.927C295.662 171.342 296.198 170.189 296.522 169.378C296.847 168.55 297.286 167.121 297.513 166.212C297.74 165.286 298.032 163.711 298.162 162.721C298.292 161.714 298.406 160.074 298.406 159.1C298.406 158.126 298.325 156.6 298.227 155.739C298.13 154.862 297.886 153.304 297.675 152.281C297.448 151.258 296.977 149.553 296.62 148.514C296.263 147.459 295.613 145.884 295.175 145.023C294.737 144.147 293.925 142.734 293.357 141.89C292.788 141.045 291.733 139.763 291.019 139.048C290.304 138.318 289.135 137.344 288.421 136.857C287.707 136.386 286.619 135.753 285.986 135.46C285.369 135.168 284.232 134.778 283.469 134.6C282.706 134.421 281.391 134.243 280.547 134.21C279.703 134.161 278.501 134.178 277.868 134.259C277.251 134.324 276.342 134.454 275.887 134.567ZM465.873 131.304C466.685 131.336 468.211 131.499 469.283 131.677C470.354 131.856 472.075 132.278 473.098 132.619C474.121 132.96 475.517 133.512 476.183 133.853C476.849 134.194 477.79 134.713 478.261 135.006C478.862 135.412 479.138 135.509 479.203 135.363C479.268 135.249 479.268 134.746 479.203 134.259C479.154 133.772 479.057 133.025 478.943 131.823H482.839V148.547H480.242L479.982 146.972C479.836 146.095 479.544 144.845 479.332 144.212C479.121 143.562 478.683 142.491 478.358 141.857C478.034 141.208 477.498 140.315 477.157 139.86C476.832 139.422 476.167 138.659 475.68 138.172C475.192 137.685 474.3 136.954 473.666 136.548C473.049 136.142 471.929 135.558 471.199 135.265C470.452 134.989 469.169 134.632 468.357 134.486C467.237 134.291 466.263 134.243 464.575 134.307C462.772 134.372 461.993 134.47 460.84 134.811C460.045 135.054 458.73 135.574 457.918 135.964C457.123 136.369 455.986 137.051 455.402 137.49C454.817 137.928 453.794 138.854 453.129 139.552C452.447 140.266 451.521 141.386 451.067 142.052C450.628 142.718 449.914 143.919 449.508 144.731C449.119 145.543 448.518 146.955 448.209 147.897C447.901 148.839 447.462 150.544 447.268 151.713C446.943 153.499 446.894 154.359 446.894 157.395C446.894 160.366 446.959 161.292 447.251 162.916C447.463 163.987 447.885 165.627 448.193 166.569C448.518 167.51 449.054 168.826 449.395 169.491C449.735 170.157 450.45 171.358 450.986 172.17C451.505 172.982 452.528 174.216 453.226 174.947C453.94 175.661 455.061 176.635 455.726 177.106C456.392 177.577 457.61 178.291 458.405 178.697C459.266 179.135 460.629 179.639 461.733 179.931C463.389 180.353 463.876 180.418 466.036 180.418C467.789 180.434 468.861 180.353 469.851 180.142C470.614 179.98 471.816 179.671 472.53 179.444C473.244 179.217 474.446 178.746 475.209 178.389C475.972 178.031 477.206 177.333 477.969 176.83C478.732 176.327 479.868 175.401 480.501 174.768C481.135 174.151 481.914 173.307 482.807 172.17L483.602 172.803C484.025 173.161 484.463 173.502 484.544 173.566C484.641 173.631 484.382 174.102 483.895 174.719C483.456 175.288 482.385 176.44 481.541 177.301C480.696 178.145 479.446 179.233 478.781 179.704C478.115 180.175 476.913 180.905 476.102 181.344C475.306 181.766 473.942 182.383 473.098 182.691C472.254 183.016 470.565 183.471 469.364 183.714C467.432 184.104 466.815 184.152 464.088 184.169C461.36 184.169 460.759 184.12 458.941 183.73C457.788 183.487 456.116 183 455.207 182.626C454.281 182.269 452.95 181.652 452.236 181.262C451.521 180.873 450.352 180.126 449.638 179.59C448.924 179.054 447.609 177.869 446.716 176.927C445.823 176.002 444.735 174.703 444.28 174.037C443.842 173.372 443.144 172.17 442.722 171.358C442.3 170.547 441.699 169.199 441.391 168.355C441.082 167.51 440.627 165.968 440.4 164.945C440.173 163.922 439.913 162.136 439.816 160.967C439.702 159.782 439.686 158.028 439.734 156.989C439.799 155.967 439.994 154.278 440.157 153.255C440.335 152.232 440.66 150.69 440.887 149.845C441.115 149.001 441.602 147.572 441.959 146.679C442.316 145.786 442.9 144.504 443.274 143.838C443.631 143.172 444.215 142.182 444.573 141.646C444.946 141.11 445.644 140.152 446.147 139.536C446.651 138.919 447.576 137.928 448.193 137.36C448.81 136.792 449.833 135.964 450.45 135.525C451.083 135.087 452.171 134.405 452.885 134.015C453.599 133.626 454.898 133.041 455.775 132.733C456.635 132.408 458.097 132.002 459.022 131.807C459.931 131.629 461.522 131.417 462.545 131.352C463.568 131.304 465.078 131.271 465.873 131.304ZM586.015 131.288C586.729 131.32 588.012 131.417 588.856 131.515C589.7 131.612 590.983 131.823 591.697 131.986C592.412 132.148 593.662 132.521 594.457 132.83C595.269 133.122 596.617 133.755 597.461 134.226C598.305 134.697 599.523 135.46 600.14 135.915C600.773 136.369 601.942 137.425 602.737 138.237C603.549 139.048 604.686 140.396 605.286 141.24C605.887 142.085 606.812 143.627 607.348 144.65C607.884 145.673 608.663 147.54 609.069 148.79C609.491 150.04 609.962 151.875 610.125 152.849C610.287 153.823 610.482 155.447 610.53 156.421C610.595 157.46 610.563 158.986 610.465 160.074C610.352 161.097 610.125 162.672 609.946 163.565C609.767 164.458 609.361 166 609.037 166.975C608.712 167.949 607.998 169.67 607.429 170.79C606.845 171.91 605.887 173.518 605.286 174.362C604.686 175.206 603.5 176.603 602.656 177.447C601.796 178.291 600.529 179.411 599.815 179.915C599.101 180.418 597.753 181.23 596.812 181.717C595.87 182.188 594.522 182.772 593.808 183.016C593.094 183.243 591.957 183.552 591.292 183.682C590.626 183.811 589.424 184.006 588.613 184.104C587.817 184.185 586.421 184.266 585.528 184.266C584.635 184.266 583.141 184.185 582.2 184.104C581.258 184.006 579.764 183.779 578.871 183.6C577.979 183.422 576.696 183.081 576.03 182.854C575.365 182.626 574.196 182.139 573.433 181.782C572.67 181.409 571.419 180.678 570.64 180.175C569.845 179.655 568.546 178.6 567.734 177.82C566.922 177.025 565.802 175.791 565.25 175.076C564.714 174.346 563.886 173.063 563.415 172.235C562.961 171.391 562.295 169.978 561.938 169.085C561.581 168.192 561.094 166.699 560.866 165.757C560.639 164.815 560.331 163.435 560.201 162.672C560.055 161.909 559.909 160.302 559.844 159.1C559.795 157.769 559.827 156.145 559.957 154.96C560.055 153.888 560.412 151.989 560.72 150.738C561.029 149.488 561.613 147.654 562.019 146.679C562.425 145.705 563.058 144.358 563.432 143.724C563.789 143.075 564.568 141.874 565.153 141.045C565.737 140.234 566.792 138.967 567.507 138.253C568.221 137.522 569.471 136.451 570.267 135.85C571.078 135.249 572.491 134.356 573.433 133.869C574.374 133.382 575.803 132.765 576.599 132.505C577.41 132.229 578.725 131.888 579.521 131.742C580.333 131.58 581.826 131.417 582.849 131.352C583.872 131.288 585.301 131.271 586.015 131.288ZM580.739 134.583C580.251 134.697 579.294 135.006 578.628 135.282C577.962 135.541 576.793 136.175 576.03 136.662C575.267 137.149 574.066 138.155 573.351 138.87C572.621 139.6 571.663 140.769 571.192 141.484C570.721 142.198 570.007 143.432 569.617 144.244C569.228 145.056 568.676 146.355 568.4 147.167C568.124 147.978 567.718 149.505 567.49 150.576C567.182 152.021 567.052 153.255 566.987 155.366C566.922 157.184 566.955 158.792 567.085 159.831C567.198 160.724 567.426 162.185 567.604 163.078C567.783 163.971 568.189 165.513 568.513 166.488C568.822 167.462 569.487 169.118 569.974 170.141C570.462 171.164 571.322 172.706 571.874 173.55C572.442 174.395 573.481 175.677 574.179 176.392C574.894 177.106 575.982 178.048 576.599 178.502C577.232 178.941 578.352 179.59 579.115 179.931C579.878 180.288 581.161 180.71 581.956 180.889C582.963 181.1 584.099 181.197 585.609 181.197C586.892 181.197 588.304 181.1 589.019 180.97C589.684 180.84 590.853 180.483 591.616 180.191C592.379 179.899 593.613 179.249 594.376 178.73C595.139 178.226 596.308 177.236 596.99 176.521C597.672 175.823 598.63 174.638 599.117 173.875C599.62 173.112 600.253 172.024 600.546 171.44C600.838 170.855 601.309 169.767 601.601 169.004C601.893 168.241 602.315 166.78 602.559 165.757C602.786 164.734 603.046 163.37 603.143 162.753C603.224 162.136 603.306 160.448 603.306 159.019C603.306 157.59 603.192 155.658 603.062 154.716C602.932 153.775 602.64 152.281 602.429 151.388C602.202 150.495 601.747 148.952 601.39 147.978C601.049 147.004 600.464 145.608 600.107 144.893C599.734 144.179 598.987 142.896 598.419 142.052C597.851 141.208 596.73 139.844 595.919 139.032C595.123 138.237 593.987 137.246 593.402 136.857C592.818 136.467 591.876 135.915 591.292 135.623C590.707 135.347 589.765 134.957 589.181 134.778C588.596 134.6 587.363 134.372 586.421 134.275C585.479 134.178 584.538 134.096 584.31 134.113C584.083 134.129 583.401 134.194 582.768 134.259C582.151 134.324 581.226 134.47 580.739 134.583ZM90.7881 132.473H132.724L132.838 136.158C132.903 138.204 133.016 141.63 133.211 147.751L130.451 147.654L130.337 145.786C130.289 144.764 130.11 143.221 129.964 142.377C129.802 141.533 129.526 140.396 129.315 139.86C129.12 139.324 128.779 138.594 128.552 138.237C128.324 137.879 127.805 137.279 127.383 136.905C126.977 136.516 126.392 136.093 126.116 135.947C125.824 135.801 125.256 135.558 124.85 135.428C124.282 135.233 123.096 135.168 114.946 135.071L114.881 157.2C114.849 169.361 114.751 179.525 114.54 180.256L115.92 180.158C116.683 180.093 118.047 180.012 120.629 179.882V183.13H103.744V180.694L104.604 180.613C105.059 180.564 105.854 180.337 106.342 180.077C106.894 179.817 107.381 179.411 107.608 179.071C107.819 178.762 108.111 178.145 108.257 177.69C108.501 176.944 108.533 175.011 108.631 134.989L104.117 135.119C100.399 135.217 99.4091 135.298 98.4674 135.558C97.818 135.736 96.9575 136.142 96.4542 136.483C95.9022 136.873 95.334 137.457 94.9443 138.074C94.6034 138.61 94.165 139.454 93.9865 139.941C93.8079 140.429 93.5156 141.662 93.337 142.669C93.1747 143.66 93.0286 144.942 93.0286 145.51C93.0286 146.062 92.9636 146.793 92.785 147.735H90.1874L90.301 145.105C90.3822 143.643 90.4634 140.737 90.5121 138.643C90.5608 136.548 90.642 134.291 90.6907 133.658L90.7881 132.473ZM136.068 132.473H154.577V134.746L153.473 134.827C152.872 134.876 151.898 135.054 151.33 135.233C150.567 135.444 150.112 135.704 149.706 136.126C149.235 136.613 149.122 136.857 149.073 137.555C149.024 138.009 149.089 138.756 149.203 139.211C149.3 139.649 149.657 140.526 149.966 141.159C150.291 141.776 151.33 143.53 152.288 145.056C153.245 146.566 155.015 149.342 156.217 151.226C157.402 153.093 158.977 155.479 159.691 156.535C160.405 157.574 161.022 158.434 161.071 158.451C161.103 158.451 161.834 157.152 162.662 155.561C163.506 153.986 165.357 150.446 166.786 147.735C168.214 145.007 169.968 141.711 170.682 140.428C171.397 139.13 172.338 137.522 172.777 136.857C173.215 136.175 173.572 135.574 173.572 135.509C173.572 135.444 172.354 135.444 168.198 135.639L168.214 132.473H182.826V133.609C182.826 134.648 182.794 134.746 182.453 134.811C182.258 134.843 181.803 134.924 181.446 134.989C181.089 135.038 180.245 135.314 179.579 135.59C178.556 136.012 178.134 136.321 176.965 137.49C176.089 138.367 175.115 139.568 174.335 140.753C173.67 141.776 172.647 143.497 172.062 144.569C171.478 145.624 169.254 149.829 163.214 161.292L163.1 180.223L164.399 180.126C165.114 180.077 166.396 180.012 168.864 179.882V183.13H151.979L151.963 180.775L152.742 180.645C153.164 180.564 153.814 180.434 154.171 180.321C154.528 180.207 155.113 179.834 155.47 179.476C155.827 179.119 156.265 178.454 156.428 178.015C156.704 177.268 156.752 176.538 156.882 163.565L155.989 162.104C155.502 161.292 154.22 159.246 153.148 157.558C152.077 155.853 150.226 152.93 149.041 151.063C147.855 149.18 146.053 146.29 145.014 144.65C143.991 142.994 142.757 140.916 142.303 140.023C141.832 139.13 141.215 137.733 140.436 135.476L136.068 135.558V132.473ZM312.043 132.473H328.457V134.746L327.678 134.827C327.256 134.876 326.574 135.022 326.184 135.152C325.779 135.282 325.243 135.541 324.983 135.752C324.723 135.947 324.334 136.402 324.139 136.775C323.928 137.133 323.684 137.928 323.587 138.561C323.473 139.292 323.408 146.939 323.343 180.369L326.509 180.353C328.246 180.337 331.672 180.272 334.14 180.207C337.728 180.093 338.799 180.012 339.66 179.769C340.228 179.59 341.072 179.249 341.527 178.989C341.965 178.73 342.68 178.161 343.102 177.739C343.573 177.252 344.125 176.424 344.514 175.612C344.871 174.882 345.293 173.696 345.44 172.982C345.586 172.251 345.748 170.871 345.91 168.111L348.346 167.997L348.216 172.755C348.151 175.385 348.037 178.778 347.859 183.13L312.141 183.048V180.792L313.196 180.581C313.764 180.483 314.43 180.321 314.657 180.24C314.868 180.142 315.307 179.866 315.599 179.606C315.907 179.347 316.297 178.876 316.459 178.535C316.622 178.194 316.833 177.431 316.914 176.83C317.028 176.164 317.093 167.868 317.174 135.363L312.141 135.476L312.043 132.473ZM353.768 132.473H370.004V134.746L368.916 134.908C368.315 135.006 367.568 135.217 367.244 135.379C366.935 135.541 366.513 135.85 366.318 136.061C366.123 136.272 365.799 136.808 365.214 138.074L365.133 158.938C365.084 170.4 364.987 179.915 364.922 180.077C364.825 180.337 365.036 180.353 368.023 180.353C369.776 180.337 373.267 180.272 375.767 180.207C379.794 180.093 380.443 180.028 381.45 179.72C382.083 179.525 382.846 179.2 383.154 179.022C383.479 178.827 384.015 178.454 384.356 178.178C384.697 177.902 385.265 177.236 385.622 176.716C385.979 176.181 386.401 175.369 386.564 174.93C386.726 174.476 386.986 173.534 387.132 172.82C387.278 172.089 387.457 170.741 387.619 168.111L390.054 167.997L389.924 172.43C389.843 174.882 389.73 178.259 389.567 183.048L353.768 183.13V180.775L354.71 180.645C355.213 180.58 356.009 180.353 356.447 180.142C356.902 179.931 357.47 179.541 357.714 179.249C357.957 178.973 358.282 178.356 358.428 177.885C358.671 177.122 358.704 175.775 358.753 165.27C358.785 158.792 358.818 149.407 358.882 135.347L353.768 135.558V132.473ZM395.493 132.473H430.237L430.334 136.158C430.383 138.188 430.432 141.029 430.48 145.056H428.207L428.11 143.513C428.061 142.653 427.915 141.565 427.802 141.078C427.688 140.575 427.412 139.747 427.168 139.211C426.925 138.675 426.405 137.879 426.016 137.441C425.61 137.019 424.96 136.451 424.554 136.191C424.165 135.947 423.239 135.59 422.525 135.395C421.811 135.217 420.609 135.022 419.846 134.973C419.099 134.924 416.68 134.957 414.489 135.038C411.761 135.152 410.251 135.282 409.667 135.46C409.066 135.639 408.611 135.915 408.157 136.402C407.718 136.84 407.41 137.376 407.248 137.912C407.134 138.35 406.955 139.665 406.858 140.834C406.777 141.987 406.712 145.673 406.696 155.122L408.53 155.236C409.537 155.301 412.605 155.35 420.333 155.366L420.252 154.424C420.203 153.905 420.106 152.654 420.009 151.631C419.927 150.592 419.846 149.634 419.846 149.472C419.846 149.228 420.025 149.196 422.931 149.196V164.296H420.658L420.593 163.597C420.544 163.224 420.479 162.542 420.431 162.104C420.382 161.649 420.236 160.951 420.09 160.561C419.944 160.155 419.57 159.555 419.229 159.214C418.888 158.857 418.288 158.483 417.817 158.321C417.119 158.077 416.388 158.045 411.972 158.061C409.212 158.093 406.89 158.158 406.825 158.223C406.76 158.304 406.696 163.321 406.614 180.402L413.839 180.288C417.817 180.223 421.583 180.11 422.2 180.028C422.833 179.931 423.775 179.752 424.311 179.623C424.847 179.493 425.691 179.184 426.178 178.941C426.681 178.713 427.493 178.096 428.013 177.577C428.63 176.96 429.133 176.229 429.49 175.45C429.798 174.8 430.156 173.761 430.302 173.144C430.432 172.511 430.61 171.326 430.805 168.988H433.24L433.127 171.472C433.062 172.836 432.964 175.71 432.916 177.853C432.867 179.996 432.786 182.058 432.672 183.13H395.493V180.775L396.678 180.564C397.393 180.451 398.14 180.191 398.578 179.915C399.114 179.59 399.438 179.217 399.763 178.583C400.153 177.82 400.25 177.382 400.38 175.661C400.461 174.541 400.542 165.01 400.607 135.347L395.493 135.558V132.473ZM488.846 132.473H530.896L530.993 135.265C531.042 136.808 531.14 140.185 531.204 142.783C531.286 145.364 531.318 147.54 531.286 147.605C531.253 147.67 530.636 147.735 528.623 147.735L528.542 146.306C528.493 145.527 528.38 144.309 528.282 143.595C528.201 142.864 527.974 141.711 527.795 140.997C527.616 140.266 527.227 139.26 526.951 138.724C526.675 138.204 526.107 137.441 525.701 137.035C525.311 136.645 524.629 136.142 524.207 135.931C523.785 135.72 522.973 135.444 522.421 135.314C521.658 135.136 520.343 135.071 513.037 135.071V155.885C513.037 167.332 512.988 177.496 512.794 180.24L514.174 180.142C514.937 180.093 516.268 180.012 518.719 179.882V183.13H501.835V180.775L502.614 180.645C503.036 180.564 503.669 180.418 504.01 180.321C504.367 180.207 504.903 179.899 505.228 179.623C505.553 179.347 505.958 178.795 506.121 178.405C506.283 177.999 506.478 177.252 506.559 176.716C506.624 176.181 506.705 166.601 506.754 135.152L502.387 135.184C499.886 135.2 497.646 135.298 497.126 135.412C496.639 135.509 495.925 135.736 495.552 135.899C495.162 136.061 494.513 136.516 494.107 136.889C493.685 137.262 493.198 137.831 492.986 138.155C492.792 138.464 492.451 139.195 492.223 139.779C491.98 140.347 491.671 141.484 491.525 142.296C491.379 143.091 491.201 144.634 491.038 147.654L489.821 147.686C489.155 147.719 488.57 147.67 488.505 147.605C488.457 147.54 488.506 144.276 488.619 140.347C488.733 136.418 488.83 133.025 488.846 132.83V132.473ZM536.903 132.473H553.138V134.746L552.034 134.924C551.434 135.022 550.687 135.233 550.378 135.395C550.054 135.558 549.648 135.866 549.453 136.077C549.258 136.272 548.917 136.824 548.349 138.074L548.252 158.857C548.203 171.358 548.105 179.769 548.008 179.947C547.862 180.24 547.911 180.24 549.08 180.158C549.745 180.093 550.93 180.012 553.138 179.882V183.13H536.903L536.887 180.775L537.828 180.645C538.348 180.58 539.127 180.353 539.582 180.158C540.02 179.947 540.589 179.525 540.832 179.217C541.076 178.908 541.4 178.307 541.546 177.853C541.806 177.122 541.839 175.775 541.887 163.809C541.904 156.535 541.952 147.15 542.017 135.363L536.903 135.558V132.473ZM135.078 201.314H529.922V202.938H135.078V201.314ZM338.832 10.1659C340.033 10.1984 341.673 10.3445 342.485 10.4744C343.28 10.6043 345.034 11.0102 346.381 11.3511C347.713 11.7083 349.206 12.1305 349.709 12.2928C350.197 12.4714 351.544 12.8449 352.713 13.1534C354.483 13.608 355.116 13.6892 356.691 13.6892C358.379 13.7054 358.639 13.6729 359.613 13.2508C360.181 12.991 360.766 12.7475 360.912 12.715C361.107 12.65 361.155 12.8774 361.155 14.225C361.155 15.7511 361.172 15.8648 361.821 17.1962C362.178 17.9593 362.811 18.9659 363.201 19.4368C363.591 19.9238 364.305 20.6058 364.808 20.9792C365.295 21.3364 366.058 21.8072 366.513 22.0021C366.951 22.1969 367.568 22.408 367.893 22.4567C368.202 22.5216 368.591 22.6028 368.737 22.6515C368.9 22.684 369.03 22.7652 369.03 22.8463C369.03 22.9113 368.607 23.1873 368.104 23.4471C367.585 23.7231 366.708 24.3888 366.156 24.957C365.377 25.7201 364.954 26.3209 364.402 27.4736C363.932 28.4478 363.558 29.5194 363.347 30.591C363.152 31.484 362.925 33.1238 362.828 34.2441C362.682 35.7866 362.682 36.8744 362.811 38.7902C362.925 40.1703 363.12 42.2161 363.266 43.3364C363.412 44.4567 363.721 46.2426 363.932 47.3142C364.143 48.3858 364.597 50.464 364.906 51.9415C365.393 54.1496 365.506 55.0589 365.571 57.1371C365.62 58.6308 365.588 60.1895 365.474 60.9526C365.377 61.667 365.117 62.9496 364.906 63.7939C364.678 64.6382 364.24 65.9533 363.899 66.7164C363.574 67.4795 362.941 68.616 362.519 69.233C362.097 69.8662 361.431 70.7267 361.042 71.1651C360.652 71.6035 359.938 72.2692 359.451 72.6426C358.947 73.0323 357.892 73.6655 357.097 74.0876C356.285 74.4935 355.294 74.8994 354.905 74.9806C354.499 75.0618 353.103 75.4352 351.82 75.8086C350.521 76.1658 348.687 76.7666 347.761 77.1238C346.82 77.4972 345.505 78.0817 344.839 78.4551C344.157 78.8123 343.329 79.3156 342.972 79.543C342.615 79.7865 341.9 80.3385 341.397 80.7769C340.877 81.2153 340.114 82.0109 339.692 82.5466C339.254 83.0987 338.653 84.0566 338.345 84.7061C338.02 85.3555 337.728 85.8751 337.695 85.8751C337.647 85.8751 337.419 85.5016 337.208 85.0308C336.981 84.5599 336.543 83.7806 336.218 83.2773C335.893 82.7902 335.244 81.9946 334.757 81.5075C334.27 81.0367 333.474 80.3385 332.987 79.9813C332.484 79.6079 331.51 78.9909 330.795 78.6013C330.081 78.1954 328.652 77.5459 327.629 77.14C326.59 76.7503 325.275 76.2957 324.707 76.1334C324.123 75.971 322.678 75.5813 321.492 75.2566C320.307 74.9319 318.895 74.4448 318.327 74.1688C317.775 73.8928 316.882 73.3407 316.346 72.9673C315.81 72.5939 314.966 71.847 314.463 71.3275C313.959 70.7917 313.245 69.8987 312.855 69.3142C312.466 68.7297 311.865 67.6743 311.54 66.9599C311.215 66.2456 310.826 65.3039 310.696 64.8492C310.55 64.4109 310.29 63.2743 310.111 62.3326C309.933 61.3909 309.738 59.9297 309.673 59.0854C309.624 58.2411 309.641 56.8448 309.738 56.0006C309.835 55.1563 310.063 53.7275 310.241 52.8345C310.42 51.9415 310.81 50.1555 311.118 48.8567C311.427 47.5578 311.832 45.6257 312.027 44.5541C312.206 43.4825 312.482 41.8751 312.612 40.9821C312.758 40.0891 312.904 38.1246 312.953 36.5984C313.018 34.4877 312.985 33.4486 312.774 32.1334C312.628 31.1917 312.319 29.8766 312.092 29.2109C311.865 28.5452 311.475 27.636 311.215 27.1814C310.972 26.743 310.436 26.0124 310.047 25.5578C309.641 25.1194 308.878 24.4862 308.326 24.1777C307.79 23.8692 307.335 23.5445 307.335 23.4471C307.319 23.3659 307.741 23.1548 308.261 23.0087C308.78 22.8463 309.673 22.408 310.241 22.0345C310.826 21.6449 311.621 20.9305 312.011 20.4434C312.401 19.9563 312.969 19.0471 313.261 18.4139C313.57 17.7969 313.943 16.8065 314.089 16.222C314.251 15.5563 314.333 14.7283 314.284 13.9814C314.251 13.3157 314.284 12.7475 314.349 12.715C314.414 12.6825 314.966 12.8936 315.567 13.1858C316.606 13.6729 316.752 13.7054 318.538 13.7054C320.096 13.7054 320.746 13.6242 322.515 13.1858C323.668 12.8936 325.064 12.5039 325.6 12.3253C326.136 12.1305 327.662 11.6921 329.009 11.3511C330.341 11.0102 331.883 10.6368 332.419 10.5393C332.955 10.4257 334.124 10.2796 335.016 10.2146C335.909 10.1497 337.614 10.1172 338.832 10.1659ZM331.526 11.4323C330.406 11.6596 328.62 12.098 327.548 12.4065C326.477 12.7312 325.016 13.1534 324.301 13.3807C323.587 13.5917 322.515 13.9002 321.947 14.0464C321.2 14.2412 320.226 14.3224 318.7 14.3224C317.028 14.3224 316.33 14.2574 315.778 14.0626C315.372 13.9002 315.031 13.7866 314.998 13.7866C314.982 13.7866 314.966 14.0464 314.966 14.3548C314.966 14.6633 314.852 15.4914 314.706 16.1895C314.576 16.8877 314.17 18.0404 313.797 18.8198C313.277 19.8751 312.839 20.4921 311.897 21.45C311.021 22.3106 310.371 22.8139 309.689 23.1386L308.715 23.577C309.462 24.0803 310.079 24.6486 310.55 25.1356C311.053 25.6552 311.686 26.5644 312.043 27.2626C312.368 27.9283 312.758 28.8537 312.904 29.2921C313.05 29.7467 313.277 30.867 313.407 31.8087C313.553 32.7504 313.651 34.3902 313.651 35.4618C313.651 36.5334 313.586 38.0271 313.505 38.7902C313.423 39.5533 313.277 40.8847 313.18 41.7615C313.083 42.622 312.758 44.5541 312.433 46.064C312.125 47.5578 311.573 49.9445 311.215 51.3733C310.647 53.6625 310.55 54.2795 310.469 56.5688C310.42 58.095 310.452 59.881 310.55 60.9201C310.68 62.0404 310.939 63.3068 311.329 64.4921C311.638 65.4825 312.287 66.9924 312.742 67.8367C313.277 68.8109 314.024 69.8337 314.82 70.678C315.485 71.3924 316.508 72.3016 317.093 72.6751C317.661 73.0485 318.749 73.6168 319.512 73.9253C320.259 74.2337 321.427 74.6072 322.109 74.7533C322.775 74.8994 324.35 75.3378 325.6 75.7437C326.85 76.1496 328.522 76.7666 329.334 77.14C330.13 77.4972 331.234 78.0492 331.769 78.3739C332.305 78.6987 333.133 79.2669 333.636 79.6404C334.124 80.0138 334.968 80.7769 335.52 81.3452C336.056 81.9134 336.737 82.8064 337.013 83.326C337.289 83.8293 337.582 84.2514 337.647 84.2514C337.712 84.2677 338.069 83.7806 338.426 83.1799C338.799 82.5466 339.644 81.5562 340.455 80.7769C341.218 80.0625 342.452 79.0883 343.215 78.6175C343.962 78.1629 345.277 77.481 346.138 77.0913C346.982 76.7179 348.508 76.1334 349.547 75.7924C350.57 75.4515 352.21 74.9806 353.2 74.7533C354.174 74.526 355.522 74.0876 356.204 73.7954C356.869 73.5193 357.86 72.9836 358.395 72.6101C358.931 72.2529 359.775 71.5223 360.262 71.0027C360.766 70.467 361.35 69.785 361.594 69.4765C361.821 69.1681 362.308 68.405 362.649 67.7718C363.006 67.1548 363.574 65.8396 363.899 64.8492C364.289 63.6802 364.581 62.4138 364.727 61.1961C364.857 60.1732 364.971 58.7282 364.971 57.9976C364.971 57.2507 364.889 55.9356 364.792 55.0751C364.711 54.1983 364.354 52.2825 363.997 50.805C363.656 49.3275 363.185 47.0382 362.958 45.6906C362.714 44.3592 362.438 42.6707 362.341 41.9563C362.227 41.2419 362.146 38.8389 362.146 36.5984C362.13 33.2212 362.178 32.312 362.438 31.1592C362.6 30.3961 362.941 29.1947 363.201 28.4803C363.461 27.7659 363.899 26.7755 364.191 26.2884C364.484 25.8013 365.084 25.0382 365.539 24.5836C365.977 24.129 366.546 23.6094 366.805 23.4308L367.26 23.1224C365.052 22.0021 364.386 21.4987 363.428 20.5246C362.714 19.8102 361.87 18.7873 361.561 18.2515C361.253 17.7157 360.896 16.9202 360.782 16.4655C360.668 16.0272 360.522 15.2316 360.457 14.712C360.392 14.2087 360.295 13.7866 360.262 13.7866C360.214 13.7866 359.905 13.884 359.564 14.0301C359.24 14.16 358.363 14.3224 357.616 14.3711C356.885 14.4198 355.7 14.3873 354.986 14.3061C354.272 14.2087 352.518 13.8028 351.089 13.3807C349.661 12.9748 347.907 12.4552 347.193 12.2441C346.479 12.0168 344.969 11.6596 343.865 11.4486C342.745 11.2213 341.17 10.9615 340.374 10.8803C339.562 10.7829 338.215 10.7179 337.371 10.7179C336.51 10.7342 335.309 10.7991 334.692 10.8803C334.075 10.9615 332.646 11.205 331.526 11.4323ZM324.139 24.4862H333.555L332.549 25.5091C331.997 26.0773 331.445 26.7917 331.299 27.1002C331.169 27.4087 330.99 28.2367 330.893 28.9349C330.795 29.6168 330.714 31.695 330.714 36.9231L331.883 38.1408C332.532 38.8065 333.101 39.3585 333.166 39.3585C333.214 39.3585 334.822 37.2478 336.721 34.65C338.621 32.0685 340.342 29.5843 340.553 29.1297C340.764 28.6914 340.942 28.0744 340.942 27.7984C340.942 27.5061 340.829 26.9866 340.683 26.6618C340.536 26.3209 340.179 25.7039 339.319 24.5024H344.189C346.868 24.5024 349.06 24.5349 349.06 24.5836C349.06 24.6323 348.232 25.0869 347.225 25.5903C345.699 26.3696 345.18 26.743 344.092 27.8308C343.199 28.7238 341.527 30.8832 338.653 34.8773C336.38 38.0434 334.481 40.7061 334.416 40.8035C334.351 40.9009 334.773 41.7127 335.357 42.6057C335.926 43.4987 336.981 45.3984 337.679 46.8271C338.393 48.2559 339.757 51.4057 340.699 53.8087C341.657 56.2279 342.663 58.6308 342.939 59.1504C343.232 59.6862 343.816 60.433 344.271 60.8227C344.774 61.2611 345.293 61.5696 345.651 61.6345C345.959 61.6832 346.462 61.667 346.787 61.602C347.096 61.5371 347.794 61.2935 348.329 61.0338C348.865 60.774 349.612 60.2869 350.018 59.9459C350.408 59.605 351.041 58.8906 351.43 58.3548C351.804 57.819 352.307 56.9747 352.518 56.4876C352.745 56.0006 353.103 54.9452 353.298 54.1334C353.525 53.1917 353.655 52.1526 353.655 51.2109C353.655 50.253 353.541 49.2625 353.298 48.3371C353.103 47.5415 352.664 46.34 352.323 45.6581C351.95 44.8788 351.479 44.2294 351.138 43.9696C350.846 43.7423 350.343 43.4175 350.034 43.2552C349.693 43.0766 349.109 42.9629 348.573 42.9629C347.989 42.9467 347.42 43.0766 346.949 43.2877C346.544 43.4825 345.959 43.9209 345.651 44.2618C345.326 44.6028 344.953 45.0574 344.547 45.6906L344.368 45.2522C344.271 44.9924 344.189 44.4404 344.189 43.9858C344.189 43.5474 344.287 42.9305 344.401 42.6544C344.53 42.3622 344.823 41.9401 345.082 41.7127C345.326 41.4854 345.862 41.2257 346.268 41.112C346.803 40.9821 347.242 40.9821 347.761 41.0795C348.151 41.1769 348.784 41.4205 349.141 41.6153C349.498 41.8264 350.245 42.4271 350.813 42.9467C351.382 43.4825 352.193 44.4242 352.616 45.0412C353.038 45.6744 353.606 46.7784 353.898 47.5253C354.174 48.2559 354.531 49.3437 354.678 49.9607C354.872 50.7725 354.905 51.5519 354.856 53.078C354.807 54.1983 354.645 55.5459 354.515 56.0817C354.369 56.6175 353.914 57.7378 353.525 58.5659C352.973 59.6862 352.502 60.3681 351.609 61.2935C350.749 62.2028 350.132 62.6736 349.304 63.0795C348.67 63.388 347.615 63.7452 346.949 63.8751C345.992 64.0699 345.537 64.0862 344.839 63.9563C344.336 63.8589 343.508 63.5828 342.972 63.3393C342.404 63.0795 341.511 62.4301 340.877 61.8293C340.261 61.2611 339.433 60.2869 339.01 59.6537C338.605 59.0367 338.036 57.8677 337.76 57.0559C337.468 56.2603 336.689 54.1659 336.023 52.4286C335.341 50.6913 334.497 48.4995 334.124 47.5578C333.75 46.6161 332.922 44.7651 332.273 43.45C331.64 42.1349 331.023 41.0633 330.909 41.0633C330.747 41.0633 330.714 42.6869 330.714 48.6131C330.714 53.1105 330.779 56.6662 330.876 57.4293C330.974 58.1113 331.185 58.9718 331.347 59.329C331.51 59.6862 332.045 60.3843 332.549 60.8714C333.052 61.3585 333.425 61.8131 333.377 61.8943C333.344 61.9592 331.315 62.0079 328.88 62.0079C326.444 62.0079 324.399 61.9755 324.334 61.9267C324.269 61.878 324.658 61.4234 325.194 60.9201C325.746 60.4006 326.331 59.6862 326.493 59.329C326.655 58.9718 326.883 57.9814 326.98 57.1371C327.094 56.1629 327.126 52.25 327.11 46.4212C327.061 38.3681 327.029 37.2478 326.818 37.3128C326.672 37.3452 326.184 37.3939 325.714 37.4264C325.21 37.4751 324.869 37.4264 324.869 37.329C324.869 37.2478 325.097 37.0043 325.389 36.8094C325.665 36.5984 326.071 36.0788 326.266 35.6242C326.477 35.1858 326.753 34.3091 326.883 33.6759C327.029 33.0589 327.126 32.0685 327.142 31.484C327.142 30.8995 327.061 29.8117 326.964 29.0486C326.866 28.2692 326.639 27.36 326.444 26.9541C326.249 26.5482 325.649 25.8338 325.113 25.3629L324.139 24.4862Z" fill="#1F1B20"/>
</svg>
