<svg width="34" height="29" viewBox="0 0 34 29" fill="none" xmlns="http://www.w3.org/2000/svg">
<path fill-rule="evenodd" clip-rule="evenodd" d="M29.7762 0.774556C30.173 0.607544 30.6073 0.549943 31.0339 0.607747C31.4606 0.665551 31.8639 0.836647 32.2019 1.10323C32.54 1.36981 32.8004 1.72213 32.9561 2.12351C33.1118 2.5249 33.1571 2.96068 33.0872 3.38549L29.4454 25.4757C29.0921 27.6065 26.7542 28.8285 24.8 27.7671C23.1653 26.8791 20.7375 25.511 18.5536 24.0835C17.4617 23.3689 14.117 21.0808 14.528 19.4525C14.8813 18.0604 20.5014 12.8289 23.7129 9.71854C24.9734 8.49657 24.3985 7.79165 22.91 8.91566C19.212 11.7064 13.2788 15.9504 11.3166 17.1451C9.58558 18.1985 8.68315 18.3783 7.60409 18.1985C5.63545 17.8709 3.80972 17.3635 2.31959 16.7453C0.305994 15.9103 0.403944 13.142 2.31799 12.3359L29.7762 0.774556Z" fill="black"/>
</svg>
